<svg xmlns="http://www.w3.org/2000/svg" xmlns:xlink="http://www.w3.org/1999/xlink" viewBox="0 0 149 73.7"><defs><style>.cls-1{fill:url(#linear-gradient);}.cls-2{fill:#222;}</style><linearGradient id="linear-gradient" x1="74.5" y1="83.93" x2="74.5" y2="40.54" gradientUnits="userSpaceOnUse"><stop offset="0" stop-color="#ffc9c2"/><stop offset="1" stop-color="#e54b4b"/></linearGradient></defs><g id="Layer_2" data-name="Layer 2"><g id="Layer_1-2" data-name="Layer 1"><path class="cls-1" d="M145.7,61.6a14.08,14.08,0,0,1-2.6,4.75A4.7,4.7,0,0,1,139.5,68a2.82,2.82,0,0,1-2.7-1.45c-.54-1-.63-2.55-.3-4.75l1.7-10.4c.66-3.87,0-6.77-2.1-8.7a17.45,17.45,0,0,0-8.8-4,83.88,83.88,0,0,0-9.83-1.24,62.76,62.76,0,0,0,12.78-2.36q8.85-2.7,13.8-7.7a16.44,16.44,0,0,0,4.95-12,14.5,14.5,0,0,0-.16-2.13c-11.17,14.39-23.42,22.52-36.45,24.14-8.39,1.05-14.45-.88-21.45-3.12l-1.2-.39L82.4,61.7a20.22,20.22,0,0,1-2,5.4,5.29,5.29,0,0,1-3,2.4,30.12,30.12,0,0,1-6.57.82,5.5,5.5,0,0,1-4.08-1.47Q65.21,67.5,64.9,63.9L62.73,29.73A81,81,0,0,0,43,33.07l.54,10.43H25.41l3.66-5.17c-1.11.51-2.22,1-3.34,1.59L12.6,58.4A71,71,0,0,1,5.8,67,12.23,12.23,0,0,1,.4,70.3l-.4,2c1.07-.13,2.07-.22,3-.25s2.1,0,3.5,0c1.87,0,3.83,0,5.9,0s4.83.12,8.3.25l.4-2a19.12,19.12,0,0,1-6.35-1.45,4.37,4.37,0,0,1-2.85-3.5Q11.6,63,14.3,59.2L24,45.5H43.64l.86,16.4q.3,5.1-1.75,6.65c-1.37,1-3.65,1.62-6.85,1.75l-.4,2c1.8-.13,4.23-.22,7.3-.25s6.3,0,9.7,0q4.2,0,9.1,0c3.27,0,7.29.16,9.23.16s5.59-.13,9-.16,6.91,0,10.45,0,6.81,0,9.85,0,5.68.12,7.95.25l.4-2a12.62,12.62,0,0,1-5.4-1.1,2.66,2.66,0,0,1-1.35-2.7,29.47,29.47,0,0,1,1-4.8l6.22-23.57a14.52,14.52,0,0,1,6.28,1.37,6,6,0,0,1,3.1,3.9,14.57,14.57,0,0,1,0,5.9l-1.9,11.4q-1,6,2.45,9.5t11.75,3.5q7.2,0,11.4-3t6.1-9.25l.4-1.3h-2.3Z"/><path class="cls-2" d="M29.36,36.93,42.28,18.67,43,31.82a80.57,80.57,0,0,1,19.74-3.34L60.9,0a30.38,30.38,0,0,1-3.65.2A35.72,35.72,0,0,1,53.4,0L26,38.5C27.15,38,28.25,37.43,29.36,36.93Z"/><path class="cls-2" d="M96.35,6.3a22.74,22.74,0,0,1-.85,4.8L89.8,32.66l1.21.39c7,2.23,13,4.16,21.35,3.12,13-1.63,25.25-9.78,36.43-24.23a10.6,10.6,0,0,0-6.24-8.24Q136.1.59,122.5.6q-3.1,0-6.55.1T107.2.8c-1.67,0-3.59,0-5.75-.05L95.2.65c-2,0-3.67-.08-5-.15l-.5,2A12,12,0,0,1,95,3.6,2.87,2.87,0,0,1,96.35,6.3ZM116.7,7.7a8.33,8.33,0,0,1,2-4.15,4.67,4.67,0,0,1,3.2-1,6.19,6.19,0,0,1,5.15,2.35q1.85,2.36,1.85,7.45,0,8-3.2,13.15a20.18,20.18,0,0,1-16.31,9.92Z"/></g></g></svg>