<svg xmlns="http://www.w3.org/2000/svg" viewBox="0 0 2811.91 2800.59"><defs><style>.cls-1{fill:#fff;}</style></defs><g id="Layer_2" data-name="Layer 2"><g id="Layer_1-2" data-name="Layer 1"><path class="cls-1" d="M1454.28,137.28c-.36,5.73-7.48,7.2-7.84,12.93s6.52,8.08,6.16,13.81c-.34,5.42-7.46,6.89-7.82,12.62-.38,6.05,6.52,8.08,6.16,13.81-.22,3.5-15.38,5.75-29.55,7.41l-6.68-.41a9.26,9.26,0,0,1-8.66-9.82c.36-5.73,7.47-6.88,7.85-12.93.36-5.73-6.55-7.76-6.19-13.49s7.49-7.2,7.85-12.93-6.53-8.08-6.17-13.82,7.46-6.88,7.82-12.61c.38-6-6.52-8.08-6.16-13.81a9.26,9.26,0,0,1,9.81-8.65c10.19.64,9.14,129.38,18.27-16.12.36-5.73,7.48-7.2,7.84-12.93s-6.52-8.08-6.16-13.81a9.25,9.25,0,0,1,9.81-8.65c3.82.24,6.18,18.6,7.79,33.73C1457.43,92.09,1456,109.9,1454.28,137.28Zm38.36,91.58c-5.73-.36-7.2-7.48-12.93-7.84s-8.08,6.53-13.81,6.17-6.88-7.47-12.61-7.83c-6-.38-8.08,6.53-13.82,6.17a9.26,9.26,0,0,1-8.65-9.81c.22-3.51,15.38-5.75,29.55-7.42l6.69.42c5.73.36,7.18,7.8,12.91,8.16s8.1-6.84,13.83-6.48a9.47,9.47,0,0,1,8.66,9.81A9.26,9.26,0,0,1,1492.64,228.86ZM1477.86,72.28c-.36,5.73,6.52,8.08,6.16,13.81s-7.46,6.88-7.82,12.61c-.38,6,6.52,8.08,6.16,13.81a9.26,9.26,0,0,1-9.81,8.66c-3.82-.24-6.18-18.61-7.81-33.41,1-10.81,2.43-28.62,4.15-56a9.26,9.26,0,0,1,9.81-8.65c4.14.26,6.13,4.22,9.17,6.65q-.76,12.4-1.85,29.61C1485.68,64.78,1478.22,66.55,1477.86,72.28Zm26.43-29c-2.55-.16-4.06-6.65-5.75-15.38,2-1.79,4-3.26,6.91-3.08a9.25,9.25,0,1,1-1.16,18.46Zm16.44,160.85a9.25,9.25,0,1,1,1.16-18.47c2.22.14,4,6.65,5.42,15.36C1525.28,202.78,1523.59,204.28,1520.73,204.1ZM1565.8,20.58l-7-.44c-5.42-.34-6.87-7.78-12.6-8.14-6-.38-8.1,6.84-13.83,6.48a9.46,9.46,0,0,1-8.65-9.81A9.26,9.26,0,0,1,1533.53,0c5.73.36,6.88,7.46,12.93,7.84,5.73.36,7.76-6.54,13.49-6.18s7.21,7.48,12.94,7.84S1581,3,1586.7,3.35a9.26,9.26,0,0,1,8.65,9.82C1595.13,16.67,1579.65,18.89,1565.8,20.58Zm-8.52,176.54a9.75,9.75,0,0,1-10.13,8.63c-4.14-.26-5.81-4.2-8.85-6.62l1.86-29.61c.36-5.73,7.8-7.18,8.16-12.92s-6.85-8.1-6.49-13.83c.34-5.41,7.79-6.86,8.14-12.59.38-6.05-6.84-8.1-6.48-13.83a9.25,9.25,0,0,1,9.81-8.65c4.14.25,6.19,18.6,8.13,33.43C1560.12,151.91,1558.68,169.72,1557.28,197.12Zm48-67.62c-10.5-.66-9.14-129.39-18.27,16.11-.36,5.73-7.8,7.18-8.16,12.91s6.84,8.1,6.48,13.83a9.25,9.25,0,0,1-9.81,8.66c-4.14-.26-6.18-18.61-8.11-33.75,1.3-10.47,2.74-28.28,4.13-55.68.68-5.71,7.81-7.18,8.17-12.91s-6.53-8.08-6.17-13.81,7.46-6.89,7.82-12.62c.38-6.05-6.52-8.08-6.16-13.81.2-3.18,20.44-4.79,39.08-6.5a9.31,9.31,0,0,1,5.81,9.32c-.36,5.73-7.46,6.88-7.84,12.93-.36,5.73,6.52,8.08,6.18,13.49-.36,5.74-7.48,7.21-7.84,12.94s6.52,8.08,6.16,13.81c-.34,5.41-7.46,6.88-7.82,12.61-.38,6,6.52,8.08,6.17,13.81A9.26,9.26,0,0,1,1605.31,129.5Z"/><path class="cls-1" d="M1614.51,240.58a9.25,9.25,0,0,1-6.58-11.31,9.7,9.7,0,0,1,11.31-6.57c2.47.65,2.61,7.62,2.64,16.21C1619.54,240.27,1617.28,241.32,1614.51,240.58Zm51.5,13.64c-5.55-1.47-5.3-8.67-11.16-10.22-5.55-1.47-8.89,4.91-14.44,3.44-4.31-1.14-5.19-5.33-7.78-8l3.27-12.33,34.84,9.22a9.48,9.48,0,0,1,6.58,11.31A9.26,9.26,0,0,1,1666,254.22Zm-27.58-36.67,2.18-7c1.39-5.24,8.36-5.37,9.82-10.92,1.39-5.25-4.67-8.5-3.21-14.05,1.31-4.94,6.54-8.5,11.48-7.2a9.26,9.26,0,0,1,6.57,11.31c-1.38,5.25-9,5.22-10.44,10.77-1.55,5.86,5.14,9.28,3.67,14.83C1657.85,217.74,1648.87,218,1638.43,217.55Zm48-40.43c-4.63-1.22-8.13-5.45-6.82-10.38,1.46-5.55,9.05-5.53,10.68-11.69,1.55-5.86-5-9.59-3.66-14.83,1.47-5.56,8.66-5.3,10.21-11.16,1.47-5.55-4.83-9.2-3.44-14.44a9.25,9.25,0,1,1,17.89,4.73c-1.39,5.25-8.66,5.3-10.13,10.85-1.55,5.86,4.74,9.51,3.35,14.75-1.47,5.55-8.66,5.3-10.21,11.16-1.47,5.55,4.82,9.19,3.44,14.44A9.26,9.26,0,0,1,1686.42,177.12Zm34.26-128.2a9.47,9.47,0,0,1-6.57-11.31A9.26,9.26,0,0,1,1725.42,31c5.55,1.47,5.3,8.66,11.16,10.21,5.55,1.47,8.88-4.9,14.44-3.43s5.6,8.74,11.15,10.21,9.2-4.83,14.75-3.36c4,1.07,4.88,5.26,7.47,7.92-1.06,4-2.28,8.64-3.51,13.26C1772.1,62.86,1753.68,57.65,1720.68,48.92Zm18.44,60-6.39-2a9.25,9.25,0,0,1-6.58-11.31c1.39-5.24,9-5.21,10.44-10.76,1.55-5.86-5.13-9.28-3.66-14.83,1.3-4.94,32.28-1,47-.44l-3.18,12c-1.47,5.55-9,5.21-10.52,11.07-1.47,5.56,5.13,9.28,3.74,14.53C1769.05,110.56,1753.43,109.72,1739.12,108.91Zm5.5,84-6.4-2c-4.85-1.62-7.88-6.38-6.57-11.31,1.47-5.56,8.66-5.3,10.13-10.85,1.55-5.86-4.83-9.2-3.36-14.75s8.67-5.3,10.22-11.16c1.47-5.55-4.91-8.88-3.44-14.44,1.14-4.31,16.21-2.63,30.51-1.82l6.4,2c4.85,1.62,7.88,6.38,6.57,11.32-1.39,5.24-8.66,5.29-10.13,10.84-1.55,5.86,4.74,9.51,3.36,14.75-1.47,5.55-8.67,5.3-10.22,11.16-1.47,5.55,4.83,9.19,3.44,14.44C1774.23,194.43,1758.92,193.68,1744.62,192.86ZM1769,281.48c-5.55-1.47-5.3-8.66-10.85-10.13-5.86-1.55-9.2,4.83-14.75,3.36a9.26,9.26,0,0,1-6.57-11.31c1.38-5.25,8.66-5.3,10.13-10.85,1.55-5.86-4.75-9.51-3.36-14.75,1.47-5.55,8.66-5.3,10.21-11.16,1.47-5.55-4.82-9.19-3.43-14.43.89-3.4,16.21-2.64,30.51-1.83l6.39,2c4.85,1.61,7.88,6.37,6.58,11.31-1.47,5.55-8.66,5.29-10.13,10.84-1.55,5.86,4.82,9.2,3.35,14.75s-8.66,5.3-10.21,11.16c-1.47,5.55,5.13,9.28,3.75,14.52A9.76,9.76,0,0,1,1769,281.48Zm28.77-212.15c-2.16-.58-2.6-7.62-2.33-16.13,2.34-1.36,4.29-2.5,7.06-1.76a9.26,9.26,0,0,1,6.58,11.31A9.47,9.47,0,0,1,1797.78,69.33Zm17.54,141.91a9.26,9.26,0,0,1-6.58-11.31c1.47-5.55,8.67-5.29,10.14-10.84,1.55-5.86-4.83-9.2-3.36-14.75s8.66-5.3,10.21-11.16c1.47-5.55-4.9-8.89-3.43-14.44a9.24,9.24,0,0,1,11.3-6.57c4.63,1.22,8.13,5.45,6.83,10.38-1.47,5.55-9.45,5.75-10.69,11.69-1.86,5.78,5,9.59,3.67,14.83-1.47,5.55-9,5.22-10.53,11.08-1.47,5.55,5.14,9.28,3.75,14.52A9.26,9.26,0,0,1,1815.32,211.24Zm68.5-119.14L1849.28,83A9.25,9.25,0,0,1,1854,65.07c5.55,1.47,5.3,8.66,10.85,10.13,5.86,1.56,9.2-4.82,14.75-3.35,4.32,1.14,5.19,5.33,7.78,8Zm-22.5,48.83a9.26,9.26,0,0,1-6.57-11.31c1.39-5.25,8.66-5.3,10.13-10.85,1.55-5.86-4.83-9.2-3.36-14.75.66-2.47,9.33-2.81,19.77-2.36l-1.88,7.09c-1.39,5.25-8.66,5.3-9.82,10.93-1.7,5.16,4.68,8.5,3.21,14C1871.49,138.67,1866.26,142.23,1861.32,140.93Zm39.46-44.34c-2.16-.57-2.6-7.62-2.33-16.12,2.34-1.37,4.29-2.5,7.06-1.76a9.25,9.25,0,1,1-4.73,17.88Z"/><path class="cls-1" d="M1980,275.17c-2.73,5.05-9.81,3.41-12.53,8.47s2.54,10.06-.18,15.12c-2.57,4.77-9.66,3.13-12.38,8.19-2.88,5.33,2.55,10.06-.18,15.12-1.66,3.09-16.37-1.21-29.94-5.62l-5.9-3.18a9.26,9.26,0,0,1-3.76-12.53c2.73-5.06,9.66-3.13,12.54-8.47,2.72-5.06-2.55-10.07,0-14.84,2.73-5.06,9.81-3.41,12.53-8.47s-2.54-10.07.18-15.12c2.57-4.78,9.66-3.13,12.38-8.19,2.88-5.34-2.55-10.07.18-15.12a9.25,9.25,0,0,1,12.53-3.76c9,4.84-45.81,121.35,23.33-7,2.73-5.05,9.81-3.41,12.54-8.46s-2.55-10.07.17-15.13a9.26,9.26,0,0,1,12.53-3.75c3.37,1.81-2.16,19.48-7,33.89C2001.8,235.44,1993.05,251,1980,275.17Zm-3.46,99.23c-5-2.72-3.41-9.81-8.46-12.53s-10.07,2.55-15.13-.18c-4.77-2.57-3.13-9.66-8.18-12.38-5.34-2.87-10.07,2.55-15.13-.17a9.27,9.27,0,0,1-3.75-12.54c1.66-3.09,16.37,1.22,29.94,5.63l5.9,3.17c5,2.73,3.26,10.09,8.31,12.82s10.22-2.83,15.28-.11c2,1.06.75,8-1.5,16.23C1981.27,375.11,1978.83,375.61,1976.58,374.4ZM1999.89,387c-3.65-2-3.8-6.4-5.7-9.6,4.22-7.15,8.91-15.85,14.5-26.24a9.25,9.25,0,0,1,12.53-3.76c3.94,2.12-3.87,24-8.32,39C2008.21,385.64,2004.11,389.23,1999.89,387Zm28.75-161c-2.73,5.06,2.55,10.07-.18,15.13-2.57,4.77-9.66,3.13-12.38,8.18-2.87,5.34,2.55,10.07-.18,15.13a9.25,9.25,0,0,1-12.53,3.75c-3.37-1.81,2.17-19.48,6.88-33.61,5.43-9.4,14.18-25,27.19-49.13a9.25,9.25,0,0,1,12.53-3.75c3.65,2,3.8,6.39,5.55,9.87-3.93,7.3-8.9,15.86-14.07,26.12C2038.73,222.72,2031.36,220.93,2028.64,226Zm7.12,154.94c-2.72,5.05,2.83,10.22,0,14.84-2.13,4.64-8,6.18-12.53,3.75-3.65-2-3.65-6.67-5.83-10,5.43-9.4,14.18-25,27.19-49.13,1.36-2.52,10-.4,20.05,2.47-4.24,7.86-10,17.82-16,29.77C2045.57,377.5,2038.63,375.58,2035.76,380.92Zm33.82-46.64c-8.42-4.54-18.94-10.57-32-17.25a9.75,9.75,0,0,1-3.6-12.81,9.46,9.46,0,0,1,12.53-3.76c5.06,2.72,3,9.94,8.32,12.81,5.05,2.73,10.22-2.82,15-.25,3.93,2.12,3.78,7.11,6,10.45C2073.82,326.41,2071.85,330.06,2069.58,334.28Zm-4.79-123.61c-2.25-1.21-.91-7.73,1.21-16.37,2.59-.78,5-1.28,7.56.08a9.25,9.25,0,1,1-8.77,16.29Zm7.12,154.93c-2.53-1.36-.41-10,2.31-19.76l9.62,3c-.85,4.26,2.87,8.8.6,13A9.26,9.26,0,0,1,2071.91,365.6Zm14.78-21.38c-2.66-1.8-6-3.61-10.24-5.88,1.56-4.23,2.68-8.34,3.93-12,4.26.84,8.8-2.87,13-.6a9.26,9.26,0,0,1,3.76,12.53C2095,342.19,2090,342,2086.69,344.22Zm63.67-117.52L2124,212.48c-4.77-2.57-3-9.94-8-12.67-5.34-2.87-10.22,2.83-15.28.11a9.47,9.47,0,0,1-3.75-12.53,9.25,9.25,0,0,1,12.53-3.76c5.05,2.72,3.13,9.66,8.46,12.53,5.06,2.73,10.07-2.54,14.85,0,5.05,2.72,3.41,9.81,8.46,12.53s10.07-2.55,15.13.18a9.25,9.25,0,0,1,3.75,12.53C2158.12,225.08,2153.84,225,2150.36,226.7Zm-27.92,45.1a9.26,9.26,0,0,1-3.76-12.53c2.57-4.77,9.66-3.13,12.38-8.18,2.88-5.34-2.83-10.22.18-15.13.63-1.83,7.56.09,16.61,2.79.37,2,.74,4-.32,6-2.73,5-9.94,3-12.82,8.31-2.72,5.06,2.83,10.22.26,15A9.47,9.47,0,0,1,2122.44,271.8Z"/><path class="cls-1" d="M2071.19,429.18a9.26,9.26,0,0,1-1.32-13,9.68,9.68,0,0,1,13-1.32c2,1.61-.77,8-4.28,15.85C2075.91,431,2073.42,431,2071.19,429.18Zm62,50.6c-4.45-3.63-1.25-10.07-5.7-13.7-4.7-3.83-10.37.6-14.82-3s-1.25-10.08-5.95-13.91c-4.45-3.63-10.12.8-14.57-2.83-3.46-2.82-2.52-7-3.78-10.49,2.62-3.22,5.64-6.93,8.67-10.63,6.76,6.34,21.39,18.68,47.84,40.25,4,3.23,4.6,9.51,1.57,13.22A9.74,9.74,0,0,1,2133.24,479.78Zm-33.73-57.56,8.11-9.44c3.62-4.45,10.07-1.25,13.9-5.95,3.63-4.45-.8-10.12,2.83-14.57a9.26,9.26,0,0,1,13-1.32c3.7,3-11.63,28.39-18.43,41.78C2111.75,428.91,2104.76,424.86,2099.51,422.22Zm59.7-1.53c-3.43,4.2-10.08,1.25-13.71,5.7-3.83,4.7.6,10.37-3,14.82-1.81,2.22-10.15-1.69-19.71-6.61,6.74-7.27,18.68-21.4,39-46.37,3.43-4.2,10.08-1.25,13.71-5.7,3.83-4.7-.4-10.62,3-14.82,2.82-3.46,7.49-2.12,11.19-3.63,2.47,2,5.44,4.44,8.7,7.51l-3.25,6C2188.28,385.54,2176.75,399.18,2159.21,420.69Zm24.43-2.71c-3.16-2.17,5.61-18.48,13.11-31.71,2.21-2.72,4.88-5.49,8.11-9.44,4.45,3.63,8.94,7.71,14.63,12.34-6,7.42-13.76,16.36-22.58,27.69C2193.43,420.61,2187.4,421.45,2183.64,418Zm32.17,129.14c-4.45-3.63-1.5-10.28-5.95-13.9s-10.37.59-14.82-3a9.26,9.26,0,0,1-1.32-13c3.43-4.2,10.32-1,14-5.5,3.83-4.7-.85-10.57,2.78-15,2.22-2.72,16.1,4.49,28.59,11.38l5.19,4.23a9.27,9.27,0,0,1,1.33,13c-3.63,4.45-10.33,1.05-14.16,5.75-3.63,4.45.85,10.57-2.58,14.77A9.25,9.25,0,0,1,2215.81,547.12Zm-22.2-187.29c1.38-4.22-1.36-8.93,1.66-12.64a9.27,9.27,0,0,1,13-1.32c2.18,1.37-1.29,9.66-6,19Zm19.82,117-5.19-4.23a9.25,9.25,0,0,1-1.32-13c3.63-4.45,10.27-1.5,13.9-6s-.6-10.36,3-14.81c2.62-3.22,22.84,8.33,36.52,15.78-1.38,4.23,1.61,9.14-1.66,12.64-3.38,4.65-10.28,1.5-13.91,5.95s.85,10.57-2.78,15C2239.56,490.75,2225.92,483.74,2213.43,476.85ZM2230.62,376c-1.86,1.78-9.9-1.48-19-6.45L2233,343.36c3.43-4.2,10.33-1,14-5.49,3.84-4.7-.84-10.57,2.79-15,1.81-2.23,10.14,1.69,20,6.81C2262.93,336.92,2250.74,350.86,2230.62,376Zm34.12,74.76c-8.2-7.1-21.84-18.64-43.1-36-2.23-1.81,1.28-9.65,6-19l5.69,4.63c4.2,3.43,1.25,10.08,5.7,13.71,4.7,3.83,10.62-.4,14.82,3,4.45,3.63,1.25,10.07,6,13.9,4.45,3.63,10.37-.6,14.57,2.83a9.55,9.55,0,0,1,1.57,13.22C2272.87,450.41,2268.44,449.27,2264.74,450.78Zm-17.25-152a9.46,9.46,0,0,1-1.32-13,9.25,9.25,0,0,1,13-1.33c4.46,3.63,1.25,10.08,6,13.91,4.45,3.63,10.12-.8,14.57,2.83s1.5,10.27,6,13.9,10.37-.6,14.82,3c3.21,2.62,2.28,6.8,3.54,10.3l-8.67,10.63C2288.57,332.73,2273.94,320.38,2247.49,298.81Zm7.82,74.71c-4.16-3,11.38-28.59,18.43-41.78,6.94,3.6,13.92,7.66,19.18,10.3l-7.86,9.64c-3.63,4.45-10.33,1.05-14.16,5.74-3.63,4.45.85,10.57-2.58,14.78C2265.1,376.15,2258.81,376.79,2255.31,373.52Zm57.88,69.84a9.71,9.71,0,0,1-13,1.33,9.27,9.27,0,0,1-1.32-13c3.63-4.45,10.28-1.5,13.91-5.95s-.6-10.37,3-14.81,10.07-1.26,13.7-5.71c3.83-4.69-.6-10.36,3-14.81,1-1.69,9.05,2,18.71,7.85C2344.28,405.74,2332.34,419.88,2313.19,443.36Zm22.06-73-5.44-4.43c-4.2-3.43-1-10.32-5.5-13.95-4.69-3.83-10.57.84-15-2.79-1.73-1.41.78-8,4.53-15.65,2.7-.27,4.94-.5,7.17,1.32,4.45,3.63,1.25,10.07,5.94,13.9,4.45,3.63,10.13-.8,14.58,2.83s1.49,10.28,5.94,13.91,10.37-.6,14.82,3a9.24,9.24,0,0,1,1.32,13C2361.38,384.28,2347.49,377.08,2335.25,370.38Zm2.38,70.27c-3.91-2.77,10.21-26.65,17.67-40.33,4.11,2.53,8.47,5.26,12.78,7.54a9.29,9.29,0,0,1-.7,10.95c-3.63,4.45-10.08,1.25-13.91,5.95-3.63,4.45.6,10.37-2.83,14.57A9.24,9.24,0,0,1,2337.63,440.65Z"/><path class="cls-1" d="M2246.23,581.49a9.26,9.26,0,0,1,.66-13.07,9.46,9.46,0,0,1,13.06.66c1.72,1.89-2,7.8-6.62,15C2250.62,584,2248.16,583.62,2246.23,581.49Zm53.7,59.39c-3.64-4,.29-10.15-3.57-14.41-4.06-4.5-10.55-1.21-14.19-5.23-3.85-4.26.29-10.15-3.78-14.65-3.85-4.26-10.34-1-14-5-2.79-3.08-1.44-7.3-2.16-11l10.17-9.2c5.73,7.29,18.33,21.7,41.22,47,3.43,3.78,3.11,10.09-.44,13.3A9.54,9.54,0,0,1,2299.93,640.88Zm-24.66-62,9.44-8.11c4.26-3.85,10.15.29,14.65-3.78,4.26-3.85,1-10.34,5-14a9.26,9.26,0,0,1,13.07.65c3.21,3.55-15.78,26.31-24.53,38.52C2286.36,587.34,2280.07,582.28,2275.27,578.88Zm59.25,7.5c-4,3.64-10.15-.28-14.41,3.57-4.5,4.06-1,10.34-5.23,14.19-2.13,1.92-9.78-3.2-18.49-9.52,7.76-6.15,21.7-18.33,45.59-39.93,4-3.64,10.15.28,14.41-3.57,4.5-4.07,1.21-10.56,5.23-14.19,4.26-3.85,10.15.28,14.65-3.78,4.26-3.85,1-10.34,5-14a9.26,9.26,0,0,1,13.07.66c2.57,2.84-7.6,16.33-16.56,28.3C2367.39,557.09,2353.45,569.26,2334.52,586.38Zm77.12-33.61c-4.23,3.4-10.36-.52-14.62,3.33-4.49,4.06-1.21,10.55-5.23,14.19-4.5,4.07-10.15-.28-14.65,3.78-4.25,3.85-1,10.34-5,14a9.26,9.26,0,0,1-13.07-.66c-2.35-2.6,14-21.66,27-37.26,8-6.83,18.67-16.45,32.87-29.29,4-3.64,10.36.52,14.62-3.33,4.49-4.07.76-10.58,5-14.43,2.13-1.92,9.77,3.2,18.7,9.75C2449.48,519,2435.33,530.93,2411.64,552.77Zm24.57,1c-3.42-3.79,15.56-26.54,24.52-38.52,6.32,4.61,12.62,9.67,17.41,13.08l-9.22,8.34c-4.26,3.85-10.37-.52-14.86,3.54-4.26,3.86-.76,10.58-4.78,14.22A9.48,9.48,0,0,1,2436.21,553.78Zm3.55-75a9.48,9.48,0,0,1,.66-13.07,9.26,9.26,0,0,1,13.06.66c3.86,4.26-.28,10.15,3.78,14.65,3.85,4.26,10.34,1,14,5,3.85,4.26-.07,10.39,3.78,14.65s10.34,1,14.19,5.23c2.78,3.07,1.23,7.06,1.95,10.71l-10.18,9.2C2475.25,518.48,2462.65,504.07,2439.76,478.75Zm53.49,59.16c-1.5-1.66,2-7.81,6.84-14.79,2.7.13,4.95.25,6.88,2.38a9.25,9.25,0,0,1-.66,13.06A9.47,9.47,0,0,1,2493.25,537.91Z"/><path class="cls-1" d="M2331.14,674.52a9.26,9.26,0,0,1,2.62-12.82,9.7,9.7,0,0,1,12.82,2.63c1.41,2.13-3.13,7.42-8.82,13.85C2335.1,677.64,2332.72,676.92,2331.14,674.52Zm58.69,88.93c-3.17-4.79,1.64-10.26-1.52-15.05s-10.08-2.53-13.24-7.32c-3-4.52,1.81-10-1.35-14.78-3.34-5.06-10.25-2.79-13.24-7.32-3.16-4.79,1.82-10-1.52-15-3.16-4.8-10.07-2.53-13.06-7.05-2.29-3.47-.32-7.44-.48-11.16l11.45-7.55c4.56,8.07,14.84,24.22,33.64,52.71,3.16,4.79-1.91,10.43,1.26,15.22s10.34,2.35,13.5,7.15a9.46,9.46,0,0,1-2.63,12.81A9.25,9.25,0,0,1,2389.83,763.45Zm-29.77-87.38,10.56-6.59c4.79-3.16,10,1.82,15.05-1.52,4.79-3.16,2.52-10.07,7-13.06a9.26,9.26,0,0,1,12.82,2.62c2.63,4-19.58,23.62-30.07,34.37C2369.75,686.11,2364.29,680.16,2360.06,676.07Zm57.44,16.37c-4.53,3-10-1.82-14.78,1.35-5.06,3.34-2.53,10.07-7.32,13.23-2.4,1.59-9.18-4.64-16.84-12.2,8.6-4.91,24.22-14.84,51.11-32.58,4.53-3,10,1.81,14.78-1.35,5.06-3.34,2.79-10.25,7.32-13.24,4.79-3.16,10,1.82,15.05-1.52,4.79-3.16,2.52-10.08,7-13.06a9.25,9.25,0,0,1,12.81,2.62c2.11,3.2-10.86,16-22,26.36C2455.75,667.58,2440.66,677.15,2417.5,692.44Zm9,78.52A9.25,9.25,0,1,1,2442,760.77c1.23,1.86-2.86,7.24-9,13.58C2430.3,773.81,2428.09,773.36,2426.51,771Zm27.58,25a9.74,9.74,0,0,1-13-2.89c-2.29-3.46-.15-7.17,0-11.06l24.76-16.34c4.79-3.16,10.43,1.9,15.22-1.26s2.35-10.34,7.14-13.5c4.53-3,10.17,2.08,15-1.08,5.06-3.34,2.35-10.34,7.14-13.51a9.26,9.26,0,0,1,12.82,2.63c2.29,3.46-11.13,16.14-21.8,26.62C2491.9,771,2476.81,780.57,2454.09,796Zm44.73-125.08c-4.7,2.73-10.17-2.08-15,1.09-5.06,3.33-2.79,10.25-7.31,13.23-4.8,3.17-10-1.81-15.05,1.53-4.79,3.16-2.35,10.34-7.05,13.06-4.09,3.08-10,1.63-12.82-2.63-2.11-3.19,10.87-16,22-26.35,9-5.53,24-15.11,47.21-30.39,4.52-3,10.16,2.08,15-1.09,5-3.33,2.34-10.34,7.14-13.5,2.39-1.58,9.18,4.64,17,12.47C2541.33,643.2,2525.54,652.86,2498.82,670.87ZM2537,793.59c-5.79-8.78,97.81-85.19-23.86-4.88-4.79,3.16-10.43-1.91-15.23,1.25s-2.35,10.34-7.14,13.51a9.25,9.25,0,0,1-12.81-2.63c-2.29-3.46,11.13-16.14,22.06-26.79,9.14-5.27,24.23-14.84,46.95-30.22,5-2.9,10.43,1.9,15.22-1.26s2.35-10.34,7.32-13.24c4.35-3.25,10,1.82,14.78-1.34,5.06-3.34,2.52-10.08,7.32-13.24,2.66-1.76,16.13,13.43,28.71,27.29a9.27,9.27,0,0,1-3.94,10.25c-4.79,3.16-10-1.82-15,1.52-4.8,3.17-2.53,10.08-7.05,13.06-4.8,3.17-10.26-1.64-15.05,1.53s-2.53,10.07-7.32,13.23c-4.53,3-10-1.81-14.78,1.35-5.06,3.34-2.53,10.08-7.32,13.24A9.27,9.27,0,0,1,2537,793.59Zm-14.05-118c-2.81-4.26,19.4-23.89,30.07-34.37,5.55,5.51,11,11.47,15.23,15.55l-10.38,6.86c-4.79,3.16-10.17-2.08-15.23,1.25-4.79,3.17-2.34,10.35-6.87,13.33A9.48,9.48,0,0,1,2523,675.59ZM2537.81,602a9.45,9.45,0,0,1,2.62-12.81,9.26,9.26,0,0,1,12.82,2.62c3.16,4.79-1.82,10,1.52,15,3.16,4.79,10.08,2.52,13.06,7.05,3.17,4.79-1.64,10.26,1.53,15s10.07,2.52,13.23,7.32c2.29,3.46.15,7.16.31,10.88-3.47,2.28-7.46,4.92-11.45,7.56C2566.88,646.59,2556.61,630.44,2537.81,602Zm62.38,94.52-3.87-5.85c-3-4.53,2.08-10.17-1.08-15-3.34-5.06-10.34-2.35-13.5-7.14-1.23-1.87,3.13-7.42,9-13.59,2.66.55,4.87,1,6.45,3.4,3.16,4.79-1.82,10,1.52,15,3.16,4.8,10.08,2.53,13.06,7,3.17,4.8-1.64,10.26,1.53,15.05s10.07,2.53,13.23,7.32a9.26,9.26,0,0,1-2.62,12.82C2621,717.54,2609.87,706.52,2600.19,696.47Z"/><path class="cls-1" d="M2476.06,914.59a9.27,9.27,0,0,1,5.6-11.83,9.7,9.7,0,0,1,11.82,5.6c.86,2.41-4.8,6.46-11.86,11.36C2479.17,918.56,2477,917.29,2476.06,914.59ZM2494,964.76c-1.93-5.41,4.14-9.28,2.11-15-1.94-5.41-9.19-4.85-11-10-1.4-3.9,1.45-7.29,2.18-10.94l12-4.29,12.13,33.94a9.48,9.48,0,0,1-5.6,11.82A9.26,9.26,0,0,1,2494,964.76Zm14.61-43.5,7-2.17c5.41-1.93,9.27,4.14,15,2.1,5.4-1.93,4.84-9.18,9.95-11a9.28,9.28,0,0,1,11.83,5.6,9.48,9.48,0,0,1-5.6,11.83c-5.11,1.82-9.38-4.44-14.79-2.51-5.71,2-4.74,9.48-10.15,11.41C2519.43,937.37,2514.13,930.12,2508.59,921.26Zm3.31,93.66a9.27,9.27,0,0,1,5.6-11.82,9.47,9.47,0,0,1,11.83,5.6c.75,2.1-4.81,6.46-12,11C2514.91,1018.59,2512.76,1017.33,2511.9,1014.92Zm26.83,75.1c-1.93-5.41,4-9.57,2.11-15s-9.19-4.84-11.12-10.25c-1.83-5.11,4.14-9.27,2.21-14.68-2-5.71-9.19-4.85-11.12-10.26-1.39-3.9,1.46-7.29,2.19-10.94,4-1.09,8.52-2.7,13-4.31,2.52,8.92,8.65,27.05,20.14,59.2a9.48,9.48,0,0,1-5.6,11.82A9.26,9.26,0,0,1,2538.73,1090Zm.9-66.71,11.72-4.19c5.4-1.93,9.26,4.14,15,2.11,5.41-1.94,4.85-9.19,10-11a9.25,9.25,0,0,1,11.82,5.6c1.72,4.8-24.52,18.58-37.38,26.22C2546.65,1035.37,2542.65,1028,2539.63,1023.31Zm37.1,27c-5.71,2-4.74,9.49-10.25,11.12-2.6,1.27-7.81-6.69-13.46-15.86,9.53-2.72,27.06-8.65,57.4-19.48,2.4-.86,7.7,6.39,12.94,15.36-8.41,3-19,6.46-31.84,11.37C2586.3,1054.4,2582.14,1048.43,2576.73,1050.36Zm4.18-106.83a9.25,9.25,0,1,1-6.23-17.43c5.11-1.82,9.27,4.14,14.68,2.21,5.71-2,5.15-9.29,10.26-11.11,3.9-1.4,7.29,1.45,11.05,2.48l4,12.13C2605.54,934.73,2594.43,938.7,2580.91,943.53Zm39.94,60.59c-1.94-5.41,4.14-9.27,2.1-15-1.93-5.41-9.19-4.85-11-9.95-1.93-5.41,4-9.57,2.1-15s-9.19-4.85-11.12-10.26c-.86-2.4,6.1-7.59,15.07-12.83l2.36,6.61c1.93,5.41-4,9.57-2.1,15s9.18,4.84,11.11,10.25c1.83,5.11-4.14,9.27-2.21,14.68,2,5.71,9.19,4.85,11.12,10.25.86,2.41-6.09,7.6-15,13.14Zm-7,59.07c-1-2.7,6.1-7.59,15-13.13l4.83,8.78c-3.48,2.59-3.46,8.34-8,10A9.26,9.26,0,0,1,2613.83,1063.19Zm5.89-149.45c1.16-2.45,2.43-4.59,4.83-5.45a9.25,9.25,0,0,1,6.22,17.42C2628.67,926.46,2624.42,921.21,2619.72,913.74Zm13.06,124.73c-1.93-5.41-3.78-11.52-6.14-18.13l33.65-12c4.8-1.72,10.4.69,11.82,5.6,1.69,3.8-14.36,12.92-27.51,20.67C2641.19,1035.47,2637.59,1036.75,2632.78,1038.47Zm42.74,12.51c-5.1,1.82-9.37-4.44-14.78-2.51-5.71,2-4.74,9.48-10.15,11.42-4.2,1.5-7.51-2.06-11.46-2.69-1.07-3-2.36-6.6-3.67-11.22l5.88-3.45c10.13-2.94,27.06-8.65,53.09-18.29,5.21-1.52,9.37,4.44,14.78,2.51,5.71-2,4.85-9.19,10.26-11.12,2.59-1.26,7.81,6.7,13.45,15.86C2723.39,1034.22,2705.86,1040.14,2675.52,1051Zm-22.43-115a9.46,9.46,0,0,1,5.6-11.82c5.11-1.83,9.38,4.44,14.78,2.51,5.71-2,4.75-9.49,10.15-11.42a9.26,9.26,0,0,1,11.83,5.6c1.39,3.9-1.46,7.3-2.49,11.05-7.81,2.79-17.23,5.82-27.94,10A9.53,9.53,0,0,1,2653.09,936ZM2687,952.36c-.86-2.41,4.5-6.35,11.86-11.36,2.45,1.16,4.6,2.43,5.56,5.13a9.25,9.25,0,1,1-17.42,6.23Zm10.8,108.94c-1.72-4.81,24.53-18.59,37.38-26.23l2.72,4.79,2.26,6.31a9.27,9.27,0,0,1-5.6,11.82c-5.41,1.93-9.27-4.14-15-2.1-5.41,1.93-4.85,9.18-10,11A9.27,9.27,0,0,1,2697.84,1061.3Zm34.2-61.68-2.25-6.3c-1.83-5.11,4.44-9.38,2.51-14.79-2-5.71-9.49-4.74-11.42-10.15a9.46,9.46,0,0,1,5.6-11.82,9.25,9.25,0,0,1,11.82,5.6c1.93,5.41-4.14,9.27-2.1,15,1.93,5.4,9.18,4.85,11,10,1.93,5.41-4,9.57-2.1,15s9.18,4.85,11.11,10.26a9.25,9.25,0,0,1-5.6,11.82C2747.32,1025.33,2739.16,1012,2732,999.62Z"/><path class="cls-1" d="M2562.84,1224.19c-.9-5.67,5.78-8.34,4.84-14.33-.9-5.67-8.08-6.15-9-11.82s5.73-8.66,4.84-14.33-8.13-6.46-9-12.13a9.26,9.26,0,0,1,7.69-10.59c3.47-.55,9,14.08,13.73,27.54l1,6.62c.85,5.36-6.1,8.39-5.2,14.07.95,6,8.45,6.41,9.34,12.08a9.47,9.47,0,0,1-7.69,10.59A9.26,9.26,0,0,1,2562.84,1224.19Zm14.73-76.29-1.05-6.61a9.26,9.26,0,0,1,7.69-10.59c5.68-.89,8.35,5.79,14.33,4.84,5.68-.9,6.47-8.13,11.83-9,5-.79,10.1,2.6,10.58,7.7,1.11,5-27.54,13.72-41.59,18.85Zm39.88,23.41c-5.41.53-8.4-6.1-14.07-5.21-6,1-6.41,8.45-12.13,9-2.79.76-6.44-8-10.29-18.07,9.86-.92,28.19-3.5,60-8.53,5.36-.85,8.39,6.1,14.07,5.2,6-1,6.73-8.49,12.08-9.34,5.67-.9,8.4,6.1,14.38,5.15,5.67-.9,6.42-8.44,11.77-9.29,5.05-.8,10.16,2.91,10.59,7.69.91,3.73-15.29,9.53-29.33,14.65C2660.93,1164.42,2642.6,1167,2617.45,1171.31Zm-24.32,74.9a9.26,9.26,0,0,1,7.69-10.59,9.48,9.48,0,0,1,10.58,7.7c.4,2.52-5.6,5.4-13.76,9C2595.45,1250.68,2593.58,1249,2593.13,1246.21Zm4.19,26.46c-.65-4.09,2.78-6.9,4.49-10.4,8.19-1.29,18-2.52,29.3-4.63a9.74,9.74,0,0,1,10.63,8,9.26,9.26,0,0,1-7.69,10.59c-5.35.84-8.39-6.1-14.06-5.21-6,1-6.42,8.45-12.09,9.35A9.26,9.26,0,0,1,2597.32,1272.67Zm103-87.68c-5.35.85-8.39-6.1-14.06-5.2-6,1-6.73,8.49-12.09,9.34-5.67.9-8.39-6.1-14.38-5.15-5.67.89-6.41,8.44-11.77,9.29-5,.8-10.15-2.92-10.58-7.69-.87-3.42,23.48-10.82,42.88-16.8,10.45-1.33,24.67-3.26,43.53-6.57,5.41-.53,8.39,6.1,14.06,5.2,6-.94,6.42-8.44,12.14-9,2.79-.77,6.44,8,10.29,18.07C2750.5,1177.38,2732.18,1180,2700.35,1185Zm-46.28,105.51a9.27,9.27,0,0,1,7.7-10.59c5.35-.84,8.34,5.79,14,4.89,6-1,6.78-8.18,12.14-9,5.67-.9,8.34,5.78,14.33,4.83,5.67-.89,6.46-8.13,11.82-9a9.25,9.25,0,0,1,2.89,18.27c-5.36.85-8.34-5.78-14-4.89-6,1-6.78,8.18-12.14,9-5.67.9-8.34-5.78-14.33-4.84-5.67.9-6.47,8.13-11.82,9A9.26,9.26,0,0,1,2654.07,1290.5Zm66.31-91.24c-1.12-5,27.54-13.72,41.58-18.85,2.78,7.31,5.33,15.3,7.44,20.46l-12.29,1.94c-5.67.9-8.34-5.78-14.33-4.83-5.67.89-6.46,8.13-11.82,9C2725.92,1207.75,2720.86,1204.35,2720.38,1199.26Zm53.39,108.79c-5.67.9-8.35-5.78-14.33-4.84-5.67.9-6.15,8.08-11.82,9a9.25,9.25,0,0,1-2.9-18.28c5.36-.84,8.4,6.1,14.07,5.21,6-.95,6.41-8.45,12.09-9.34,2.52-.4,6.38,7.71,10.18,17.44Zm-.59-107.78c-.81-9.24-3.49-28.19-8.83-61.9a9.49,9.49,0,0,1,7.69-10.59,9.26,9.26,0,0,1,10.59,7.69c.89,5.68-5.74,8.66-4.84,14.33s8.13,6.47,9,12.14-5.79,8.34-4.89,14c1,6,8.13,6.46,9,12.13.7,4.41-2.78,6.9-4.17,10.35C2782.63,1198.78,2777.91,1199.52,2773.18,1200.27Zm3.69,17.18c-.35-2.2,5.92-5.46,13.81-8.64,2.19,1.59,4,2.91,4.46,5.75a9.25,9.25,0,0,1-18.27,2.89Zm8.33,52.62a9.46,9.46,0,0,1,7.69-10.58,9.25,9.25,0,0,1,10.58,7.69c.9,5.67-5.78,8.34-4.84,14.33.9,5.67,8.08,6.15,9,11.82.7,4.41-2.78,6.9-4.18,10.35l-12.6,2C2789.34,1296.22,2787.49,1284.56,2785.2,1270.07Zm8.32,52.62c-.39-2.52,5.92-5.46,13.77-9,2.18,1.59,4.06,3.23,4.51,6.06a9.26,9.26,0,0,1-7.69,10.59A9.47,9.47,0,0,1,2793.52,1322.69Z"/><path class="cls-1" d="M2574.55,1441c.15-5.74,7.21-7.47,7.36-13.21s-6.81-7.84-6.66-13.58c.14-5.42,7.21-7.15,7.36-12.89.16-6.06-6.8-8.15-6.66-13.58.15-5.73,7.21-7.14,7.37-13.2.15-5.74-6.82-7.84-6.67-13.26.11-4.15,4-6.28,6-9.42l13.71.36c-.88,9.23-1.7,28.36-2.6,62.48-.15,5.74-7.54,7.46-7.69,13.2s7.13,7.85,7,13.59a9.46,9.46,0,0,1-9.49,9A9.25,9.25,0,0,1,2574.55,1441Zm2.8-106.51a9.26,9.26,0,0,1,9.5-9,9.69,9.69,0,0,1,9,9.49c-.07,2.55-6.82,4.29-15.17,6.3C2578.82,1339.3,2577.28,1337.34,2577.35,1334.47Zm31.26,170a9.74,9.74,0,0,1-9-9.81c.11-4.14,4-5.95,6.3-9.08l29.66.78c5.74.15,7.46,7.53,13.2,7.69s7.84-7.14,13.58-7c5.43.15,7.15,7.53,12.89,7.68,6.06.16,7.84-7.13,13.58-7a9.27,9.27,0,0,1,9,9.49c-.11,4.15-18.37,6.86-33.12,9.34C2653.9,1505.62,2636.05,1504.83,2608.61,1504.42Zm-8.43-152.12,12.43.65c5.74.15,7.15,7.21,13.21,7.37,5.74.15,7.83-6.81,13.26-6.67a9.26,9.26,0,0,1,9,9.49c-.13,4.78-29.57,8.16-44.33,11C2602.37,1366.08,2601.3,1358.08,2600.18,1352.3Zm.14,115.85a9.25,9.25,0,1,1,18.49.48c-.06,2.24-6.49,4.3-15.15,6C2601.79,1472.65,2600.24,1471,2600.32,1468.15Zm37.57-69.54c-5.42-.14-7.15-7.21-12.89-7.36-6.06-.16-7.84,6.82-13.58,6.66-2.87-.07-4.86-9.06-6.82-19.64,9.87.9,28.36,1.7,60.56,2.55,5.43.15,7.15,7.21,12.89,7.36,6.06.16,8.16-6.8,13.58-6.66,5.74.15,7.15,7.21,13.21,7.37,5.74.15,7.84-6.81,13.26-6.67a9.25,9.25,0,0,1,9,9.49c-.1,3.83-18,6.86-33.1,9C2683.48,1400.13,2665.63,1399.34,2637.89,1398.61ZM2677.94,1550c.27-10.52,129-13.83-16.77-17.67-5.74-.15-7.46-7.54-13.2-7.69s-7.85,7.13-13.59,7a9.26,9.26,0,0,1-9-9.49c.11-4.15,18.37-6.86,33.43-9.33,10.51.91,28.36,1.7,55.79,2.11,5.74.47,7.46,7.53,13.2,7.69s7.85-7.14,13.58-6.67c5.43-.17,7.15,7.21,12.89,7.36,6.06.16,7.84-6.81,13.58-6.66,3.19.09,5.53,20.25,7.91,38.82a9.3,9.3,0,0,1-9.1,6.15c-5.74-.16-7.14-7.21-13.2-7.37-5.74-.16-7.84,6.81-13.26,6.67-5.74-.15-7.47-7.22-13.21-7.37s-7.84,6.81-13.58,6.66c-5.42-.14-7.15-7.21-12.89-7.36-6.06-.16-7.84,6.82-13.58,6.66A9.25,9.25,0,0,1,2677.94,1550Zm39-122.47c-5.42-.46-7.14-7.53-12.88-7.68-6.06-.16-8.16,6.81-13.58,6.66-5.74-.15-7.15-7.2-13.21-7.36-5.74-.16-7.85,7.13-13.26,6.67-5.11.18-9.14-4.39-9-9.49.11-3.83,18.06-6.87,33.11-9,10.52.59,28.37,1.38,56.11,2.11,5.42.15,7.14,7.53,12.88,7.68,6.06.16,7.85-7.13,13.59-7,2.87.08,4.86,9.06,6.81,20C2767.6,1429.16,2749.12,1428,2716.91,1427.5Zm17.08,17.68c.14-5.1,29.58-8.47,44.33-11,1.39,7.69,2.46,15.7,3.58,21.47l-12.44-.33c-5.74-.15-7.14-7.52-13.2-7.68-5.74-.16-7.84,7.13-13.26,7A9.48,9.48,0,0,1,2734,1445.18Zm51.36,61.35.18-7c.15-5.43,7.53-7.15,7.68-12.89.16-6.05-7.13-7.84-7-13.58.06-2.23,6.82-4.29,15.16-6,1.86,2,3.41,3.6,3.34,6.47-.16,5.74-7.21,7.15-7.37,13.2-.15,5.74,6.81,7.84,6.67,13.26-.15,5.74-7.22,7.47-7.37,13.21s6.81,7.84,6.66,13.58a9.25,9.25,0,0,1-9.49,9C2790.32,1535.7,2787.54,1520.31,2785.35,1506.53Zm3-113.21a9.47,9.47,0,0,1,9.49-9,9.26,9.26,0,0,1,9,9.49c-.15,5.74-7.21,7.15-7.37,13.21-.15,5.74,6.81,7.84,6.67,13.26-.15,5.74-7.22,7.47-7.37,13.21s6.82,7.84,6.66,13.58c-.11,4.14-4,6-6,9.09l-13.71-.36C2786.61,1446.57,2787.43,1427.45,2788.33,1393.32Z"/><path class="cls-1" d="M2549.72,1644c1-5.34,8.2-6,9.22-11.63,1.07-6-5.49-9.09-4.53-14.43,1-5.65,8.2-6,9.28-11.94,1-5.65-5.55-8.78-4.59-14.12.73-4.08,4.89-5.6,7.34-8.4l13.5,2.43c-2.26,9-6,27.78-12,61.37-.9,5-6.09,8.63-10.8,7.78A9.53,9.53,0,0,1,2549.72,1644Zm14.18-78.8a9.27,9.27,0,0,1,10.74-7.47,9.47,9.47,0,0,1,7.47,10.75c-.45,2.51-7.38,3.21-15.94,3.93C2564.62,1570.15,2563.39,1568,2563.9,1565.16Zm19.81,21.39,12.19,2.52c5.65,1,6,8.21,11.94,9.28,5.65,1,8.78-5.55,14.12-4.59a9.25,9.25,0,0,1,7.46,10.74c-.85,4.71-30.46,3.6-45.47,4.14C2583.79,1600.5,2584,1592.43,2583.71,1586.55ZM2614,1638c-5.34-1-6-8.21-11.63-9.23-6-1.07-8.78,5.55-14.43,4.54-2.83-.51-3.44-9.7-3.77-20.45,9.62,2.38,27.77,6,59.48,11.68,5.33,1,6,8.2,11.63,9.22,6,1.08,9.09-5.49,14.42-4.53,5.66,1,6,8.2,11.95,9.28,5.65,1,8.78-5.55,14.11-4.59a9.25,9.25,0,0,1,7.47,10.74c-.68,3.77-17.57,4-32.52,4.2C2657.26,1646.14,2639.1,1642.55,2614,1638Zm73.74,40.5c-5.28-1.28-5.92-8.52-11.58-9.54-6-1.07-9.09,5.5-14.42,4.53-6-1.07-6-8.2-11.95-9.28-5.65-1-8.77,5.55-14.11,4.59a9.25,9.25,0,0,1-7.47-10.74c.62-3.45,25.68-2.18,46-1.45,10.3,2.18,24.43,4.72,43.26,8.11,5.34,1,5.92,8.53,11.58,9.54,6,1.08,8.83-5.86,14.48-4.84,2.83.5,3.44,9.69,3.72,20.76C2737.59,1687.83,2719.49,1683.92,2687.73,1678.53Zm14.21,20.06c.91-5,30.53-3.9,45.48-4.13.21,7.82,0,15.89.29,21.77l-12.24-2.2c-5.66-1-5.93-8.52-11.89-9.6-5.65-1-8.83,5.87-14.17,4.9A9.47,9.47,0,0,1,2701.94,1698.59Zm47.43,35.44c.39-2.2,7.38-3.21,15.88-3.62,1.55,2.22,2.83,4.07,2.33,6.9a9.27,9.27,0,0,1-10.75,7.47A9.47,9.47,0,0,1,2749.37,1734Zm14.13-78.49a9.46,9.46,0,0,1,10.74-7.46,9.26,9.26,0,0,1,7.47,10.74c-1,5.65-8.21,6-9.28,11.94-1,5.66,5.54,8.78,4.59,14.12-1,5.65-8.27,6.29-9.29,11.94s5.55,8.78,4.54,14.43c-.74,4.08-4.84,5.29-7.29,8.09l-13.5-2.43C2753.74,1707.92,2757.45,1689.14,2763.5,1655.54Z"/><path class="cls-1" d="M2507.52,1789.88c1.87-5.43,9.12-5,11-10.38s-4.14-9.53-2.27-15,9-4.65,10.89-10.08c2-5.73-4.15-9.52-2.28-15a9.26,9.26,0,0,1,11.76-5.74c3.32,1.14,1.46,16.36-.7,30.46l-2.18,6.34c-1.87,5.42-9.43,4.85-11.3,10.28s4.45,9.62,2.58,15.05a9.46,9.46,0,0,1-11.76,5.74A9.26,9.26,0,0,1,2507.52,1789.88Zm13.43,70.75a9.75,9.75,0,0,1-5.63-12.06c1.35-3.92,5.59-4.49,8.74-6.78l28.06,9.66c5.42,1.87,4.85,9.43,10.28,11.3s9.62-4.45,15-2.58c5.13,1.76,4.55,9.32,10,11.19,5.73,2,9.63-4.44,15.06-2.58a9.26,9.26,0,0,1,5.73,11.76c-1.34,3.92-19.58,1-34.38-1C2563.79,1875.37,2547,1869.25,2521,1860.63Zm3-37.1a9.25,9.25,0,0,1,17.49,6c-.72,2.12-7.48,2.15-16.25,1.16C2524,1828.28,2523,1826.25,2523.94,1823.53Zm49.45,101.36c3.43-10,127.17,25.55-10.68-21.89-5.43-1.87-4.85-9.43-10.28-11.3s-9.63,4.45-15.06,2.58a9.26,9.26,0,0,1-5.73-11.76c1.35-3.92,19.58-1,34.69,1.15,9.75,4,26.53,10.14,52.58,18.77,5.32,2.17,4.85,9.43,10.28,11.29s9.52-4.14,14.95-2.27,4.66,9,10.08,10.89c5.74,2,9.53-4.15,15-2.28,3,1-.81,21-4.12,39.41a9.29,9.29,0,0,1-10.52,3.12c-5.43-1.86-4.65-9-10.38-11-5.43-1.87-9.53,4.14-14.65,2.38-5.43-1.87-5-9.13-10.39-11s-9.52,4.15-14.95,2.28c-5.13-1.77-4.66-9-10.09-10.89-5.73-2-9.52,4.14-14.95,2.27A9.27,9.27,0,0,1,2573.39,1924.89ZM2606,1777.22c-5.43-1.87-5-9.13-10.39-11s-9.52,4.15-15,2.28c-5.13-1.77-4.65-9-10.08-10.89-5.73-2-9.52,4.14-14.95,2.27-3.32-1.14-1.46-16.35.69-30.46l2.18-6.33a9.27,9.27,0,0,1,11.76-5.74c5.43,1.87,4.66,9,10.39,11,5.43,1.87,9.22-4.25,14.65-2.38s4.95,9.13,10.38,11,9.53-4.14,15-2.27,4.65,9,10.08,10.89c5.73,2,9.52-4.14,15-2.28a9.26,9.26,0,0,1,5.74,11.76c-3.32,9.65-127.17-25.54,10.68,21.89,5.43,1.87,5,9.13,10.39,11s9.52-4.14,14.95-2.28a9.27,9.27,0,0,1,5.74,11.76c-1.25,3.62-19.58,1-34.59-1.44C2648.73,1792.26,2631.94,1786.15,2606,1777.22Zm56.41,40c-5.43-1.87-9.53,4.14-15,2.28s-4.65-9-10.08-10.9c-5.73-2-9.52,4.15-14.95,2.28a9.26,9.26,0,0,1-5.74-11.76c1.25-3.62,19.58-1,34.29,1.34,10.15,3.83,26.94,10,52.88,18.88a9.25,9.25,0,0,1,5.74,11.75c-1.35,3.93-5.7,4.79-8.85,7.08l-28-9.65C2667.56,1826.74,2667.84,1819.08,2662.41,1817.21Zm21,33.19c.83-2.41,7.49-2.15,16.36-1.45,1.19,2.43,2.07,4.76,1.14,7.47a9.25,9.25,0,0,1-17.5-6Zm5.52,65.32,2.29-6.63c1.76-5.13,9.32-4.55,11.19-10,2-5.73-4.45-9.63-2.58-15.06a9.47,9.47,0,0,1,11.76-5.73,9.25,9.25,0,0,1,5.74,11.75c-1.87,5.43-9,4.66-11,10.39-1.87,5.43,4.25,9.22,2.38,14.65s-9.13,5-11,10.38,4.15,9.53,2.28,15a9.26,9.26,0,0,1-11.76,5.73C2684.87,1945,2686.84,1929.53,2688.89,1915.72Z"/><path class="cls-1" d="M2378.78,2111.87a9.75,9.75,0,0,1-2.6-13c2.25-3.49,6.5-3,10.1-4.5l24.95,16c4.83,3.11,2.47,10.32,7.3,13.42s10.41-2,15.23,1.09c4.56,2.93,2.2,10.14,7,13.24,5.1,3.28,10.41-2,15.24,1.08a9.27,9.27,0,0,1,2.77,12.79c-2.24,3.49-19.26-3.67-33.15-9.2C2416.87,2136.39,2402,2126.45,2378.78,2111.87Zm3.79-71.91c3.11-4.83,10-2.64,13.16-7.47s-1.76-10.24,1.35-15.06,9.87-2.38,13-7.2c3.28-5.1-1.76-10.24,1.34-15.07a9.27,9.27,0,0,1,12.79-2.77c2.95,1.9-2.48,16.23-7.93,29.42l-3.63,5.63c-3.1,4.83-10.31,2.47-13.42,7.3s2,10.4-1.08,15.23a9.46,9.46,0,0,1-12.78,2.77A9.25,9.25,0,0,1,2382.57,2040Zm31.84,146.82c5.7-8.86,117.43,55.08-5.16-23.81-4.83-3.11-2.47-10.32-7.3-13.42s-10.4,2-15.23-1.08a9.26,9.26,0,0,1-2.78-12.79c2.25-3.49,19.26,3.67,33.43,9.37,8.5,6.23,23.35,16.17,46.59,30.75,4.66,3.37,2.47,10.31,7.3,13.42s10.24-1.76,15.06,1.35,2.38,9.87,7.2,13c5.1,3.28,10.24-1.76,15.07,1.35,2.68,1.72-5.78,20.18-13.38,37.29a9.29,9.29,0,0,1-11,.53c-4.83-3.11-2.37-9.87-7.47-13.15-4.83-3.11-10.24,1.76-14.8-1.18-4.83-3.11-2.64-10-7.47-13.15s-10.23,1.76-15.06-1.35c-4.56-2.94-2.37-9.87-7.2-13-5.1-3.28-10.24,1.76-15.07-1.35A9.25,9.25,0,0,1,2414.41,2186.78Zm-23.9-110.23a9.25,9.25,0,1,1,15.56,10c-1.21,1.87-7.78.3-16.06-2.75C2389.43,2081.17,2389,2079,2390.51,2076.55Zm90.73-25.44c-4.83-3.11-2.64-10.05-7.47-13.16s-10.24,1.76-15.06-1.34c-4.56-2.94-2.38-9.88-7.2-13-5.1-3.28-10.24,1.75-15.07-1.35-3-1.9,2.48-16.24,7.93-29.42l3.63-5.63a9.25,9.25,0,0,1,12.78-2.78c4.83,3.11,2.38,9.88,7.47,13.16,4.83,3.1,10-1.94,14.8,1.17s2.64,10,7.47,13.15,10.23-1.75,15.06,1.35,2.37,9.88,7.2,13c5.1,3.28,10.24-1.75,15.07,1.35a9.27,9.27,0,0,1,2.77,12.79c-5.53,8.58-117.43-55.09,5.16,23.81,4.83,3.1,2.64,10,7.47,13.15s10.24-1.76,15.06,1.35a9.25,9.25,0,0,1,2.78,12.78c-2.07,3.22-19.26-3.67-33.25-9.63C2519.16,2075.89,2504.31,2066,2481.24,2051.11Zm45.26,52.27c-4.82-3.11-10.23,1.76-15.06-1.35s-2.37-9.87-7.2-13c-5.1-3.28-10.24,1.76-15.06-1.35a9.26,9.26,0,0,1-2.78-12.79c2.07-3.21,19.26,3.68,33,9.47,8.95,6.14,23.8,16.07,46.87,30.92a9.26,9.26,0,0,1,2.77,12.79c-2.24,3.49-6.67,3.29-10.27,4.77l-24.95-16.06C2529.24,2113.87,2531.33,2106.49,2526.5,2103.38Zm2.27,102,3.8-5.9c2.94-4.56,10.14-2.2,13.25-7,3.28-5.1-2-10.41,1.08-15.24a9.46,9.46,0,0,1,12.78-2.77,9.25,9.25,0,0,1,2.78,12.78c-3.11,4.83-9.87,2.38-13.15,7.47-3.11,4.83,1.93,10-1.18,14.8s-10.05,2.64-13.15,7.47,1.75,10.23-1.35,15.06a9.26,9.26,0,0,1-12.79,2.77C2517.89,2232.89,2523.49,2218.28,2528.77,2205.37Zm10.19-64.76c1.38-2.15,7.79-.31,16.24,2.48.57,2.64.88,5.12-.68,7.53a9.25,9.25,0,0,1-15.56-10Z"/><path class="cls-1" d="M2202,2255.74c4-4.13,10.14-.41,14.13-4.55,4.2-4.36.26-10.38,4.24-14.51a9.25,9.25,0,0,1,13.08-.25c3.91,3.77.41,10.15,4.55,14.13,4.36,4.21,10.61.48,14.52,4.25,4.13,4,.41,10.14,4.78,14.35,4.13,4,10.38.25,14.28,4,2.53,2.43-5.58,15.44-13.25,27.54l-4.88,4.6c-3.77,3.46-9.4,3.79-13.08.25-4.13-4-.41-10.15-4.55-14.13-4.36-4.21-10.38-.26-14.51-4.25s-.42-10.14-4.78-14.35c-4.14-4-10.61,0-14.51-3.79A9.76,9.76,0,0,1,2202,2255.74Zm38.83,74.63a9.26,9.26,0,0,1,13.08-.24c4.14,4,.42,10.15,4.55,14.13,4.37,4.2,10.38.26,14.52,4.24s.41,10.15,4.78,14.35c4.13,4,10.15,0,14.28,4a9.25,9.25,0,0,1,.25,13.08c-3.32,3.45-8.72,4.45-12.39.91-4.14-4-.44-11.05-5-15-4.14-4.44-10.83-.25-14.74-4-4.13-4-.19-10.38-4.56-14.58-4.13-4-10.6,0-14.5-3.8A9.25,9.25,0,0,1,2240.8,2330.37ZM2275.9,2179c4-4.13,10.14-.41,14.35-4.78,4-4.13,0-10.15,4-14.29,3.1-3.21,7.18-1.93,10.77-2.9l9.19,8.85-25,26a9.47,9.47,0,0,1-13.08.24A9.26,9.26,0,0,1,2275.9,2179Zm4,225.76a9.25,9.25,0,0,1,13.08-.25c3.9,3.76.41,10.15,4.55,14.13,4.36,4.21,10.38.26,14.51,4.24,1.84,1.77-2.08,9.52-7.55,18.42l-5.28-5.09c-3.91-3.77-.42-10.15-4.77-13.9-3.69-4-9.71,0-13.84-4C2276.88,2414.76,2276.32,2408.45,2279.86,2404.78Zm11.4-127.23,4.88-4.6c3.77-3.46,9.4-3.79,13.08-.25,4.13,4,.41,10.15,4.55,14.13,4.36,4.21,10.38.26,14.51,4.25s.42,10.14,4.78,14.35c4.14,4,10.16,0,14.29,4,3.22,3.1-5.58,15.44-13.25,27.54l-4.88,4.6c-3.77,3.46-9.4,3.79-13.08.25-3.9-3.77-.41-10.15-4.55-14.13-4.36-4.21-10.61-.48-14.51-4.25-4.14-4-.42-10.14-4.78-14.35-4.14-4-10.39-.25-14.29-4C2275.48,2302.66,2283.59,2289.65,2291.26,2277.55Zm8.14,183.26c1.54-1.61,7.92,1.44,15.22,5.81.05,2.71.09,5-1.9,7a9.25,9.25,0,0,1-13.32-12.84Zm13.46-320.15a9.25,9.25,0,0,1,13.08-.24,9.68,9.68,0,0,1,.24,13.08c-1.77,1.83-7.92-1.43-15.44-5.58C2310.69,2145.21,2310.87,2142.73,2312.86,2140.66Zm-1.29,307.52,24.79-25.73a9.25,9.25,0,1,1,13.32,12.84c-4,4.13-10.14.41-14.13,4.55-4.2,4.36-.25,10.38-4.24,14.52-3.1,3.21-7.18,1.93-10.77,2.9Zm9.78-275.42,5.07,5.32c3.9,3.77.63,9.92,4.76,13.9,3.91,3.76,9.71.05,13.84,4,3.68,3.54,4.25,9.85.7,13.53a9.26,9.26,0,0,1-13.08.24c-3.9-3.76-.19-10.38-4.32-14.36-4.37-4.21-10.61,0-14.74-4C2311.74,2189.64,2315.88,2181.66,2321.35,2172.76Zm12,61.6c3.32-3.45,8.72-4.45,12.4-.91,4.13,4,.42,10.59,5,15,4.37,4.21,10.84.25,14.74,4,4.13,4,.41,10.14,4.78,14.34,4.13,4,10.38.26,14.29,4a9.25,9.25,0,0,1-12.84,13.32c-3.91-3.76-.42-10.15-4.55-14.13-4.36-4.2-10.61-.48-14.52-4.24-4.13-4-.41-10.15-4.78-14.35-4.13-4-10.38-.26-14.28-4A9.25,9.25,0,0,1,2333.32,2234.36Zm34,79.23,4.88-4.6a9.25,9.25,0,0,1,13.08-.25c3.9,3.77.19,10.38,4.33,14.36,4.36,4.21,10.6,0,14.73,4,3.68,3.54-14.8,28.7-22.47,41.25l-9-8.64c-4.13-4-.19-10.37-4.55-14.57-4.14-4-10.61,0-14.51-3.8C2351.28,2338.93,2359.61,2325.69,2367.28,2313.59Zm6,70.5c1.55-1.61,7.93,1.43,15.23,5.81,0,2.71.09,5-1.9,7a9.26,9.26,0,0,1-13.08.24A9.47,9.47,0,0,1,2373.32,2384.09Zm55.34-57.43a9.47,9.47,0,0,1,13.08-.24,9.25,9.25,0,0,1,.24,13.08c-4,4.14-10.14.42-14.35,4.78-4,4.14,0,10.15-4,14.29s-10.36.64-14.35,4.78-.26,10.38-4.24,14.51c-2.88,3-7,1.71-10.55,2.68l-9.88-9.52C2391.47,2364.8,2405,2351.24,2428.66,2326.66Z"/><path class="cls-1" d="M1985.63,2440.91c-3.1-4.83-10.31-2.47-13-7.21-3-4.12-1.52-10,2.78-12.78,3.49-2.24,7.61,0,11.59-.25,5.6,9.3,15,24.5,29.81,47.58,1.55,2.42-4.49,8.95-11.87,16.35-4.83-7.52-10.76-17.35-18.27-28.45C1983.86,2451.15,1988.9,2446,1985.63,2440.91Zm-4.12,39c2.42-1.55,9,4.49,16.18,11.6l-7.29,7c-3.31-2.8-9.08-1.75-11.67-5.77A9.27,9.27,0,0,1,1981.51,2480Zm16.21-73.34c3.48-2.24,7.43-.23,11.15-.34,4.21,7.15,9.56,15.47,15.94,25.4a9.25,9.25,0,0,1-2.79,12.78c-3.75,2.41-19.12-15-30.08-26.17C1994.84,2414.52,1993.69,2409.19,1997.72,2406.61Zm-4.66,96.63c2.86-1.45,6.08-3.52,10.11-6.11,2.95,3.42,6,6.39,8.6,9.26-2.8,3.32-1.75,9.09-5.77,11.67a9.27,9.27,0,0,1-12.79-2.78C1990.8,2511.52,1993.35,2507.23,1993.06,2503.24Zm17-10.15c8-5.17,18.42-11.45,30.59-19.65a9.75,9.75,0,0,1,13,3,9.47,9.47,0,0,1-2.78,12.78c-4.83,3.1-10.14-2.21-15.24,1.07-4.83,3.1-2.48,10.31-7,13.24-3.76,2.41-8-.14-12,.15C2014.88,2500.61,2012.64,2497.12,2010.05,2493.09ZM2020,2392.3c4.83-3.11,10.24,1.76,15.07-1.34s2.64-10,7.48-13.14c4.56-2.94,10,1.93,14.79-1.17,5.1-3.27,2.65-10,7.48-13.14a9.26,9.26,0,0,1,12.79,2.78c1.89,2.95-9,13.74-19.43,23.47l-5.63,3.62c-4.84,3.11-10.41-2-15.24,1.07s-2.48,10.31-7.31,13.41c-1.88,1.21-7.38-3.22-13.47-9.16C2017.1,2396.05,2017.84,2393.68,2020,2392.3Zm19.11,177.29a9.25,9.25,0,0,1,12.78,2.79c2.93,4.56-1.94,10,1.17,14.79,3.27,5.1,10.31,2.48,13.14,7.48,1.3,1.44-3.74,6.58-10.49,13.19-1.93-.66-3.87-1.31-5.07-3.19-3.11-4.83,2.2-10.14-1.07-15.24-3.11-4.83-10.31-2.47-13.24-7A9.47,9.47,0,0,1,2039.1,2569.59Zm25.94,46.28,25.22-16.21c4.57-2.93,10.14,2.21,15-.89,5.1-3.28,2.48-10.31,7.31-13.42a9.46,9.46,0,0,1,12.78,2.79,9.26,9.26,0,0,1-2.78,12.78c-4.83,3.1-10-1.94-15.07,1.34-4.83,3.1-2.64,10-7.21,13-4.83,3.1-10.23-1.77-15.06,1.34s-2.65,10-7.48,13.14a9.25,9.25,0,0,1-12.78-2.78C2062.69,2623.44,2064.88,2619.76,2065,2615.87Zm40.09-172.48c-3.1-4.84,1.77-10.24-1.34-15.07s-10-2.65-13.14-7.48c-2.93-4.56,1.94-10-1.17-14.8-3.27-5.09-10-2.64-13.14-7.47-1.9-3,9-13.74,19.42-23.48l5.64-3.62a9.26,9.26,0,0,1,12.78,2.78c3.1,4.84-1.94,10,1.34,15.07,3.1,4.83,10,2.65,13,7.21,3.1,4.83-1.77,10.24,1.34,15.07s10,2.64,13.14,7.48c2.93,4.56-1.94,10,1.17,14.79,3.27,5.1,10,2.65,13.14,7.48a9.25,9.25,0,0,1-2.78,12.78c-8.59,5.52-84-98.85-5.18,23.81,3.1,4.83-1.77,10.23,1.33,15.06s10,2.65,13.15,7.48a9.27,9.27,0,0,1-2.78,12.79c-3.22,2.06-16-11.34-26.25-22.57C2129.34,2481.67,2120,2466.47,2105.13,2443.39Zm19.49,66.34c-3.1-4.83-10-2.65-13.15-7.48-2.93-4.56,1.94-10-1.16-14.8-3.28-5.1-10-2.65-13.15-7.48a9.26,9.26,0,0,1,2.79-12.78c3.22-2.07,16,11.33,26.08,22.3,5.59,9.29,15,24.5,29.8,47.58a9.26,9.26,0,0,1-2.78,12.78c-3.49,2.24-7.44.23-11.33.07-4.48-7-9.56-15.47-16-25C2122.59,2520.13,2127.72,2514.56,2124.62,2509.73Zm-4.11,39c2.14-1.38,7.2,2.95,13.74,9-.58,2.65-1.33,5-3.74,6.57a9.25,9.25,0,1,1-10-15.56Z"/><path class="cls-1" d="M1753,2517.79c5.33-2.13,9.71,3.68,15,1.55s4.51-9.36,9.84-11.49a9.27,9.27,0,0,1,12,5.16c2,5-4.09,9.54-2,14.87,2.24,5.63,9.65,4.39,11.78,9.72,1.3,3.26-11.74,11.9-23.82,19.48l-6.22,2.48a9.26,9.26,0,0,1-12-5.16c-2.13-5.33,4.09-9.53,1.85-15.16-2.13-5.33-9.66-4.39-11.67-9.42A9.27,9.27,0,0,1,1753,2517.79ZM1787,2676c4.33-2.07,18.36,21.87,26.7,35-4.2,2.37-8.71,4.85-12.79,7.52a9.3,9.3,0,0,1-9.24-5.93c-2.13-5.33,3.79-9.42,1.54-15-2.13-5.33-9.35-4.5-11.37-9.54A9.26,9.26,0,0,1,1787,2676Zm28.61-126.16,6.22-2.49a9.26,9.26,0,0,1,12,5.16c2.13,5.33-3.67,9.72-1.54,15.05s9.35,4.5,11.48,9.84c1.54,3.85-18.37,15.92-31.52,24.27-3-3.26-8.77-3-10.24-7.59-2.43-5.21,3.67-9.71,1.54-15s-9.65-4.39-11.78-9.72C1790.75,2565.91,1803.49,2557.39,1815.58,2549.81Zm-19.12,103.48a9.72,9.72,0,0,1,5.16-12,9.26,9.26,0,0,1,12,5.16c2.13,5.33-3.67,9.72-1.54,15s9.35,4.5,11.48,9.84-3.79,9.41-1.66,14.75c2.25,5.62,9.36,4.5,11.49,9.83,1,1.66-6.17,6.93-15.94,12.56C1814.27,2698.73,1807.7,2681.43,1796.46,2653.29Zm17-46c10.19-3.73,26.9-10.06,52.38-20.24,2.66-1.07,7.81,5.81,13.67,14.46l-6.81,2.72c-5,2-9.42-3.79-14.75-1.66-5.63,2.25-4.8,9.47-9.84,11.48-5.33,2.13-9.41-3.79-15-1.54-5.34,2.13-4.51,9.36-9.55,11.37a9.53,9.53,0,0,1-12.31-5C1809.86,2614.61,1813,2611.29,1813.48,2607.33ZM1849.57,2708l6.52-2.61c5-2,9.54,4.09,14.87,2,5.63-2.25,4.39-9.65,9.72-11.78,2.07-.83,6.63,4.56,11.48,11.56-1.06,2.48-2,4.55-4.62,5.62-5.33,2.13-9.42-3.79-15-1.55-5.34,2.13-4.21,9.24-9.55,11.37s-9.71-3.67-15-1.54-4.51,9.35-9.84,11.48a9.25,9.25,0,0,1-12-5.15C1824.75,2724.09,1837.78,2715.44,1849.57,2708Zm2.35-229.72c5.33-2.13,9.42,3.79,14.75,1.66,5.63-2.25,4.51-9.36,9.84-11.49s9.42,3.8,15,1.55c5.33-2.13,4.21-9.24,9.54-11.37,4.14-1.66,7.34,1.19,11,1.78l5.09,12.74c-8.82,2.84-26.72,9.64-58.41,22.31-4.74,1.89-10.55-.6-12.32-5A9.74,9.74,0,0,1,1851.92,2478.27Zm29.59,74.05c3.43-1.71,13.44,13.87,21.37,26.85,1.3,3.26,2.43,6.93,4.32,11.67-5.33,2.13-11.08,4.08-17.89,6.8-3.55-8.88-7.63-20-13.26-33.17C1874.46,2559.61,1876.65,2553.92,1881.51,2552.32Zm4.11,84.24c4.62-2.19,19.48,23.82,27.59,36.38-6.52,4.33-13.45,8.47-18.31,11.78l-4.62-11.55c-2.13-5.33,4.09-9.53,1.85-15.16-2.13-5.33-9.66-4.39-11.67-9.43C1878.57,2643.84,1881.06,2638,1885.62,2636.56Zm5.38-106.92c-2-5,3.79-9.42,1.66-14.75-2.25-5.63-9.36-4.5-11.49-9.84-1.06-2.66,6.4-8.05,15.35-14,3.08,9.42,9.65,26.72,21.6,56.64,2,5-3.8,9.42-1.67,14.75,2.25,5.63,9.48,4.8,11.49,9.84,1.66,4.15-1.78,7.58-2.25,11.55-3,1.18-6.52,2.6-10.79,4l-3.67-5.75C1907.62,2572.12,1901.29,2555.41,1891,2529.64Zm4.4,84.12c-.65-2.49,6.11-7.94,14.88-13.5l12.54,31.4c2,5-4.09,9.54-2,14.87,2.25,5.63,9.66,4.38,11.78,9.72,1.07,2.66-6.4,8.05-15.64,14.15C1913.92,2661,1907.65,2643.56,1895.4,2613.76Zm59.34,52.21a9.47,9.47,0,0,1,12,5.16,9.26,9.26,0,0,1-5.16,12c-5.33,2.13-9.42-3.79-15-1.54-5.34,2.13-4.21,9.24-9.55,11.37s-9.71-3.68-15-1.55-4.51,9.36-9.84,11.49c-3.85,1.54-7.05-1.31-10.72-1.9l-5.09-12.74C1905.15,2685.44,1923,2678.63,1954.74,2666Zm-36.12-189.27,4.32,11.67c2.13,5.33-3.79,9.41-1.54,15,2.13,5.33,9.24,4.21,11.37,9.54a9.27,9.27,0,0,1-5.16,12c-4.45,1.77-19.19-23.94-27.59-36.39C1906.83,2484.15,1913.76,2480,1918.62,2476.7Zm8.9,112.55c3,3.26,8.47,3.14,10.25,7.59a9.26,9.26,0,0,1-5.16,12c-2.26,1.24-7.82-5.81-13.68-14.46Zm-1.24-140.69a9.26,9.26,0,0,1,12,5.16,9.71,9.71,0,0,1-5.16,12c-2.37,1-6.63-4.56-11.78-11.44C1922.43,2451.82,1923.61,2449.63,1926.28,2448.56Z"/><path class="cls-1" d="M1626,2764.59c2.18-.5,5.86,5.52,9.58,13.17-1.43,2.3-2.63,4.21-5.42,4.86a9.27,9.27,0,0,1-11.1-6.94A9.48,9.48,0,0,1,1626,2764.59Zm4.18-219c5.28-1.22,8.72,5.19,14.32,3.9,5.9-1.36,6.19-8.63,11.48-9.85,5.59-1.29,8.72,5.19,14.63,3.83,5.59-1.29,5.88-8.56,11.16-9.78,4-.93,7.08,2.3,10.62,3.45.93,4,2,8.7,3.08,13.37-9.16,1.45-27.88,5.44-61.14,13.11-5,1.15-10.32-2.2-11.4-6.86A9.53,9.53,0,0,1,1630.22,2545.6Zm9.72,161.44c5-1.15,15.61,26.52,21.7,40.17-7.1,3.28-14.58,6.31-19.89,8.85l-2.8-12.13c-1.29-5.59,5.51-8.79,4.14-14.7-1.29-5.6-8.87-5.81-10.08-11.1A9.47,9.47,0,0,1,1639.94,2707Zm12.84-21c-.9-5.36,5.51-8.8,4.22-14.4-1.37-5.9-8.63-6.19-9.85-11.48-1.36-5.9,5.19-8.72,3.82-14.63-1.29-5.59-8.55-5.88-9.77-11.17a9.25,9.25,0,0,1,6.93-11.09c3.42-.79,12.12,22.74,19.43,41.68,2.06,10.33,5.28,24.32,9.58,43,1.22,5.28-5.5,8.79-4.21,14.39,1.37,5.9,8.87,5.81,10.16,11.41.65,2.79-7.55,7-17.62,11.59C1663.87,2735.57,1660.33,2717.4,1652.78,2686.08Zm51,60.59a9.46,9.46,0,0,1,11.09,6.94,9.25,9.25,0,0,1-6.93,11.09c-5.6,1.29-8.73-5.19-14.64-3.83-5.59,1.29-5.88,8.56-11.16,9.78-5.6,1.29-9-5.12-14.64-3.83s-5.88,8.56-11.47,9.85c-4,.93-6.77-2.37-10.31-3.52-.93-4-2-8.7-3.08-13.36C1651.77,2758.33,1670.49,2754.34,1703.75,2746.67ZM1661,2602.35c-1.22-5.29,5.19-8.73,3.9-14.33-1.36-5.9-8.56-5.88-9.85-11.47-.65-2.8,7.56-7,17.31-11.53,1.6,9.78,5.45,27.88,12.69,59.28,1.21,5.28-5.19,8.72-3.9,14.32,1.36,5.91,8.63,6.19,9.84,11.48,1.3,5.59-5.19,8.72-3.82,14.63,1.29,5.6,8.56,5.88,9.77,11.17A9.25,9.25,0,0,1,1690,2687c-3.73.86-10.57-14.59-16.66-28.24C1670.56,2645.31,1666.71,2627.21,1661,2602.35Zm35.39-48.1,2.49,12.19c1.29,5.59-5.19,8.73-3.83,14.63,1.29,5.6,8.56,5.89,9.78,11.17a9.26,9.26,0,0,1-6.94,11.09c-4.66,1.08-15.3-26.59-21.7-40.17C1683.58,2559.81,1691.06,2556.78,1696.37,2554.25Zm11.87-26.64a9.27,9.27,0,0,1,11.09,6.94,9.47,9.47,0,0,1-6.94,11.09c-2.48.57-5.85-5.52-9.89-13.1C1703.93,2530.24,1705.44,2528.26,1708.24,2527.61Z"/><path class="cls-1" d="M1381.37,2678.14c10.49-.78,26.7,126.93,15.9-18.46-.43-5.73,6.75-8.18,6.32-13.9s-7.88-7.1-8.31-12.82a9.26,9.26,0,0,1,8.54-9.91c4.14-.31,8.67,17.59,12.64,32.33.14,10.54,1.15,28.38,3.5,55.72.11,5.75-6.75,8.18-6.32,13.9s7.88,7.09,8,12.84c.72,5.39-6.46,7.84-6,13.57.45,6,7.57,7.11,8,12.84.24,3.18-19.59,7.53-37.83,11.77a9.31,9.31,0,0,1-7-8.44c-.42-5.73,6.46-7.84,6-13.88-.43-5.73-7.57-7.12-8-12.52-.42-5.73,6.43-8.16,6-13.89s-7.57-7.11-8-12.84c-.4-5.41,6.45-7.83,6-13.56-.45-6-7.57-7.12-8-12.84A9.26,9.26,0,0,1,1381.37,2678.14Zm54,102.51,7-.52c5.41-.4,7.86,6.77,13.59,6.35,6-.45,7.09-7.89,12.82-8.32,2.23-.16,5,6.36,7.47,14.48-1.76,2.06-3.24,3.76-6.1,4-5.73.42-7.84-6.46-13.88-6-5.73.43-7.12,7.57-12.53,8-5.72.42-8.15-6.43-13.88-6s-7.11,7.57-12.84,8a9.26,9.26,0,0,1-9.91-8.54C1406.84,2788.52,1421.87,2784.21,1435.37,2780.65Zm-15.64-176.06a9.74,9.74,0,0,1,8.85-9.93c4.14-.31,6.33,3.37,9.68,5.36q.91,12.41,2.2,29.58c.42,5.73-6.75,8.18-6.33,13.91s7.89,7.09,8.31,12.82c.41,5.4-6.77,7.86-6.34,13.58.44,6.05,7.88,7.09,8.3,12.82a9.26,9.26,0,0,1-8.54,9.91c-4.13.31-8.66-17.59-12.61-32C1423.08,2649.77,1422.08,2631.93,1419.73,2604.59ZM1455,2592.7a9.25,9.25,0,1,1,1.37,18.45c-2.23.16-4.93-6-7.47-14.48C1450.65,2594.62,1452.13,2592.91,1455,2592.7Zm24.44-28.37c5.73-.43,8.16,6.43,13.88,6s7.12-7.56,12.85-8c5.4-.4,7.83,6.46,13.56,6,6-.45,7.43-7.59,12.84-8,5.73-.42,7.84,6.46,13.88,6,5.73-.43,7.12-7.57,12.53-8,4.13-.31,6.64,3.34,10,5,.31,4.13.67,8.9,1,13.68-9.27.05-28.38,1.15-62.42,3.67-5.73.43-8.18-6.75-13.91-6.32s-7.09,7.88-12.82,8.31a9.47,9.47,0,0,1-9.91-8.54A9.26,9.26,0,0,1,1479.43,2564.33Zm11.82,159.06c5.09-.37,11.4,28.59,15.35,43-7.52,2.16-15.38,4-21,5.72l-.92-12.41c-.42-5.73,6.77-7.86,6.33-13.91-.43-5.72-7.89-7.09-8.29-12.49A9.47,9.47,0,0,1,1491.25,2723.39Zm57,48.87a9.46,9.46,0,0,1,9.91,8.54,9.26,9.26,0,0,1-8.54,9.91c-5.72.42-7.83-6.46-13.88-6-5.73.43-7.11,7.57-12.52,8-5.73.43-8.16-6.43-13.88-6s-7.12,7.57-12.85,8c-4.13.3-6.32-3.37-9.65-5-.3-4.13-.66-8.9-1-13.68C1495.15,2775.89,1514.26,2774.78,1548.3,2772.26Zm-41.17-67.64c-.08-5.43,6.77-7.86,6.35-13.59-.45-6-7.59-7.43-8-12.84-.43-5.72,6.45-7.83,6-13.88-.42-5.73-7.88-7.09-8-12.52-.69-5.07,3.45-9.54,8.54-9.91,3.82-.29,8.64,17.27,12.3,32,.46,10.52,1.47,28.36,3.52,56,.41,5.41-6.77,7.86-6.34,13.59.45,6,7.88,7.09,8.31,12.81.21,2.87-8.53,5.76-19.18,8.79C1510.57,2755.23,1509.83,2736.73,1507.13,2704.62Zm20.81-81.52c-.4-5.41,6.46-7.83,6-13.56-.45-6.05-7.56-7.12-8-12.84-.21-2.87,8.53-5.75,18.86-8.76.1,9.91,1.15,28.38,3.54,60.51.4,5.41-6.45,7.84-6,13.57.45,6,7.59,7.43,8,12.84.43,5.73-6.45,7.84-6,13.88.42,5.73,7.56,7.12,8,12.52a9.27,9.27,0,0,1-8.54,9.92c-3.81.28-8.64-17.28-12.29-32C1531,2668.62,1530,2650.78,1527.94,2623.1Zm42.29-42.17.61,12.44c.42,5.72-6.46,7.83-6,13.88.43,5.72,7.57,7.11,8,12.52a9.26,9.26,0,0,1-8.54,9.91c-4.77.35-11.08-28.6-15.35-43C1556.74,2584.5,1564.6,2582.63,1570.23,2580.93Zm15.46-24.5a9.26,9.26,0,0,1,9.91,8.54,9.71,9.71,0,0,1-8.54,9.92c-2.55.19-5-6.35-7.79-14.46C1581,2558.38,1582.82,2556.65,1585.69,2556.43Z"/><path class="cls-1" d="M1069.43,2689c5,.83,4.37,30.46,4.81,45.41l-5.5.06-6.61-1.09a9.26,9.26,0,0,1-7.63-10.63c.94-5.67,8.12-6.1,9.1-12.08.94-5.67-5.68-8.69-4.8-14A9.26,9.26,0,0,1,1069.43,2689Zm37.36,59.81,6.61,1.09c5.35.88,6,8.43,11.71,9.36,6,1,8.75-6,14.41-5.06a9.47,9.47,0,0,1,7.63,10.63,9.26,9.26,0,0,1-10.63,7.63c-5.67-.94-6.1-8.12-12.08-9.1-5.67-.94-8.7,5.68-14,4.8-5.66-.94-6.41-8.17-12.08-9.1s-8.69,5.68-14.36,4.75a9.26,9.26,0,0,1-7.62-10.63C1076.9,2749.66,1092.52,2749,1106.79,2748.76Zm-17.51-74.32c.88-5.36,8.43-6.05,9.36-11.72,1-6-6-8.74-5.06-14.41.72-4.41,5.44-5.57,7.9-8.72,3.15.52,6.92,1.14,11.59,2.23l.18,6.82c-2.34,10.28-5.56,27.86-9.75,55.29-1.2,5.3-8.43,6.05-9.36,11.72-1,6,5.68,8.69,4.74,14.35-.15,2.89-9.64,3.59-20.39,4.08C1080.73,2724.43,1084.05,2706.23,1089.28,2674.44Zm19.23-59.88c2.83.47,3.69,9,4.23,19.45l-10,0c-.59-4.3-5.63-7.07-4.85-11.79A9.26,9.26,0,0,1,1108.51,2614.56Zm13-78.69c5.67.93,6.41,8.17,12.08,9.1s8.69-5.68,14.36-4.75c5.35.88,6.1,8.12,11.76,9.05,6,1,8.7-5.68,14.36-4.75,4.1.68,5.68,4.81,8.51,7.22-1,4-1.76,8.76-2.54,13.48-9-2.13-27.86-5.55-61.54-11.09a9.47,9.47,0,0,1-7.62-10.63A9.26,9.26,0,0,1,1121.46,2535.87Zm-.52,107.25c5.67.93,11.91,2.28,18.84,3.42-1.56,9.44-3.47,21.09-5.81,35.25-.82,5-5.64,8.77-10.63,7.63-4.14-.36-4.33-18.82-4.73-34.08C1119.49,2651.93,1120.11,2648.15,1120.94,2643.12Zm16.78-54.79c1-6-6-8.74-4.75-14.36.15-2.88,9.64-3.58,20.39-4.08-2.23,9.66-5.55,27.86-10.79,59.65-.41,2.52-9.32,3.64-19.71,3.87,1.45-8.81,3.58-19.78,5.49-33.36C1129.55,2594.75,1136.79,2594,1137.72,2588.33Zm19,61c5.67.93,6.1,8.11,12.08,9.1,5.67.93,8.7-5.68,14.05-4.8,5.66.93,6.41,8.16,12.08,9.1s8.69-5.68,14.36-4.75c2.52.41,3.69,9,3.92,19.39l-6.93-1.14c-5.66-.93-6.41-8.16-12.08-9.1s-8.69,5.69-14.36,4.75c-5.35-.88-6.1-8.11-11.76-9-6-1-8.7,5.69-14.36,4.75-2.52-.41-3.69-9-4.24-19.44Zm22.6-80.34-2,12.28c-.93,5.66-8.12,6.1-9.1,12.08-.93,5.66,5.68,8.69,4.8,14a9.26,9.26,0,0,1-10.63,7.63c-5-.83-4.36-30.46-4.81-45.41C1165.42,2569.29,1173.81,2569.38,1179.37,2569ZM1170,2732.33c2.52.41,3.37,7,4.17,15.88-2.2,1.57-4.34,2.84-7.18,2.37a9.25,9.25,0,0,1,3-18.25Zm30.74-21.78a9.47,9.47,0,0,1,7.62,10.63c-.88,5.35-8.43,6.05-9.36,11.72-1,6,6,8.74,5.06,14.41a9.26,9.26,0,0,1-10.63,7.62c-4.09-.67-5.67-4.81-8.46-7.53,1.35-8.19,3.27-17.89,4.82-29.27A9.54,9.54,0,0,1,1200.69,2710.55Zm-.54-161.73a9.27,9.27,0,0,1,7.63,10.63,9.48,9.48,0,0,1-10.64,7.63c-2.2-.37-3.31-7.34-3.86-15.83C1195.48,2549.67,1197.63,2548.41,1200.15,2548.82Zm36.21,143.36c1.58,2.2,2.84,4.34,2.43,6.86a9.25,9.25,0,0,1-18.26-3C1220.9,2693.83,1227.55,2692.67,1236.36,2692.18Zm-7.23-48.39a9.25,9.25,0,1,1,18.26,3c-.88,5.35-8.12,6.1-9.05,11.77-1,6,5.63,9,4.75,14.36-.67,4.09-4.81,5.67-7.54,8.46L1223,2679C1224.89,2669.6,1226.8,2658,1229.13,2643.79Zm23.58-86.32c5.67.94,6.1,8.12,12.08,9.1,5.67.94,8.7-5.68,14-4.8,4.09.68,5.67,4.82,8.51,7.22l-2.07,12.59-35.57-5.85a9.48,9.48,0,0,1-7.63-10.63A9.26,9.26,0,0,1,1252.71,2557.47Zm31,33.87-1.51,7.19c-.93,5.66-8.11,6.1-9.1,12.08-.93,5.66,5.69,8.69,4.81,14a9.26,9.26,0,0,1-10.64,7.63,9.47,9.47,0,0,1-7.62-10.63c.88-5.35,8.43-6.05,9.36-11.72,1-6-6-8.74-5.06-14.41C1264.32,2593,1273.24,2591.89,1283.67,2591.34Zm21.61-25.22a9.26,9.26,0,0,1,7.62,10.63,9.68,9.68,0,0,1-10.63,7.63c-2.51-.41-3.31-7.34-4.17-15.88C1300.3,2566.92,1302.45,2565.66,1305.28,2566.12Z"/><path class="cls-1" d="M794.43,2645.91c2.4.87,1.9,7.82,1.16,16.37-2.45,1.15-4.79,2-7.49,1a9.26,9.26,0,0,1-5.53-11.86A9.46,9.46,0,0,1,794.43,2645.91Zm50.05,18.23A9.46,9.46,0,0,1,850,2676a9.26,9.26,0,0,1-11.86,5.52c-5.39-2-4.49-9.1-10.18-11.18-5.4-2-9.3,4.08-14.69,2.12-4.2-1.53-4.69-5.78-7-8.67l4.37-12Zm-27.67-28.42c2-5.39,9.11-4.49,11.18-10.18,2-5.4-4.08-9.3-2.12-14.69a9.25,9.25,0,1,1,17.39,6.33c-1.86,5.09-9.41,4.38-11.37,9.78-2.08,5.69,4.27,9.7,2.31,15.1-.88,2.39-9.84,1.84-20.2.45Zm73.39-96.16a9.26,9.26,0,0,1,5.53,11.86c-1.86,5.09-9.11,4.49-11.07,9.88-2.08,5.7,3.86,9.9,2,15-2,5.4-9.11,4.5-11.18,10.19-2,5.4,4,9.6,2.11,14.69a9.25,9.25,0,1,1-17.38-6.33c1.86-5.1,9.11-4.49,11.07-9.89,2.08-5.69-3.86-9.89-2-15,2-5.39,9.11-4.49,11.18-10.18,2-5.4-4-9.6-2.12-14.69A9.26,9.26,0,0,1,890.2,2539.56Zm4.34,142.81c2.1.76,1.9,7.82.86,16.27-2.45,1.14-4.5,2.1-7.19,1.11a9.25,9.25,0,1,1,6.33-17.38Zm16.81,5.11c8.48,3.76,26.35,10.61,58.42,22.29a9.48,9.48,0,0,1,5.53,11.86,9.27,9.27,0,0,1-11.86,5.53c-5.4-2-4.79-9.22-10.19-11.18s-9.59,4-15,2-4.49-9.11-9.89-11.07c-5.69-2.08-9.59,4-15,2-4.19-1.52-4.68-5.78-7-8.67C908.08,2696.47,909.71,2692,911.35,2687.48Zm22-188.91c3.9,1.42,4.69,5.78,6.92,9-2.84,7.79-6.52,17-10.15,27.87a9.75,9.75,0,0,1-12.16,5.42,9.26,9.26,0,0,1-5.53-11.86c1.86-5.1,9.41-4.38,11.37-9.78,2.08-5.69-4.27-9.7-2.31-15.1A9.26,9.26,0,0,1,933.31,2498.57Zm4.53,143.22c4.9,1.44-1.35,30.74-3.68,45.51-7.74-1.12-16-2.76-21.5-3.42l4.26-11.69c2-5.4,9.11-4.49,11.18-10.19,2-5.39-4-9.59-2.12-14.69C927.73,2642.52,933.15,2639.74,937.84,2641.79ZM960,2631.2c1.86-5.1,9.4-4.39,11.37-9.78,2.07-5.7-4.16-10-2.31-15.1,2-5.4,9.41-4.38,11.48-10.08,2-5.39-4.27-9.7-2.42-14.8,1.75-4.79,7.47-7.46,11.86-5.53,3.41.91-1.92,25.79-6.1,45.65-3.9,9.78-9.12,23.16-15.37,41.25-2.15,5-9.4,4.39-11.37,9.78-2.07,5.7,4.28,9.71,2,15-.68,2.81-10.14,1.74-20.79.24C942.37,2678.74,949,2661.47,960,2631.2Zm-1.54-123.46A9.26,9.26,0,0,1,964,2519.6a9.47,9.47,0,0,1-11.86,5.52c-2.4-.87-2-7.52-1.17-16.38C953.45,2507.6,955.79,2506.75,958.49,2507.74Zm33.94-15.82c5.39,2,4.49,9.11,10.19,11.18,5.39,2,9.29-4.08,14.69-2.12s4.79,9.22,10.18,11.18,9.6-4,15-2A9.26,9.26,0,0,1,1048,2522c-1.2,3.3-16.68,1.06-30.74-1.35l-6.3-2.29c-5.09-1.86-4.38-9.41-9.77-11.37-5.7-2.08-9.71,4.27-15.1,2.31a9.47,9.47,0,0,1-5.53-11.86A9.25,9.25,0,0,1,992.43,2491.92Zm19.77,73.41c2.16-5,9.41-4.39,11.37-9.78,2.08-5.7-4.27-9.71-2-15,.69-2.81,10.14-1.74,20.8-.24-4,9.08-10.62,26.35-21.65,56.62-1.85,5.1-9.4,4.39-11.36,9.78-2.08,5.7,4.16,10,2.3,15.1-2,5.4-9.4,4.38-11.48,10.08-2,5.39,4.28,9.7,2.42,14.8-1.75,4.79-7.47,7.46-11.86,5.53-3.7-1-.91-18,1.41-32.76C997.14,2606.69,1003.77,2589.41,1012.2,2565.33Zm39.8-23.53,6.3,2.29a9.26,9.26,0,0,1,5.52,11.86c-2,5.4-9.1,4.49-11.17,10.19-2,5.39,4,9.59,2.11,14.69-1.74,4.79-7.17,7.57-11.86,5.52-4.9-1.44,1.36-30.74,3.68-45.51Z"/><path class="cls-1" d="M651.79,2434.07c9.06,5.37-50.74,119.37,23.61-6,2.92-4.93,10.21-2.84,13.14-7.78s-2.41-10.33.52-15.27a9.27,9.27,0,0,1,12.68-3.24c3.56,2.12-3,19.39-8.14,33.75-5.92,8.73-15.3,23.93-29,47.7-3.2,4.77-10.21,2.84-13.14,7.78s2.41,10.33-.8,15.1c-2.49,4.83-9.78,2.74-12.7,7.67-3.09,5.22,2.13,10.17-.8,15.11-1.63,2.74-20.38-5-37.76-12a9.29,9.29,0,0,1-.93-10.94c2.93-4.94,9.78-2.73,12.87-7.94,2.93-4.94-2.13-10.17.63-14.83,2.93-4.94,9.94-3,12.87-7.95s-2.13-10.16.8-15.1c2.76-4.67,9.77-2.74,12.7-7.68,3.09-5.21-2.13-10.16.8-15.1A9.25,9.25,0,0,1,651.79,2434.07Zm-14.38,115,6,3.58c4.66,2.76,2.57,10.05,7.51,13,5.21,3.09,10.33-2.41,15.27.52,1.92,1.14.42,8-2.16,16.15-2.62.67-4.81,1.23-7.28-.24-4.94-2.92-2.73-9.78-7.95-12.87-4.94-2.92-10.16,2.14-14.83-.63-4.93-2.93-3-9.94-7.94-12.87s-10.17,2.13-15.11-.79a9.27,9.27,0,0,1-3.24-12.68C609.51,2539.17,624.31,2544.24,637.41,2549Zm97.42,57.74a9.48,9.48,0,0,1,3.24,12.68,9.26,9.26,0,0,1-12.68,3.24c-4.94-2.93-2.73-9.78-7.94-12.87-4.94-2.93-10.17,2.13-14.83-.63-4.94-2.93-3-9.94-8-12.87s-10.16,2.13-15.1-.8c-3.57-2.11-3.26-6.38-5-9.65l7-11.8C689.16,2579.34,705.47,2589.38,734.83,2606.78ZM716,2534.07c4.39,2.6-7,30-12,44-7.39-2.54-14.91-5.5-20.5-7.34l6.35-10.7c2.93-4.94,10-2.57,13.14-7.78,2.93-4.94-2.4-10.33.36-15A9.47,9.47,0,0,1,716,2534.07Zm9.33-138.36a9.76,9.76,0,0,1,12.95-3.08c3.57,2.12,3.26,6.39,4.87,9.93q-6.35,10.71-15.13,25.52c-2.93,4.94-10.22,2.85-13.15,7.79s2.41,10.33-.52,15.26c-2.76,4.67-10.05,2.57-13,7.51-3.09,5.22,2.41,10.33-.52,15.27a9.26,9.26,0,0,1-12.68,3.24c-3.56-2.11,3-19.38,8-33.47C702.24,2434.68,711.62,2419.47,725.34,2395.71Zm14.43,132.05c3-4.5,10.05-2.57,13-7.51,3.09-5.22-2-10.44.8-15.11,2.93-4.94,9.78-2.73,12.87-7.94,2.93-4.94-2.41-10.33.63-14.83,2.33-4.56,8.28-5.85,12.68-3.24,3.29,1.95-2.8,19.11-8.25,33.3-5.65,8.9-15,24.1-29.18,48-2.77,4.66-10.06,2.57-13,7.51-3.09,5.21,2.4,10.32-.52,15.26-1.47,2.47-10.29-.16-20.76-3.77C713.63,2571.23,723.62,2555.64,739.77,2527.76Zm21.29-121.63a9.25,9.25,0,1,1-9.43,15.92c-1.92-1.14-.59-7.77,2.16-16.15C756.41,2405.23,758.6,2404.67,761.06,2406.13Zm42.43,66.69c2.77-4.67,9.78-2.73,12.71-7.67,3.09-5.22-2.14-10.17.79-15.11,1.47-2.47,10.29.17,20.48,3.61-5.59,8.19-15.3,23.94-31.73,51.65C803,2510,796,2508,793,2513c-3.1,5.21,2,10.44-.8,15.1-2.93,4.94-9.78,2.73-12.87,8-2.93,4.94,2.13,10.16-.63,14.83a9.27,9.27,0,0,1-12.68,3.24c-3.29-1.95,2.8-19.11,8.25-33.31C780,2511.9,789.34,2496.69,803.49,2472.82Zm-6.15-76c4.94,2.93,3,9.94,7.95,12.87s10.16-2.13,15.1.79c4.67,2.77,2.74,9.78,7.68,12.71,5.21,3.09,10.44-2,15.1.8,4.94,2.92,2.73,9.77,8,12.87,4.94,2.92,10.16-2.14,14.83.63,3.56,2.11,3.53,6.54,5.3,9.82l-7,11.8c-7.64-5.27-23.94-15.3-53.3-32.71-4.94-2.93-2.85-10.22-7.78-13.14s-10.33,2.4-15.27-.52a9.48,9.48,0,0,1-3.24-12.68A9.25,9.25,0,0,1,797.34,2396.86Zm65,65.58L855.68,2473c-2.92,4.94-9.77,2.73-12.86,7.95-2.93,4.94,2.13,10.16-.64,14.83a9.25,9.25,0,0,1-12.67,3.24c-4.12-2.44,7.28-29.8,12-44.05C849.2,2457.64,856.71,2460.61,862.3,2462.44Zm26.7-11.25a9.27,9.27,0,0,1,3.24,12.68,9.71,9.71,0,0,1-12.68,3.24c-2.19-1.3-.42-8,1.89-16.32C884.07,2450.12,886.53,2449.73,889,2451.19Z"/><path class="cls-1" d="M456.31,2406.72c1.73,1.41-.8,8-4.58,15.63-2.69.27-4.94.49-7.16-1.33a9.26,9.26,0,0,1-1.28-13A9.47,9.47,0,0,1,456.31,2406.72ZM518,2457.3a9.47,9.47,0,0,1,1.29,13,9.26,9.26,0,0,1-13,1.29c-4.44-3.65-1.22-10.08-5.91-13.93-4.44-3.64-10.37.57-14.56-2.87-4.44-3.64-1.47-10.28-5.91-13.92s-10.37.57-14.81-3.08c-3.2-2.63-2.26-6.8-3.51-10.3l8.7-10.61C477,2423.26,491.57,2435.65,518,2457.3Zm-7.59-74.73c3.94,3.24-11.47,28.56-18.56,41.72-6.93-3.62-13.9-7.69-19.15-10.35l7.89-9.61c3.65-4.44,10.33-1,14.17-5.71,3.65-4.44-.81-10.57,2.63-14.76A9.47,9.47,0,0,1,510.37,2382.57Zm24.44-2.63c3.69-4,10.33-1,14-5.46,3.85-4.69-.37-10.62,3.07-14.81,3.85-4.69,10.08-1.22,13.93-5.91,3.64-4.44-.57-10.37,2.87-14.56a9.25,9.25,0,0,1,13-1.28c2.71,2.22-10.6,23.48-21.13,40.84-6.93,7.94-16,19-28.17,33.83-3.44,4.19-10.33,1-14,5.46-3.85,4.68.81,10.57-2.83,15-1.82,2.22-10.14-1.72-19.94-6.87C502.39,2419,514.62,2405.05,534.81,2379.94Zm71.31-44.66c3.44-4.19,10.08-1.22,13.72-5.66,3.84-4.69-.57-10.37,3.07-14.81,1.82-2.22,10.14,1.72,19.7,6.67-6.77,7.24-18.75,21.34-39.19,46.25-3.44,4.19-10.08,1.22-13.72,5.66-3.84,4.69.37,10.62-3.07,14.81-3.64,4.44-10.08,1.22-13.93,5.91-3.64,4.44.57,10.37-2.87,14.56a9.25,9.25,0,0,1-13,1.28c-3-2.42,5.1-17.27,12.19-30.44C578,2369.11,589.93,2355,606.12,2335.28Zm26.14-59c4.19,3.44,1.22,10.08,5.66,13.73,4.68,3.84,10.61-.37,14.8,3.07,4.44,3.64,1.23,10.08,5.91,13.92,4.44,3.64,10.37-.57,14.56,2.87,3.21,2.63,2.51,7,3.76,10.51l-8.7,10.61c-6.75-6.36-21.34-18.75-47.73-40.4-3.95-3.24-4.57-9.53-1.53-13.22A9.54,9.54,0,0,1,632.26,2276.26Zm33.56,57.67-8.14,9.41c-3.64,4.44-10.08,1.22-13.92,5.91-3.64,4.44.57,10.37-2.87,14.56a9.25,9.25,0,0,1-13,1.28c-3.7-3,11.71-28.35,18.55-41.72C653.6,2327.2,660.57,2331.27,665.82,2333.93Zm28.34-6.88a9.26,9.26,0,0,1,1.28,13,9.48,9.48,0,0,1-13,1.29c-2-1.62.8-8,4.33-15.84C689.45,2325.25,691.94,2325.23,694.16,2327.05Z"/><path class="cls-1" d="M327.09,2265.78l4.69,5.22c3.62,4-.55,10.36,3.29,14.63,4.05,4.51,10.57.79,14.41,5.06a9.48,9.48,0,0,1-.7,13.07,9.25,9.25,0,0,1-13.06-.7c-3.84-4.27.31-10.15-3.74-14.65-3.84-4.27-10.12-.77-14-5s.1-10.38-3.74-14.66-10.34-1-14.17-5.27a9.25,9.25,0,0,1,.69-13.06C303.41,2248,316,2257.29,327.09,2265.78Zm48.08-105.41c7,7.83-84.1,98.75,24.32,1.29,4.27-3.84,10.6.34,14.87-3.5s.79-10.57,5.06-14.41a9.26,9.26,0,0,1,13.07.7c2.77,3.08-8.62,17.61-17.85,29.77-8.26,6.56-21.76,18.26-41.95,36.84-4.48,3.6-10.59-.34-14.87,3.5s-1,10.34-5.27,14.18-10.15-.32-14.42,3.52c-4.5,4-1,10.34-5.27,14.18-2.37,2.13-17.94-10.9-32.45-22.74a9.29,9.29,0,0,1,2.38-10.71c4.27-3.84,10.15.31,14.66-3.74,4.27-3.84,1-10.34,5-14,4.27-3.84,10.39.1,14.66-3.74s1-10.34,5.27-14.18c4-3.62,10.15.32,14.42-3.52,4.51-4,1-10.34,5.27-14.18A9.26,9.26,0,0,1,375.17,2160.37Zm11.7,132.31c1.71,1.9-1.76,7.59-6.67,15-2.7-.15-5.17-.5-7.09-2.64a9.25,9.25,0,0,1,13.76-12.37Zm39.2-2.2c4.27-3.84,1-10.34,5.27-14.18s10.15.32,14.42-3.52c4.51-4.05,1-10.34,5.27-14.18a9.26,9.26,0,0,1,13.07.7c2.55,2.85-8.62,17.61-17.83,29.32-8.28,7-21.78,18.72-42.18,37.06A9.26,9.26,0,0,1,391,2325c-2.77-3.08-1.41-7.3-1.89-11.17L411.2,2294C415.23,2290.35,421.8,2294.32,426.07,2290.48Zm30.74-144.74a9.77,9.77,0,0,1,13.28.93c2.77,3.09,1.21,7.07,1.68,10.94l-22.06,19.83c-4.28,3.84-10.6-.34-14.87,3.5s-.79,10.57-5.06,14.41c-4,3.63-10.36-.55-14.64,3.29-4.5,4.05-.78,10.57-5.05,14.41a9.27,9.27,0,0,1-13.07-.69c-2.77-3.09,8.62-17.62,17.61-29.56C423.13,2176,436.62,2164.32,456.81,2145.74Zm31.61,114.85c4.27-3.84,10.39.11,14.66-3.73s1-10.34,5.27-14.18c4-3.63,10.15.31,14.42-3.52,4.51-4.06,1-10.34,5.27-14.18,2.61-2.35,15,6.67,26.29,15.4l4.48,5a9.25,9.25,0,0,1-.7,13.06c-4.27,3.84-10.15-.31-14.65,3.74-4.28,3.84-.77,10.12-5,14s-10.39-.1-14.66,3.74-1,10.34-5.27,14.17-10.15-.31-14.42,3.53c-4.5,4-1,10.34-5.27,14.17a9.24,9.24,0,0,1-13.06-.69c-6.83-7.59,84.09-98.75-24.33-1.3-4.27,3.84-10.39-.1-14.66,3.74s-1,10.34-5.27,14.18a9.25,9.25,0,0,1-13.06-.7c-2.56-2.85,8.61-17.61,18.06-29.53C454.52,2290.64,468,2278.93,488.42,2260.59Zm-.63-94.23A9.25,9.25,0,1,1,474,2178.73c-1.49-1.66,1.76-7.58,6.89-14.76C483.62,2164.11,485.87,2164.23,487.79,2166.36Zm37.39,2c3.84,4.27-.1,10.38,3.74,14.65s10.34,1,14.18,5.27-.32,10.15,3.52,14.42c4,4.51,10.34,1,14.18,5.27a9.26,9.26,0,0,1-.7,13.07c-2.61,2.35-15-6.67-26.28-15.41l-4.48-5c-3.84-4.27.34-10.6-3.5-14.87s-10.58-.79-14.42-5.06a9.47,9.47,0,0,1,.7-13.06A9.25,9.25,0,0,1,525.18,2168.36Z"/><path class="cls-1" d="M151.43,1985.61l3.33,6.18c2.57,4.78-3,9.94-.27,15,2.87,5.34,10.09,3.27,12.81,8.33a9.48,9.48,0,0,1-3.77,12.53,9.25,9.25,0,0,1-12.53-3.77c-2.72-5.06,2.71-9.78-.16-15.12-2.72-5.06-9.66-3.14-12.38-8.2s2.56-10.06-.16-15.12-9.81-3.42-12.53-8.48a9.26,9.26,0,0,1,3.77-12.53C132.63,1962.76,142.69,1974.74,151.43,1985.61Zm71.66-91c5,9.27-105.07,76,23.33,7,5.06-2.72,10.22,2.84,15.27.12s3.27-10.09,8.33-12.81a9.25,9.25,0,0,1,12.53,3.77c2,3.65-12.54,15.07-24.39,24.7-9.57,4.42-25.46,12.6-49.47,25.87-5.21,2.44-10.21-2.83-15.27-.11s-3.42,9.8-8.48,12.52-9.78-2.71-14.84,0c-5.34,2.87-3.42,9.81-8.48,12.53-2.81,1.51-14.85-14.83-26.14-29.77a9.3,9.3,0,0,1,4.84-9.85c5.06-2.71,9.79,2.71,15.13-.16,5.05-2.72,3.42-9.81,8.19-12.37,5.06-2.72,10.07,2.55,15.13-.17s3.41-9.8,8.47-12.52c4.78-2.57,9.79,2.7,14.84,0,5.34-2.87,3.42-9.8,8.48-12.52A9.25,9.25,0,0,1,223.09,1894.57Zm-19.94,131.32c1.21,2.25-3.5,7-10,13-2.59-.78-4.9-1.71-6.26-4.24a9.25,9.25,0,1,1,16.29-8.76Zm38.61,7.13c5.06-2.72,3.42-9.8,8.47-12.52s9.79,2.7,14.85,0c5.34-2.87,3.42-9.81,8.47-12.53a9.25,9.25,0,0,1,12.53,3.77c1.82,3.37-12.54,15.07-24.25,24.26-9.71,4.86-25.59,13-49.75,26a9.25,9.25,0,0,1-12.53-3.77c-2-3.65.35-7.43.8-11.3l26.13-14C231.26,2030.34,236.7,2035.74,241.76,2033Zm64.12-133.35a9.77,9.77,0,0,1,12.68,4c2,3.65-.5,7.15-1,11l-26.13,14c-5.06,2.72-10.22-2.84-15.27-.12s-3.27,10.09-8.33,12.81c-4.78,2.56-9.94-3-15-.27-5.34,2.87-3.27,10.09-8.33,12.8a9.26,9.26,0,0,1-12.53-3.76c-2-3.65,12.54-15.08,24.11-24.55C266,1921.12,281.87,1913,305.88,1899.67Zm3.53,119.07c5.06-2.72,10.07,2.56,15.13-.16s3.42-9.81,8.47-12.53c4.78-2.57,9.79,2.71,14.85,0,5.33-2.87,3.42-9.81,8.47-12.53,3.09-1.66,13,10,21.9,21.19l3.17,5.9a9.25,9.25,0,0,1-3.77,12.53c-5.05,2.72-9.78-2.71-15.12.16-5.06,2.72-3.14,9.66-8.2,12.38s-10.06-2.56-15.12.16-3.42,9.81-8.48,12.53-9.78-2.71-14.84,0c-5.34,2.87-3.42,9.8-8.48,12.52a9.26,9.26,0,0,1-12.53-3.76c-4.83-9,105.07-76.05-23.33-7-5,2.72-10.06-2.55-15.12.17s-3.42,9.8-8.48,12.52a9.24,9.24,0,0,1-12.52-3.77c-1.82-3.37,12.54-15.07,24.53-24.42C269.37,2039.91,285.25,2031.73,309.41,2018.74ZM331.1,1927a9.25,9.25,0,0,1-16.3,8.76c-1.06-2,3.5-7,10.18-12.72C327.58,1923.86,329.74,1924.51,331.1,1927ZM367,1937.82c2.72,5.06-2.55,10.07.17,15.13s9.8,3.42,12.52,8.47-2.7,9.79,0,14.85c2.87,5.33,9.8,3.42,12.52,8.47a9.25,9.25,0,0,1-3.77,12.53c-3.09,1.66-13-10-21.89-21.19l-3.17-5.9c-2.72-5,2.83-10.21.11-15.27s-10.08-3.27-12.8-8.33a9.47,9.47,0,0,1,3.77-12.53A9.26,9.26,0,0,1,367,1937.82Z"/><path class="cls-1" d="M39.4,1660.76c.65,2.13-5.1,6.23-12.48,10.48-2.39-1.27-4.38-2.33-5.22-5.08a9.25,9.25,0,0,1,17.7-5.4Zm5.12,16.78c2.8,9.15,6.25,20.44,10.44,34.17a9.25,9.25,0,1,1-17.7,5.4c-1.67-5.49,4.57-9.06,2.9-14.56-1.77-5.79-8.95-5.27-10.63-10.76-1.3-4.27,1.8-7.22,2.7-10.83Zm26,85.12c.65,2.14-5.1,6.23-12.48,10.48-2.39-1.27-4.38-2.33-5.22-5.07A9.26,9.26,0,0,1,59,1756.52,9.47,9.47,0,0,1,70.52,1762.66Zm27.35-91.74a9.26,9.26,0,0,1-6.14,11.55c-5.19,1.58-9.07-4.57-14.56-2.89-5.8,1.77-5.28,9-10.77,10.62-2.44.75-7.3-6.44-12.42-15.55l7-2.14c5.19-1.59,9.07,4.57,14.46,2.58,5.28-1.27,4.76-8.45,10.25-10.13C90.59,1663.47,96.38,1666,97.87,1670.92Zm-4.06,168a9.47,9.47,0,0,1-6.15,11.55,9.25,9.25,0,0,1-11.54-6.15c-1.68-5.49,4.56-9.07,2.79-14.86-1.67-5.5-8.85-5-10.53-10.46s4.48-9.38,2.8-14.87-9-5.27-10.62-10.76c-1.22-4,1.89-6.92,2.79-10.53l13.11-4C78.56,1787.89,83.84,1806.29,93.81,1838.94Zm41.26-47.29,1.65,6.5a9.26,9.26,0,0,1-6.14,11.55c-5.19,1.58-9.16-4.88-14.65-3.2-5.8,1.77-5.18,9.25-10.68,10.93-4.88,1.49-17.88-26.89-25.12-39.69L92,1774.11c5.5-1.68,9.16,4.87,15,3.1,5.49-1.68,5.18-9.25,10.37-10.84C120.7,1765.35,128.23,1779.06,135.07,1791.65ZM181.88,1673a9.25,9.25,0,0,1-6.15,11.55c-5.49,1.68-9.06-4.57-14.55-2.89-5.8,1.77-5.28,9-10.77,10.62s-9.07-4.57-14.86-2.8c-5.49,1.68-5,8.86-10.46,10.54a9.26,9.26,0,0,1-11.55-6.15c-1.4-4.58.35-9.78,5.23-11.27,5.49-1.68,9.86,5,15.57,2.92,5.89-1.47,5.48-9.35,10.67-10.93,5.49-1.68,9.16,4.87,15,3.1,5.5-1.68,5.18-9.25,10.37-10.84A9.26,9.26,0,0,1,181.88,1673Zm21.64,69.78,1.65,6.5c1.19,5-1.26,10-6.14,11.55-5.49,1.67-9.07-4.57-14.56-2.9-5.8,1.77-5.27,8.95-10.77,10.63s-9.06-4.57-14.86-2.8c-5.49,1.68-5,8.85-10.46,10.53-4.27,1.31-10.79-12.38-17.63-25l-1.65-6.5c-1.19-5,1.26-10.06,6.14-11.55,5.19-1.58,9.07,4.57,14.56,2.9,5.8-1.78,5.58-9,10.77-10.63,5.49-1.68,9.06,4.57,14.86,2.8,5.49-1.68,5.27-9,10.46-10.53C189.25,1716.73,196.68,1730.14,203.52,1742.73Zm17.31,57.75c1.39,4.58-.35,9.78-5.24,11.27-5.49,1.68-9.46-4.78-15.56-2.92-5.8,1.78-5.49,9.35-10.67,10.94-5.5,1.67-9.07-4.57-14.87-2.8-5.49,1.67-5.27,8.94-10.46,10.53a9.25,9.25,0,1,1-5.4-17.7c5.19-1.58,9.07,4.57,14.56,2.9,5.79-1.78,5.58-9,10.76-10.63,5.49-1.68,9.07,4.57,14.87,2.8,5.49-1.68,5.27-8.95,10.46-10.53A9.26,9.26,0,0,1,220.83,1800.48ZM266,1675.29c1.68,5.49-4.57,9.06-2.89,14.56,1.77,5.79,9,5.27,10.62,10.76a9.25,9.25,0,0,1-6.14,11.55c-5.19,1.58-9.07-4.57-14.56-2.89-5.8,1.77-5.58,9-10.76,10.62-5.5,1.68-9.07-4.57-14.87-2.8-5.49,1.68-5.27,9-10.46,10.54-3.35,1-10.78-12.39-17.63-25l-1.65-6.5c-1.19-5,1.26-10.06,6.15-11.55,5.49-1.68,9.06,4.57,14.55,2.89,5.8-1.77,5.28-9,10.77-10.63s9.07,4.57,14.86,2.8c5.49-1.67,5.18-9.25,10.37-10.83A9.75,9.75,0,0,1,266,1675.29ZM280.47,1820l-7.11,1.84c-5.18,1.58-9-4.27-14.46-2.59-5.19,1.58-4.76,8.46-10.25,10.13-4.88,1.49-10.67-1.08-12.16-6a9.26,9.26,0,0,1,6.15-11.55c5.18-1.58,9.16,4.88,14.65,3.2,5.8-1.77,5.18-9.25,10.67-10.93C270.4,1803.36,275.36,1810.85,280.47,1820Zm16.63-42.77c1.68,5.49-4.57,9.07-2.8,14.86,1.68,5.5,8.86,5,10.53,10.46,1.31,4.27-1.79,7.22-2.69,10.83l-12.21,3.73c-2.79-9.15-6.24-20.44-10.53-34.48a9.47,9.47,0,0,1,6.15-11.55A9.26,9.26,0,0,1,297.1,1777.19Zm15.56,51a9.25,9.25,0,0,1-6.15,11.55,9.71,9.71,0,0,1-11.55-6.14c-.74-2.45,5.11-6.23,12.39-10.79C309.74,1824,311.82,1825.4,312.66,1828.14Z"/><path class="cls-1" d="M18.29,1380.24c.53,8.59,1.14,18.46,1.85,29.92.34,5.42-6.87,7.78-6.51,13.51.37,6,7.79,7.19,8.15,12.92a9.48,9.48,0,0,1-8.66,9.81,9.27,9.27,0,0,1-9.81-8.67C3,1432,9.86,1430,9.49,1423.93c-.36-5.73-7.48-7.21-7.81-12.62-.36-5.73,6.53-8.08,6.17-13.81S.37,1390.29,0,1384.56a9.24,9.24,0,0,1,8.66-9.8C12.82,1374.5,15,1378.2,18.29,1380.24Zm53.05-.1a9.27,9.27,0,0,1-8.66,9.81c-5.42.33-7.76-6.55-13.49-6.2-6,.38-7.19,7.8-12.94,7.84-1.89.43-3.92-6.47-6.4-15.59,1.51-1.37,3-2.74,5.26-2.88,5.73-.36,7.77,6.87,13.82,6.49,5.73-.35,7.19-7.79,12.6-8.13A9.48,9.48,0,0,1,71.34,1380.14Zm-21.5,81.24c.16,2.55-6.09,4.85-14.55,7.61-2-1.79-3.74-3.6-3.91-6.47a9.25,9.25,0,1,1,18.46-1.14ZM81.93,1484c5.73-.35,7.21-7.48,12.94-7.83,5.41-.34,7.75,6.55,13.48,6.19,6.05-.37,7.21-7.47,12.94-7.83a9.26,9.26,0,0,1,9.81,8.66c.23,3.82-17.7,8.45-32.18,11.9-10.85.36-28.7,1.14-56.08,2.84a9.27,9.27,0,0,1-9.81-8.66c-.25-4.14,3.43-6.61,5.46-9.93,8.28-.51,18.17-.81,29.61-1.83C73.83,1477.15,76.2,1484.36,81.93,1484Zm67.43,15.32c5.73-.36,8.07,6.53,13.8,6.17s7.21-7.47,12.94-7.83c5.41-.33,7.76,6.55,13.49,6.2,6-.38,7.21-7.48,12.94-7.84,3.5-.21,7.61,14.55,11,28.41l.41,6.68a9.26,9.26,0,0,1-8.66,9.81c-5.73.35-7.76-6.55-13.81-6.18-5.73.36-7.2,7.48-12.62,7.81-5.73.36-8.07-6.53-13.8-6.17s-7.21,7.48-12.94,7.83c-5.41.34-7.76-6.55-13.49-6.19-6.05.37-7.21,7.47-12.94,7.83a9.26,9.26,0,0,1-9.8-8.66c-.63-10.19,127.24-25.15-18.26-16.13-5.73.36-8.08-6.53-13.81-6.18s-7.21,7.48-12.94,7.84a9.26,9.26,0,0,1-9.8-8.66c-.24-3.82,17.69-8.45,32.5-11.93C104.13,1501.8,122,1501,149.36,1499.32Zm2.35-127c-.12,3.2.12,7,.41,11.8-4.41.91-8.49,2.12-12.27,3-1.54-4.06-7.09-5.95-7.38-10.72a9.26,9.26,0,0,1,8.66-9.81C145.59,1366.27,148.09,1370.59,151.71,1372.29Zm.59,19.78c.59,9.55,1,21.67,2.25,36.29a9.76,9.76,0,0,1-9,9.83,9.48,9.48,0,0,1-9.81-8.66c-.35-5.73,6.87-7.78,6.5-13.83-.36-5.73-7.8-7.19-8.13-12.6-.28-4.46,4-7,5.73-10.58C143.38,1392.62,147.52,1392.36,152.3,1392.07Zm25.38-18.52c.18,2.87-8.28,5.63-18,8.47l-2.53-9.75c4.06-1.53,6-7.08,10.73-7.38A9.27,9.27,0,0,1,177.68,1373.55Zm32.08,22.63c5.74-.36,7.19-7.8,12.62-7.82,5.08-.63,9.49,3.57,9.81,8.66.26,4.14-3.74,6.63-5.44,10.25-10.84.35-28.69,1.14-56.07,2.83-2.87.18-5.63-8.28-8.49-18.33,8.91-.55,20.4-.94,33.75-2.09C201.69,1389.64,203.71,1396.55,209.76,1396.18Zm24.07,27.27c.25,4.14-3.43,6.6-5.14,9.91-8.3.19-18.17.8-29.95,1.53a9.26,9.26,0,0,1-9.81-8.66c-.27-4.46,22.44-9.38,37.52-13.51C228.32,1417.08,233.53,1418.67,233.83,1423.45Zm1.63,26.43c.36,5.73-6.53,8.07-6.17,13.8s7.48,7.21,7.83,12.94c.34,5.41-6.55,7.76-6.19,13.49.37,6.05,7.47,7.21,7.83,12.94a9.25,9.25,0,0,1-8.66,9.8c-3.5.22-7.61-14.55-11-28.4l-.41-6.68c-.36-5.74,6.84-8.1,6.49-13.83s-7.8-7.19-8.15-12.92c-.14-2.23,6.41-4.87,14.57-7.29C233.6,1445.52,235.31,1447.33,235.46,1449.88Z"/><path class="cls-1" d="M28,1259.94a9.45,9.45,0,0,1-10.34,8,9.25,9.25,0,0,1-8-10.34c.72-5.7,7.88-6.39,8.65-12.41.72-5.69-6-8.16-5.31-13.86s7.92-6.71,8.65-12.4-6-8.48-5.28-14.18c.53-4.11,4.56-5.53,6.86-8.45L36.86,1198C35.06,1207.13,32.33,1226.08,28,1259.94ZM42.31,1147.6l-.89,7c-.68,5.38-8.2,6.36-8.93,12-.76,6,6.32,8.52,5.59,14.22-.28,2.21-7.2,3.58-15.67,4.44-1.66-2.14-3-3.92-2.68-6.77.72-5.7,7.89-6.4,8.65-12.41.72-5.7-6-8.16-5.31-13.86s7.92-6.71,8.65-12.4-6-8.48-5.28-14.18a9.26,9.26,0,0,1,10.35-8C40.27,1118.08,41.5,1133.67,42.31,1147.6Zm45,66.17c-.33,5.1-30.28,5.48-45.2,6.48-.62-7.8-.88-15.87-1.42-21.73L53,1200.09c5.7.72,6.35,8.2,12.37,9,5.69.72,8.52-6.32,13.9-5.63C84.33,1204.07,88.2,1209.06,87.28,1213.77Zm15.19,19.62c2.49.63,4,9.18,4.59,19.55l-33.54-4.26c-5.38-.69-6.36-8.21-12-8.93-6-.76-8.52,6.31-14.22,5.59-2.85-.36-3.94-9.5-4.78-20.54C52.2,1226.68,70.47,1229.64,102.47,1233.39Zm-1.8-125c-.29,4.79-28,5.44-43.58,6.36,0-4.83,0-10-.36-14.84a9.29,9.29,0,0,1,9.66-5.2c5.7.72,6.39,7.89,12.41,8.65,5.69.72,8.48-6,13.86-5.31A9.26,9.26,0,0,1,100.67,1108.39Zm15.23,19.3a9.7,9.7,0,0,1,8,10.34,9.24,9.24,0,0,1-10.34,8c-5.7-.72-6.71-7.92-12.41-8.65s-8.48,6-14.17,5.28-6.4-7.89-12.09-8.61c-6-.77-8.48,6-14.18,5.27-1.94.07-3.07-8.75-3.24-20C67.52,1121.22,85.84,1123.87,115.9,1127.69Zm-7.57,145.67c-4.32,1.06-6.86,5.88-11.61,5.28a9.27,9.27,0,0,1-8-10.35c0-2.57,8.87-4,19.28-4.94Zm69.84-3c5.38.68,6.39,7.88,12.09,8.61,6,.76,8.48-6,14.17-5.28,2.85.36,3.94,9.51,4.83,20.23-9.73-1.88-28-4.53-60-8.59-5.38-.68-6.39-7.88-12.09-8.61-6-.76-8.79,6-14.17,5.27-4.43-.56-5.77-5.23-9-7.57.4-3.17.89-7,1.77-11.35l6.8-.42C133,1264.27,150.64,1266.84,178.17,1270.34ZM162.93,1251c-.16,3.83-18.64,5-33.84,5.66-3.48-.44-7.24-1.24-12.3-1.88.72-5.7,1.8-11.67,2.73-19,9.49,1.21,21.16,3,35.44,4.51C160,1241.34,163.89,1246,162.93,1251Zm-15.1-86.17c-1.68,10.72-4.25,28.4-7.7,55.61-.37,2.85-8.88,4-19.28,5l.92-7.28c.68-5.38,7.89-6.39,8.61-12.09.77-6-6-8.79-5.27-14.17.72-5.7,7.88-6.4,8.65-12.41.72-5.7-6-8.48-5.31-13.86a9.54,9.54,0,0,1,10.38-8.33C143.22,1158.17,144.6,1162.53,147.83,1164.87Zm49.28,29.73-.84,6.65a9.26,9.26,0,0,1-10.34,8c-5.7-.72-6.71-7.93-12.41-8.65s-8.48,6-14.18,5.27c-4.11-.52-5-23.79-5.93-39.34,4.31-1.06,6.9-6.2,11.6-5.28,5.74.41,6.71,7.93,12.41,8.65s8.52-6.31,14.22-5.59C195.08,1165.08,196.35,1180.36,197.11,1194.6Zm13.95,125.58-12.3-1.89c-5.69-.72-6.39-7.88-12.4-8.65-5.7-.72-8.17,6-13.86,5.31a9.24,9.24,0,0,1-8-10.34c.6-4.74,30.24-5.16,45.19-6.47C210.26,1306.25,210.52,1314.32,211.06,1320.18Zm44.41-164.79c-.72,5.7-7.92,6.71-8.65,12.41s6,8.48,5.28,14.17a9.27,9.27,0,0,1-10.35,8c-5.38-.69-6.35-8.21-12.05-8.93-6-.77-8.51,6.31-14.21,5.59-3.48-.44-4.72-16-5.48-30.28l.85-6.65a9.26,9.26,0,0,1,10.34-8c5.69.73,6.35,8.2,12.36,9,5.7.72,8.52-6.31,13.9-5.63A9.24,9.24,0,0,1,255.47,1155.39ZM232,1340.52a9.26,9.26,0,0,1-10.34,8,9.71,9.71,0,0,1-8-10.35c.32-2.53,7.21-3.58,15.72-4.75C231,1335.57,232.32,1337.67,232,1340.52Zm10.1-79.43c-.73,5.69-7.89,6.39-8.61,12.09-.77,6,6,8.48,5.27,14.17s-7.89,6.4-8.65,12.41c-.73,5.69,6,8.16,5.31,13.86-.56,4.43-4.6,5.84-6.9,8.77l-13.61-1.73c1.8-9.1,4.53-28,8.83-61.9.65-5.07,5.64-8.94,10.39-8.33A9.75,9.75,0,0,1,242.05,1261.09Z"/><path class="cls-1" d="M79.13,1001.36a9.47,9.47,0,0,1-11.44,6.34,9.26,9.26,0,0,1-6.35-11.44c1.59-5.52,8.77-5.12,10.45-10.94,1.58-5.52-4.64-9.3-3.14-14.51,1.58-5.52,8.85-5.42,10.44-10.94s-4.64-9.3-3-14.82c1.14-4,5.35-4.77,8.07-7.31l13.18,3.79C94.13,950.24,88.54,968.55,79.13,1001.36Zm22-76.65c-.61,2.14-7.67,2.44-16.17,2-1.31-2.36-2.4-4.34-1.61-7.1a9.27,9.27,0,0,1,11.44-6.34A9.47,9.47,0,0,1,101.12,924.71Zm55.71,61.45c5.13,1.8,5,9.07,10.55,10.66,5.83,1.67,9.6-4.55,14.82-3.05,5.82,1.67,5.11,8.77,10.94,10.44,5.52,1.58,9.29-4.64,14.51-3.14a9.26,9.26,0,0,1,6.34,11.44c-1,3.38-25.77-.42-45.88-3.2-10-3.21-23.82-7.17-42.22-12.45-5.22-1.5-5-9.08-10.55-10.66-5.83-1.67-9.38,4.94-14.9,3.36-2.76-.8-2.45-10-1.6-21C108.17,971.86,125.78,977.58,156.83,986.16Zm-12.11-21.4c-1.41,4.91-30.76.8-45.66-.49.58-7.8,1.56-15.81,1.91-21.69l12,3.44c5.52,1.58,5,9.07,10.86,10.74,5.52,1.59,9.38-4.94,14.59-3.44A9.46,9.46,0,0,1,144.72,964.76Zm81.38,69.15c5.21,1.5,5.12,8.77,10.64,10.35,5.82,1.67,9.29-4.63,14.81-3,2.76.79,2.44,10,1.69,20.73-9.33-3.34-27-8.75-58-17.64-5.21-1.49-5.12-8.77-10.63-10.35-5.83-1.67-9.61,4.55-14.82,3-5.52-1.58-5.12-8.77-10.94-10.44-5.52-1.58-9.3,4.63-14.51,3.14a9.26,9.26,0,0,1-6.34-11.44c1.06-3.68,17.88-2.18,32.78-.89C183.87,1021.46,201.57,1026.87,226.1,1033.91ZM251,1088.18l-11.87-3.73c-5.52-1.59-5.12-8.77-11-10.44-5.52-1.59-9.29,4.63-14.5,3.13a9.26,9.26,0,0,1-6.35-11.44c1.32-4.6,30.68-.49,45.66.49C252.35,1074.3,251.37,1082.31,251,1088.18Zm17.54,23.29a9.25,9.25,0,0,1-11.44,6.34,9.46,9.46,0,0,1-6.34-11.44c.7-2.45,7.67-2.45,16.26-2.3C268.35,1106.43,269.35,1108.71,268.56,1111.47Zm22.08-77c-1.49,5.21-8.77,5.12-10.35,10.64-1.67,5.82,4.55,9.6,3,14.81-1.58,5.52-8.77,5.12-10.44,10.94-1.58,5.52,4.63,9.3,3.14,14.51-1.15,4-5.44,5.08-8.16,7.61l-13.18-3.78c3.16-8.72,8.75-27,18.16-59.83,1.41-4.91,6.93-8,11.53-6.65A9.53,9.53,0,0,1,290.64,1034.51Z"/><path class="cls-1" d="M132.2,852.85a9.45,9.45,0,0,1-12.27,4.52,9.25,9.25,0,0,1-4.52-12.28c2.41-5.21,9.45-3.71,12-9.22,2.41-5.21-3.16-9.89-.89-14.81,2.41-5.21,9.59-4,12-9.22s-3.16-9.89-.75-15.11c1.74-3.76,6-3.89,9.1-6l12.45,5.76C154.84,804.63,146.52,821.87,132.2,852.85Zm47.5-102.8-2.94,6.37c-2.27,4.93-9.74,3.59-12.15,8.8-2.54,5.5,3.45,10,1,15.24-.93,2-8,1.24-16.28-.5-.94-2.54-1.72-4.66-.51-7.26,2.41-5.21,9.45-3.72,12-9.22,2.41-5.21-3.16-9.89-.89-14.82,2.41-5.21,9.59-4,12-9.22s-3.15-9.89-.75-15.1a9.26,9.26,0,0,1,12.28-4.52C186.67,721.29,183.14,736.53,179.7,750.05Zm31.62,99.65c4.79,2.57,3.58,9.74,8.8,12.15,5.5,2.54,10.18-3,15.1-.75,5.21,2.41,3.72,9.45,9.22,12,5.21,2.41,10-3.45,14.82-.89,4.76,1.86,6.66,7.65,4.51,12.28-1.6,3.48-19.29-.83-34-4.8-9.42-4.71-25.51-12.49-50.7-24.13-4.92-2.28-3.58-9.74-8.79-12.15-5.51-2.54-10,3.45-15.24,1-2.61-1.2-.89-10.25,1.63-21C165.41,828.14,181.94,836.48,211.32,849.7Zm-8.7-23c-2.14,4.63-30.52-3.92-45.05-7.47,1.77-7.61,4-15.39,5.2-21.14l11.3,5.22c5.21,2.41,3.58,9.74,9.08,12.28,5.21,2.41,10-3.45,14.95-1.17A9.47,9.47,0,0,1,202.62,826.71Zm69.86,80.77c4.92,2.27,3.71,9.45,8.93,11.86,5.5,2.54,9.89-3.16,15.1-.76,2.61,1.21.89,10.25-1.5,20.75-8.71-4.73-25.37-12.78-54.62-26.3-4.92-2.27-3.72-9.44-8.93-11.85-5.5-2.54-10.18,3-15.1.75-5.22-2.41-3.72-9.45-9.22-12-5.22-2.41-9.9,3.16-14.82.88a9.26,9.26,0,0,1-4.52-12.28c1.61-3.47,19.3.84,34,4.81C231.2,888.06,247.28,895.84,272.48,907.48Zm23.06-154.86c-4.42,9.56-123.93-38.29,8.41,22.86,5.21,2.41,3.87,9.88,9.08,12.28s10-3.45,15.24-1A9.26,9.26,0,0,1,332.79,799c-1.74,3.77-19.58-1-34.4-4.65-9.29-5-25.37-12.77-50.41-24-5.08-2.7-3.87-9.87-9.08-12.28s-10,3.45-15.11.75c-5-2-3.71-9.45-8.93-11.86-5.5-2.54-9.89,3.16-15.1.75-2.9-1.34,2.92-20.78,8.08-38.78a9.29,9.29,0,0,1,10.78-2.05c5.22,2.41,3.72,9.45,9.22,12,5.21,2.41,9.9-3.16,14.82-.88,5.21,2.41,4,9.58,9.22,12s9.89-3.16,15.1-.75c4.93,2.27,3.72,9.44,8.93,11.85,5.5,2.55,9.9-3.16,15.11-.75A9.27,9.27,0,0,1,295.54,752.62Zm-6.73,212.3-11.17-5.51c-5.21-2.4-3.71-9.44-9.21-12-5.22-2.4-9.9,3.16-14.82.89A9.27,9.27,0,0,1,249.09,936c2-4.34,30.39,4.2,45,7.46C292.24,951.4,290.06,959.18,288.81,964.92ZM341.2,821.86a9.76,9.76,0,0,1,4.39,12.57c-1.74,3.77-6,3.9-9.39,5.86l-26.93-12.45c-5.21-2.41-3.87-9.87-9.08-12.28s-10,3.45-15.24,1c-4.93-2.27-3.59-9.73-8.8-12.14-5.5-2.54-10,3.45-15.24,1a9.27,9.27,0,0,1-4.52-12.28c1.74-3.76,19.59,1,34.11,4.52C300.08,802.86,316.16,810.65,341.2,821.86ZM302.72,990.33a9.27,9.27,0,0,1-12.28,4.52,9.72,9.72,0,0,1-4.52-12.28c1.07-2.32,8-1.25,16.42.21C303.28,985.32,303.92,987.72,302.72,990.33Zm44.69-96.72c-2.41,5.21-9.58,4-12,9.22s3.16,9.89.75,15.1c-2.27,4.93-9.45,3.72-11.86,8.93-2.54,5.5,3,10.19.75,15.11-2.4,5.21-9.44,3.71-12,9.22-2.4,5.21,3.16,9.89.89,14.81-1.74,3.77-6.15,4.19-9.23,6.28l-12.45-5.75c4.46-8.13,12.78-25.37,27.09-56.36,2.41-5.21,9.88-3.87,12.28-9.08s-3.44-10-1-15.24a9.46,9.46,0,0,1,12.28-4.52A9.25,9.25,0,0,1,347.41,893.61Zm-12.93-35.14a9.25,9.25,0,0,1-16.8-7.76c.94-2,7.67-1.38,16.29.49C334.91,853.74,335.68,855.86,334.48,858.47Z"/><path class="cls-1" d="M355.44,579a9.46,9.46,0,0,1-13,1.48c-4.24-3.38-1.17-10.31-5.66-13.89-4.75-3.77-10.56,1-15.06-2.6a9.26,9.26,0,0,1-1.47-13c2.58-3.24,7-2.61,10.7-3.71,6.49,5.16,14,11.57,23.21,18.47A9.54,9.54,0,0,1,355.44,579Zm12.4-100.61-4.17,5.24c-3.38,4.24-10.31,1.17-13.88,5.66-3.78,4.75,1,10.56-2.61,15.06a9.47,9.47,0,0,1-13,1.47,9.26,9.26,0,0,1-1.47-13c3.57-4.49,10.06-1.37,13.83-6.11,3.58-4.49-.72-10.36,2.65-14.6,3.58-4.5,10.26-1.62,13.84-6.11s-.72-10.37,2.85-14.86a9.26,9.26,0,0,1,13-1.47C381.63,451.82,374.59,465.79,367.84,478.36Zm-16.43,63.16c-1.59,2-7.77-.48-15.9-4.1-.31-2.69-.36-5.18,1.42-7.42a9.25,9.25,0,0,1,14.48,11.52Zm2.68,77.56c-2.69.31-5.18.36-7.17-1.23a9.25,9.25,0,1,1,11.52-14.47C360.19,604.77,358,611.15,354.09,619.08Zm45.78,17.27a9.25,9.25,0,1,1-11.52,14.48c-4.25-3.38-1.37-10.06-5.86-13.64-4.75-3.77-10.61.53-14.86-2.85-3.24-2.58-2.61-7-3.71-10.7l8.19-9.79C379.4,620.06,388.64,627.41,399.87,636.35Zm30.42-65.88c-3.57,4.49-10.06,1.37-13.83,6.11-3.58,4.49.72,10.36-2.65,14.6-3.58,4.5-10.26,1.62-13.84,6.12s.73,10.36-2.85,14.85c-1.59,2-9.67-1.17-18.85-6l4.37-5.49c3.58-4.5,10.26-1.62,13.84-6.12s-.73-10.36,2.85-14.85c3.38-4.24,10.06-1.37,13.64-5.86,3.77-4.74-.73-10.36,2.85-14.85,1.59-2,9.67,1.17,19,5.78Zm11-71.17c4.24,3.38,1.17,10.31,5.66,13.88,4.74,3.78,10.56-1,15.05,2.61,3.5,2.78,2.21,7.46,3.77,11.15-2,2.49-4.37,5.49-7.6,9l-6-3.17c-7.84-7.06-21.62-18.43-43.53-35.46-4-3.63-1.17-10.31-5.66-13.89-4.75-3.77-10.36.73-14.86-2.85-2.44-1.54,1.57-10.17,6.38-19.79C401.79,467.46,416.07,479.23,441.28,499.3Zm-22.2,210.24-5.54-4.82c-4.49-3.58-1.37-10.06-6.11-13.83-4.49-3.58-10.36.72-14.6-2.66a9.25,9.25,0,0,1-1.48-13,9.47,9.47,0,0,1,13-1.47c4.24,3.37,1.17,10.31,5.66,13.88,4.74,3.78,10.56-1,15.05,2.6C427.06,691.83,423.69,700.16,419.08,709.54Zm19.2-234.65c-3.18,4-28.73-11-42-17.93l2.62-4.83,4.18-5.25a9.25,9.25,0,0,1,13-1.47c4.5,3.57,1.37,10.06,6.12,13.83,4.49,3.58,10.36-.72,14.6,2.66A9.25,9.25,0,0,1,438.28,474.89Zm14.91,67.32c-3.57,4.5-7.8,9.29-12.17,14.78l-27.95-22.25c-4-3.18-4.91-9.2-1.48-13,2.33-3.44,18.55,5.39,32.07,12.48C446.2,536.65,449.2,539,453.19,542.21ZM430.57,740.7a9.26,9.26,0,0,1-13,1.47,9.69,9.69,0,0,1-1.48-13c1.59-2,8,.67,15.9,4.09C432.3,736,432.36,738.45,430.57,740.7ZM463.74,699c-3.57,4.49-10.06,1.37-13.83,6.11-3.58,4.49.72,10.36-2.65,14.6-2.59,3.25-7,2.61-10.46,3.91l-10-7.94,22.45-28.21a9.47,9.47,0,0,1,13-1.47A9.26,9.26,0,0,1,463.74,699Zm29.11-115.46c4.74,3.78,10.56-1,14.85,2.86,2.45,1.53-1.57,10.16-6.37,19.79-7.34-6.66-21.62-18.43-46.83-38.49-2-1.59,1.37-9.92,6.23-19.1,7,5.56,15.52,12.77,26.46,21.06C491.23,573.3,488.36,580,492.85,583.56Zm-3.42,45.8-9.74-7.75c-4.49-3.58-1.37-10.06-6.11-13.84-4.49-3.57-10.36.73-14.6-2.65a9.25,9.25,0,0,1-1.48-13c3.18-4,28.72,11,42,17.93C496,617,491.81,624.32,489.43,629.36Zm-5.24-84.09c-1.79,2.25-9.67-1.17-19.05-5.78l4.91-8.73c4,1.59,8.91-1.46,12.66,1.52A9.26,9.26,0,0,1,484.19,545.27Zm12.73,112.06a9.25,9.25,0,0,1-13,1.48,9.47,9.47,0,0,1-1.48-13c1.39-1.74,8,.68,15.71,4.35C498.45,652.85,498.51,655.34,496.92,657.33Zm49.66-62.39c-3.57,4.49-10.26,1.62-13.83,6.11s.72,10.36-2.85,14.85c-3.38,4.25-10.06,1.37-13.64,5.87-3.77,4.74.72,10.36-2.85,14.85-2.58,3.24-7,2.61-10.45,3.91-3-2.83-6.79-5.81-10.54-8.79,6.26-6.84,18.43-21.62,39.69-48.32a9.46,9.46,0,0,1,13-1.48A9.26,9.26,0,0,1,546.58,594.94Z"/><path class="cls-1" d="M516.14,337.61c-7.4,5.58-22.07,17.88-47.85,40.25a9.47,9.47,0,0,1-13.05-.93,9.26,9.26,0,0,1,.92-13.05c4.34-3.76,10.39.29,14.72-3.48s1.19-10.32,5.52-14.08,10.15.5,14.48-3.27c4.58-4,1.19-10.32,5.52-14.08,3.38-2.93,7.33-1.29,11-1.93C509.87,330.38,513,334,516.14,337.61Zm25.58,69.88c3.55,4.1-.74,10.35,3,14.69,4,4.58,10.77,1.21,14.33,5.31,3.76,4.34-.74,10.35,3.23,14.93,3.77,4.34,10.56,1,14.12,5.07,3.34,3.86,2.9,10.16-.93,13.05-2.44,2.54-21.61-14.2-36.94-27.5-6.66-8.16-15.83-19.21-28.61-33.46-3.31-4.3.73-10.35-3-14.69-4-4.57-10.56-1-14.08-5.52-2.12-2,3.4-9.71,9.89-18.29C508.72,369,520.6,383.15,541.72,407.49ZM543.23,383c-3.65,3.58-26.22-16.11-38-25.31,4.73-6.22,10.16-12.62,13.42-17.14l8.16,9.4c3.76,4.33-.5,10.14,3.47,14.72,3.77,4.33,10.32,1.18,13.88,5.28C547.5,373.75,547.3,379.84,543.23,383ZM574,485.08c3.31,4.31-.74,10.35,3,14.69,4,4.58,10.55,1,14.08,5.52,2.12,2-3.41,9.71-9.89,18.3-6-7.89-17.89-22.08-39-46.42-3.55-4.09.73-10.35-3-14.68-4-4.58-10.77-1.22-14.32-5.32-3.76-4.33.73-10.35-3.24-14.92-3.76-4.34-10.56-1-14.11-5.08-3.35-3.85-2.9-10.15.92-13.05,2.69-2.75,16.18,7.94,28,17.14C545.13,451.83,557,466,574,485.08ZM528.77,325.39c-1.69,1.46-7.76-2.14-14.64-7.15.19-2.7.35-4.95,2.52-6.83a9.25,9.25,0,1,1,12.12,14ZM575.22,531.3l-5.06,4.39a9.26,9.26,0,0,1-13-.92c-3.76-4.34.49-10.14-3.48-14.72-3.76-4.34-10.32-1.19-13.87-5.28-3.35-3.86-3.14-9.95.93-13,3.64-3.59,26.22,16.1,38,25.31ZM569,290.48a9.47,9.47,0,0,1-13-.93,9.26,9.26,0,0,1,.93-13.05c4.33-3.76,10.14.49,14.72-3.48,4.33-3.76.94-10.11,5.28-13.87,3.37-2.93,7.33-1.29,11-1.93l8.36,9.63Zm38.28-10.4c3.76,4.33-.49,10.14,3.48,14.72,3.76,4.33,10.11.94,13.87,5.28a9.25,9.25,0,1,1-14,12.12c-3.55-4.1.74-10.35-3-14.69-4-4.58-10.55-1-14.32-5.31-1.67-1.93,3.16-9.5,9.41-17.87Zm40.46,223.35c-4.33,3.76-10.14-.49-14.72,3.48-4.33,3.76-.94,10.11-5.28,13.87s-10.38-.28-14.72,3.48-1.18,10.32-5.52,14.08a9.26,9.26,0,0,1-13-.92c-2.3-2.65,7.18-15.1,16.11-26.22l5.06-4.39c4.09-3.56,10.35.73,14.69-3,4.57-4,1-10.56,5.31-14.32a9.47,9.47,0,0,1,13,.92A9.26,9.26,0,0,1,647.75,503.43Zm-38.5-247.86c-1.92,1.67-7.76-2.14-14.88-6.94.19-2.7.59-5.16,2.76-7a9.26,9.26,0,0,1,13,.93A9.47,9.47,0,0,1,609.25,255.57Zm46.48,135.36a9.26,9.26,0,0,1-13.05-.93c-3.55-4.09.5-10.14-3.27-14.48-4-4.57-10.52-1.42-14.08-5.52-3.76-4.34.5-10.14-3.48-14.72C618.09,351,611.54,354.1,608,350a9.25,9.25,0,0,1,14-12.12c3.55,4.09-.5,10.14,3.27,14.48,4,4.57,10.52,1.42,14.08,5.52,3.76,4.34-.49,10.14,3.48,14.72,3.76,4.33,10.32,1.18,13.87,5.28A9.26,9.26,0,0,1,655.73,390.93Zm-5.33,75.15a9.25,9.25,0,0,1-13-.93,9.47,9.47,0,0,1,.93-13c1.93-1.67,7.55,1.9,14.88,6.94C653,461.74,652.57,464.2,650.4,466.08Zm20.24-17.56c-3.13,2.72-7.32,1.29-11.2,1.69C654,444,647.77,436.27,640,427.8a9.75,9.75,0,0,1,1.17-13.26,9.26,9.26,0,0,1,13.05.93c3.55,4.1-.74,10.35,3,14.69,4,4.58,10.56,1,14.32,5.31A9.26,9.26,0,0,1,670.64,448.52Z"/><path class="cls-1" d="M672.08,222.48a9.47,9.47,0,0,1-12.66-3.3,9.26,9.26,0,0,1,3.31-12.66c4.95-2.9,9.88,2.35,15.11-.72,4.95-2.9,3-9.93,7.73-12.67,5-2.9,10.15,2.19,15.11-.72s3.06-9.92,8-12.83c3.58-2.09,7.16.24,10.89.28,2.09,3.58,4.51,7.71,6.93,11.83C718.21,195.82,701.53,205.22,672.08,222.48Zm66.75,42.6c2.47,4.84-2.62,10,.28,15,3.07,5.23,10.09,3.34,12.83,8,2.91,5-2.34,9.87.72,15.1,2.91,5,10.2,2.9,12.67,7.74,2.86,4.24,1.1,10.08-3.3,12.66-3.31,1.93-15.37-11.7-25.15-23.35-5-9.24-13.8-24.82-27.84-48.76-2.74-4.68,2.62-10-.28-15-3.06-5.22-10.2-2.89-13.1-7.84-1.46-2.48,5.12-8.92,13.35-16.34C713.46,221.16,722.26,237.44,738.83,265.08ZM756,347.44c2.74,4.67-2.35,9.87.56,14.83,3.06,5.23,9.92,3.06,12.83,8,1.45,2.48-5.13,8.92-13.08,16.17-4.45-8.86-13.53-25-29.82-52.78-2.75-4.68,2.34-9.88-.56-14.83-3.07-5.23-10.09-3.33-12.83-8-2.91-5,2.34-9.88-.72-15.11-2.91-5-9.93-3.06-12.67-7.73a9.26,9.26,0,0,1,3.3-12.66c3.31-1.94,15.37,11.7,25.15,23.34C733.25,307.92,742,323.49,756,347.44ZM744.82,241.23c-4.4,2.58-22.82-20.64-32.72-31.85,5.8-5.25,12-10.38,16.35-14.38l6.29,10.73c2.9,5-2.62,10,.44,15.27,2.9,4.95,10.2,2.9,12.94,7.57A9.46,9.46,0,0,1,744.82,241.23Zm-8.19,162.69-6-10.9c-2.9-4.95,2.34-9.88-.72-15.11-2.9-5-9.93-3.05-12.67-7.73a9.26,9.26,0,0,1,3.3-12.66c4.13-2.42,22.55,20.8,32.72,31.85C747.18,394.78,740.94,399.91,736.63,403.92Zm-3.08,28.8a9.26,9.26,0,0,1-12.66-3.3,9.7,9.7,0,0,1,3.3-12.66c2.2-1.29,7.24,3.52,13.36,9.54C736.87,428.92,736,431.27,733.55,432.72Zm36.24-267.5-6.06,3.55c-4.68,2.74-10-2.62-15,.28-5.23,3.07-2.9,10.2-7.85,13.11-1.93,1.13-7.24-3.52-13.09-9.71.69-2.62,1.26-4.8,3.73-6.25,5-2.91,9.88,2.34,15.11-.72,5-2.91,3.06-9.93,7.74-12.67,5-2.91,10.15,2.18,15.1-.72s3.06-9.93,8-12.83a9.25,9.25,0,0,1,12.65,3.3C791.93,145.59,780.33,156.08,769.79,165.22Zm55.68,213.62c-5,2.91-10.15-2.18-15.11.72s-3.05,9.93-8,12.83c-4.68,2.75-9.88-2.34-14.83.56-5.23,3.07-3.33,10.09-8,12.83-5,2.91-9.88-2.34-15.11.72-4.95,2.91-3.06,9.93-7.73,12.67-3.58,2.1-7.44-.08-11.16-.11l-6.94-11.84c8.3-4.13,25-13.53,54.43-30.79,5-2.9,10.31,2.46,15.27-.44s2.89-10.21,7.85-13.11a9.47,9.47,0,0,1,12.66,3.31A9.24,9.24,0,0,1,825.47,378.84Zm37.94-145.36c-9.08,5.33-79.87-102.2-6.15,23.57,2.9,5-2.46,10.32.44,15.27s10.2,2.9,13.11,7.85a9.25,9.25,0,0,1-3.31,12.66c-3.58,2.1-15.52-12-25.58-23.46-4.77-9.4-13.53-25-27.68-48.49-2.63-5.11,2.46-10.31-.44-15.26s-10.2-2.9-12.83-8c-3-4.51,2.34-9.87-.56-14.83-3.07-5.23-9.93-3.06-12.83-8-1.61-2.75,14.27-15.39,28.79-27.22a9.29,9.29,0,0,1,10,4.48c2.9,4.95-2.35,9.88.72,15.11,2.9,5,9.92,3.05,12.66,7.73,2.91,4.95-2.18,10.15.72,15.11s9.93,3.06,12.83,8c2.75,4.68-2.34,9.88.56,14.83,3.07,5.23,9.93,3.06,12.83,8A9.26,9.26,0,0,1,863.41,233.48Zm-2.06,82.92a9.77,9.77,0,0,1-3.58,12.83c-3.58,2.09-7.16-.24-11-.56l-15-25.59c-2.9-5,2.46-10.32-.44-15.27s-10.2-2.9-13.11-7.85c-2.74-4.68,2.62-10-.28-15-3.06-5.23-10.2-2.9-13.1-7.85a9.26,9.26,0,0,1,3.3-12.66c3.58-2.1,15.52,12,25.42,23.18C838.44,277.32,847.2,292.9,861.35,316.4Zm-26.42,26.21a9.25,9.25,0,1,1-9.36-16c1.93-1.13,7.08,3.25,13.09,9.71C838,339,837.4,341.16,834.93,342.61Z"/><path class="cls-1" d="M908.1,105.14a9.48,9.48,0,0,1-12-5.19,9.26,9.26,0,0,1,5.2-12c5.34-2.12,9.4,3.82,15,1.59,5.34-2.12,4.53-9.35,9.58-11.34,5.33-2.12,9.7,3.7,15,1.59s4.53-9.35,9.87-11.46c3.85-1.53,7,1.33,10.71,1.93L966.59,83C957.75,85.82,939.84,92.57,908.1,105.14ZM936.52,322.4a9.26,9.26,0,0,1-12-5.19,9.48,9.48,0,0,1,5.19-12c2.37-.94,6.62,4.58,11.75,11.47C940.38,319.16,939.18,321.34,936.52,322.4Zm35.52-81c2,5.05-3.83,9.41-1.71,14.75,2.23,5.63,9.34,4.53,11.46,9.87,1.05,2.67-6.43,8-15.39,14-3-9.43-9.57-26.75-21.44-56.71-2-5,3.83-9.4,1.71-14.74-2.23-5.63-9.46-4.83-11.46-9.87-2.11-5.34,3.83-9.41,1.6-15-2.12-5.34-9.35-4.54-11.35-9.58a9.26,9.26,0,0,1,5.2-12c3.56-1.41,12.63,12.84,20.7,25.43C956.12,200.38,962.64,217.7,972,241.42Zm-27.79,52.87L940,282.6c-2.12-5.33,3.82-9.4,1.59-15-2.12-5.33-9.35-4.53-11.34-9.57a9.26,9.26,0,0,1,5.19-12c4.45-1.76,19.11,24,27.48,36.47C956.07,286.87,949.12,291,944.25,294.29Zm23.33-136.88c1.7,5.16-4.12,9.52-2,14.86,2.24,5.64,9.47,4.83,11.46,9.87,2.24,5.64-3.82,9.41-1.59,15,2.12,5.34,9.35,4.54,11.34,9.58a9.26,9.26,0,0,1-5.19,12c-3.26,1.29-15.39-20.67-25.46-38.3-3.58-9.9-8.87-23.25-15.92-41-2-5,4.12-9.53,2-14.86-2.24-5.64-9.64-4.42-11.76-9.76-1.06-2.67,6.43-8,15.69-14.1C949.2,110.14,955.42,127.57,967.58,157.41ZM1011,292.91c-5,2-9.41-3.82-14.75-1.7-5.63,2.23-4.83,9.46-9.87,11.45-5.34,2.12-9.4-3.82-15-1.59-5.34,2.12-4.53,9.35-9.57,11.35-3.86,1.52-7.35-1.21-11-1.82-1.52-3.85-3.29-8.3-5.05-12.75,8.84-2.82,26.75-9.57,58.48-22.14,4.75-1.88,10.55.63,12.31,5.08A9.54,9.54,0,0,1,1011,292.91ZM977.13,134.75c-4.74,1.88-19.41-23.88-27.48-36.46,6.53-4.3,13.48-8.43,18.34-11.73l4.59,11.57c2.11,5.34-4.12,9.52-1.89,15.16,2.11,5.34,9.64,4.41,11.64,9.46A9.46,9.46,0,0,1,977.13,134.75Zm5.12-59c-2.08.82-6.62-4.58-11.45-11.59,1.07-2.48,2-4.55,4.63-5.61a9.26,9.26,0,0,1,12,5.19A9.48,9.48,0,0,1,982.25,75.77Z"/><path class="cls-1" d="M1094.53,174.85c1.27,5.6-5.14,9-3.87,14.62s8.54,5.91,9.81,11.51c1.21,5.29-5.21,8.71-3.94,14.31,1.35,5.91,8.55,5.91,9.82,11.51.78,3.42-13.13,9.86-26.25,15.46l-6.54,1.49a9.27,9.27,0,0,1-11.07-7c-1.27-5.6,5.22-8.71,3.87-14.62-1.27-5.6-8.47-5.6-9.74-11.2s5.14-9,3.87-14.62-8.54-5.91-9.82-11.51,5.22-8.71,3.94-14.31c-1.34-5.91-8.54-5.91-9.81-11.5a9.27,9.27,0,0,1,7-11.08c10-2.26,45.31,121.53,13-20.62-1.27-5.59,5.15-9,3.87-14.62s-8.54-5.91-9.81-11.5a9.26,9.26,0,0,1,7-11.08c3.73-.85,11.18,16.11,17,30.16C1084.79,130.61,1088.44,148.1,1094.53,174.85Zm4.25-69c1.28,5.6,8.55,5.91,9.82,11.51s-5.22,8.71-3.94,14.31c1.34,5.91,8.54,5.9,9.81,11.5a9.26,9.26,0,0,1-7,11.08c-3.74.84-11.19-16.11-16.94-29.85-2.09-10.65-5.74-28.13-11.83-54.89a9.26,9.26,0,0,1,7-11.07c4-.92,7.07,2.32,10.67,3.79q2.76,12.14,6.59,28.93C1104.17,96.43,1097.51,100.24,1098.78,105.84Zm58.42,146c-5.6,1.27-9-5.14-14.62-3.87s-5.91,8.54-11.51,9.82-8.71-5.22-14.31-3.95c-5.91,1.35-5.91,8.55-11.51,9.82a9.26,9.26,0,0,1-11.07-7c-.78-3.42,13.13-9.86,26.25-15.46l6.54-1.49c5.6-1.27,9.09,5.46,14.69,4.19s5.84-8.86,11.44-10.13a9.47,9.47,0,0,1,11.07,7A9.26,9.26,0,0,1,1157.2,251.87ZM1115.94,70.53c-2.49.56-5.77-5.23-9.86-13.13,1.44-2.3,3-4.28,5.76-4.91a9.25,9.25,0,1,1,4.1,18Zm52.6-39.12L1161.7,33c-5.29,1.21-8.78-5.52-14.38-4.25-5.91,1.35-5.84,8.85-11.44,10.13a9.48,9.48,0,0,1-11.07-7,9.25,9.25,0,0,1,7-11.07c5.6-1.28,8.71,5.21,14.62,3.87,5.6-1.28,5.6-8.47,11.2-9.75s9,5.15,14.62,3.87,5.91-8.54,11.5-9.81a9.26,9.26,0,0,1,11.08,7C1195.58,19.37,1181.35,25.87,1168.54,31.41Zm8.6,188.77a9.25,9.25,0,0,1-4.1-18c2.18-.5,5.77,5.23,9.55,13.2C1181.14,217.63,1179.94,219.54,1177.14,220.18Zm33.1-17a9.76,9.76,0,0,1-7.28,11.15c-4,.92-6.76-2.39-10.36-3.86q-2.76-12.13-6.59-28.93c-1.27-5.6,5.46-9.09,4.19-14.69s-8.86-5.84-10.13-11.44c-1.2-5.29,5.53-8.78,4.25-14.38-1.34-5.91-8.85-5.84-10.12-11.43a9.26,9.26,0,0,1,7-11.08c4-.92,11.19,16.1,17.25,29.78C1200.19,159,1203.84,176.48,1210.24,203.16Zm27-78.44c-10.26,2.34-45.31-121.53-13,20.62,1.27,5.6-5.46,9.1-4.18,14.69s8.85,5.84,10.12,11.44a9.24,9.24,0,0,1-7,11.07c-4,.92-11.18-16.1-17.31-30.08-1.71-10.41-5.36-27.9-11.76-54.58-1-5.67,5.45-9.09,4.18-14.69s-8.54-5.91-9.82-11.51,5.22-8.71,4-14.31c-1.35-5.91-8.55-5.9-9.82-11.5-.71-3.11,18.25-10.37,35.66-17.27a9.29,9.29,0,0,1,8.2,7.29c1.27,5.6-5.22,8.71-3.87,14.62,1.27,5.6,8.54,5.91,9.74,11.2,1.28,5.6-5.14,9-3.87,14.62s8.54,5.91,9.82,11.5c1.2,5.29-5.22,8.72-3.94,14.31,1.34,5.91,8.54,5.91,9.81,11.51A9.25,9.25,0,0,1,1237.21,124.72Z"/></g></g></svg>