<svg xmlns="http://www.w3.org/2000/svg" viewBox="0 0 1454.37 235.35"><defs><style>.cls-1{fill:#fff;}</style></defs><g id="Layer_2" data-name="Layer 2"><g id="Layer_2-2" data-name="Layer 2"><path class="cls-1" d="M212.07,181.76V117.31c0-5.86-3.55-11.35-11.6-11.35-7.81,0-11.48,5.49-11.48,11.35v64.45H138V64.58h46.39l1.09,10.74c5.74-6.84,18.19-13.19,36.38-13.19,26.37,0,41.38,17.22,41.38,39.8v79.83Z"/><path class="cls-1" d="M420.07,64.58h47.49V98H452.91a23,23,0,0,1,1.22,7.57c0,28.81-27.83,43-54.08,43a92.51,92.51,0,0,1-16-1.47A6.47,6.47,0,0,0,382,152c0,2.56,1,4.88,5,4.88h30.28c34.3,0,49.43,14.4,49.43,38.09,0,25.51-19.89,40.4-66.28,40.4-44.92,0-64.09-12.08-64.09-32.47,0-10.5,7.69-19.16,19.17-24a22.07,22.07,0,0,1-8.43-17.45c0-9.4,5.74-16.48,14.41-22.1-10.38-7.2-20.39-18.31-20.39-33.69,0-29.54,27.35-43.46,56.52-43.46A88.39,88.39,0,0,1,420.07,64.58ZM377.59,190.19a4.66,4.66,0,0,0-1.22,3.54c0,5.85,8.67,6.71,23.81,6.71,14.89,0,22.94-1.95,22.94-5.62s-4.51-4.63-10.49-4.63Zm5.5-84.6c0,6.84,5.24,10.87,14.52,10.87s14.53-4,14.53-10.87-5.37-11-14.65-11S383.09,98.75,383.09,105.59Z"/><path class="cls-1" d="M555.94,62.13a53.3,53.3,0,0,1,13.67,2.08l-3.05,42.24a31.7,31.7,0,0,0-13.31-2.57c-17.58,0-26.12,10.5-26.12,27.22v50.66h-51V64.58H522l2,16C529.45,68.24,542,62.13,555.94,62.13Z"/><path class="cls-1" d="M574.61,28.44c0-17.09,11.23-28.44,28-28.44,17,0,28.32,11.47,28.32,28.44,0,16.6-11.35,28-28.32,28C585.84,56.4,574.61,45,574.61,28.44Zm53.71,153.32h-51V64.58h51Z"/><path class="cls-1" d="M721.83,181.76,720.73,170c-5.25,7.21-12.57,14.16-29.66,14.16-29.91,0-52.25-26.61-52.25-60.91,0-34.67,22.34-61.16,52.25-61.16,15.87,0,24.66,5.86,30.39,12.09V10H773.1V181.76Zm-35.89-58.59c0,11.6,7.2,19.29,18.56,19.29,11.11,0,18.19-7.69,18.19-19.29s-7.08-19.65-18.19-19.65C693.14,103.52,685.94,111.69,685.94,123.17Z"/><path class="cls-1" d="M852.81,73.85c5.13-3,24.66-11.72,52.74-11.72,31.37,0,60.91,10,60.91,45.29v74.34H923l-1.46-12.69c-8.67,10.86-22.46,15-35.4,15-19,0-39.07-10-39.07-34.67,0-27.95,26.25-39.18,49.93-39.18,5.49,0,15.5.85,18.43,1.83,0-7-9.76-9.89-18.43-9.89-13.91,0-32.35,4.28-40,10.13ZM916,135.62a24.82,24.82,0,0,0-10.25-2.2c-6.47,0-12.45,2.44-12.45,8.55,0,4.76,3.54,7.32,9.15,7.32S916,145.26,916,135.62Z"/><path class="cls-1" d="M1029.81,64.58V129c0,6,3.67,11.47,11.6,11.47s11.48-5.49,11.48-11.47V64.58H1104V181.76h-46.51l-1-11.23c-5.74,6.84-18.31,13.67-36.5,13.67-26.25,0-41.26-17.09-41.26-39.79V64.58Z"/><path class="cls-1" d="M1197.54,181.76l-1.1-11.72c-5.25,7.21-12.57,14.16-29.66,14.16-29.91,0-52.25-26.61-52.25-60.91,0-34.67,22.34-61.16,52.25-61.16,15.87,0,24.66,5.86,30.39,12.09V10h51.64V181.76Zm-35.89-58.59c0,11.6,7.2,19.29,18.55,19.29,11.11,0,18.19-7.69,18.19-19.29s-7.08-19.65-18.19-19.65C1168.85,103.52,1161.65,111.69,1161.65,123.17Z"/><path class="cls-1" d="M1259.55,28.44c0-17.09,11.23-28.44,28-28.44,17,0,28.32,11.47,28.32,28.44,0,16.6-11.35,28-28.32,28C1270.78,56.4,1259.55,45,1259.55,28.44Zm53.71,153.32h-51V64.58h51Z"/><path class="cls-1" d="M1454.37,123.17c0,37-26,61-65.43,61s-65.3-24-65.3-61,26-61,65.3-61S1454.37,86.3,1454.37,123.17Zm-83.37,0c0,11.72,7.2,19.53,17.94,19.53s18-7.81,18-19.53c0-11.48-7.08-19.29-18-19.29S1371,111.69,1371,123.17Z"/><path class="cls-1" d="M2.5,132.72c0-.73,0-1.47,0-2.21,0-.42.05-.84.08-1.26a37.77,37.77,0,0,1,.78-5.4c.17-.72.39-1.43.6-2.14a.75.75,0,0,0,0-.51c-.12-.35-.17-.72-.29-1.07a24.16,24.16,0,0,1-.85-3.93,21.72,21.72,0,0,1-.26-3c0-1.33,0-2.67,0-4,0-.74.16-1.47.24-2.21a26.65,26.65,0,0,1,.91-4.4A31.93,31.93,0,0,1,5.38,98a28.06,28.06,0,0,1,2-3.83c.44-.68.85-1.38,1.31-2.05.32-.47.68-.9,1-1.35l.77-.94c.22-.25.43-.51.67-.75.74-.75,1.46-1.52,2.25-2.23S15,85.6,15.73,85c.46-.36.92-.72,1.39-1.06s.77-.5,1.17-.73c.93-.51,1.86-1,2.8-1.51a1.26,1.26,0,0,0,.54-.53c.62-1.12,1.25-2.22,1.88-3.32a27.9,27.9,0,0,1,3.24-4.25c.55-.64,1.18-1.21,1.78-1.81.26-.26.52-.53.8-.77A28.65,28.65,0,0,1,32,68.83a47,47,0,0,1,4.32-2.59,31.81,31.81,0,0,1,6.16-2.39c.9-.25,1.8-.49,2.71-.69a11.89,11.89,0,0,1,1.66-.25c1.32-.12,2.64-.26,4-.32a26.26,26.26,0,0,1,4.93.27c1.06.13,2.12.34,3.17.56.64.13,1.27.33,1.89.51a1.76,1.76,0,0,0,1.09,0,26.76,26.76,0,0,1,4.69-1.06c1.1-.17,2.22-.2,3.33-.29a27.92,27.92,0,0,1,5.25.17,29.9,29.9,0,0,1,7.28,1.71c1.24.46,2.47,1,3.67,1.53.89.41,1.73.94,2.58,1.44s1.43.85,2.1,1.33a21,21,0,0,1,1.82,1.45c.85.74,1.71,1.49,2.51,2.28.62.62,1.17,1.31,1.74,2s1,1.14,1.39,1.74,1,1.48,1.48,2.25c.55.93,1,1.89,1.56,2.84a.82.82,0,0,0,.25.24c1,.52,2,1,2.89,1.57a28.38,28.38,0,0,1,3.66,2.62c.72.61,1.44,1.24,2.15,1.87.22.2.41.44.62.65a29.14,29.14,0,0,1,2.88,3.39,39.19,39.19,0,0,1,2.86,4.63q.76,1.48,1.38,3c.34.87.64,1.76.9,2.66s.57,2.12.81,3.18a14.12,14.12,0,0,1,.26,1.71c.12,1.3.24,2.61.31,3.91a27,27,0,0,1-.25,4.92c-.13,1.09-.35,2.16-.57,3.23-.13.62-.31,1.23-.5,1.84a2,2,0,0,0,0,1.19c.27,1,.52,2,.76,3.08a33.73,33.73,0,0,1,.6,7.54c0,.87-.07,1.74-.19,2.6a33,33,0,0,1-.58,3.42,35.76,35.76,0,0,1-1.16,3.91,36.78,36.78,0,0,1-1.5,3.62c-.42.89-.95,1.73-1.45,2.58s-.85,1.43-1.32,2.11a21.19,21.19,0,0,1-1.39,1.74,34.84,34.84,0,0,1-2.39,2.62c-1,1-2.17,1.86-3.27,2.77-.42.35-.86.67-1.31,1a13.67,13.67,0,0,1-1.21.76c-.92.52-1.86,1-2.8,1.51a1.1,1.1,0,0,0-.5.5c-.57,1.16-1.23,2.27-1.9,3.37a33.66,33.66,0,0,1-3.21,4.21c-.54.64-1.18,1.2-1.78,1.79-.25.25-.49.51-.76.74-.89.75-1.75,1.55-2.7,2.21-1.15.79-2.37,1.47-3.57,2.19A22.41,22.41,0,0,1,83.59,178c-1,.36-1.9.69-2.87,1s-1.91.49-2.88.7c-.6.13-1.22.18-1.82.31a19.37,19.37,0,0,1-2.85.28,26,26,0,0,1-2.79.08,32.59,32.59,0,0,1-3.7-.32c-1.31-.2-2.59-.54-3.88-.83-.33-.07-.65-.17-1-.27a1.24,1.24,0,0,0-.87,0,25.12,25.12,0,0,1-3.54.89,29.05,29.05,0,0,1-4.37.47c-1.3,0-2.61,0-3.9,0-.71,0-1.4-.18-2.11-.24a25.51,25.51,0,0,1-4.66-1,30.56,30.56,0,0,1-5.07-1.88,25.57,25.57,0,0,1-3.29-1.8c-.66-.45-1.37-.82-2-1.28a23.1,23.1,0,0,1-1.81-1.46c-.86-.74-1.73-1.46-2.51-2.27-.95-1-1.82-2.11-2.71-3.19-.38-.46-.74-.94-1.09-1.43a13.67,13.67,0,0,1-.76-1.21c-.51-.93-1-1.86-1.5-2.8a1.1,1.1,0,0,0-.52-.5c-1.14-.56-2.23-1.21-3.32-1.87a32,32,0,0,1-4.2-3.21c-.67-.57-1.26-1.23-1.88-1.85a9.61,9.61,0,0,1-.7-.73,29.78,29.78,0,0,1-2.21-2.69,47.93,47.93,0,0,1-2.62-4.36A34.72,34.72,0,0,1,4,141,30.51,30.51,0,0,1,3,137C2.78,135.6,2.63,134.17,2.5,132.72Zm101.24,6.95c.33-.22.59-.41.86-.57a32.3,32.3,0,0,0,4.15-3.11,35.6,35.6,0,0,0,3.43-3.52,30.26,30.26,0,0,0,2.81-3.91,24.9,24.9,0,0,0,1.56-2.93c.59-1.3,1.08-2.64,1.6-4a.9.9,0,0,0,0-.51c-.19-.55-.37-1.1-.6-1.63-.46-1.07-.93-2.14-1.43-3.19a13.32,13.32,0,0,0-.86-1.51c-.45-.74-.89-1.48-1.39-2.19a31.85,31.85,0,0,0-2.9-3.57,27,27,0,0,0-3.12-2.93c-.94-.75-1.92-1.45-2.9-2.15-.36-.26-.76-.47-1.19-.72a33,33,0,0,1-11.16,18.2A33.07,33.07,0,0,1,103.74,139.67ZM79.6,79.11c-.27-.44-.48-.85-.74-1.22a42.55,42.55,0,0,0-3-3.86,37.2,37.2,0,0,0-3.5-3.38,29.28,29.28,0,0,0-3.86-2.78,28.46,28.46,0,0,0-3-1.6c-1.29-.58-2.62-1.06-3.93-1.56a.81.81,0,0,0-.51,0c-.53.18-1.07.37-1.59.59-1.08.46-2.18.9-3.23,1.43-.89.45-1.73,1-2.6,1.53a24.92,24.92,0,0,0-3.92,2.94,24.4,24.4,0,0,0-2.93,2.91c-.63.78-1.3,1.54-1.91,2.34s-1,1.43-1.45,2.15a4.44,4.44,0,0,0-.24.49,34.12,34.12,0,0,1,10,4.1,35,35,0,0,1,8.18,7.07A33.12,33.12,0,0,1,79.6,79.11ZM43.19,163.79c.43.68.82,1.33,1.25,2a29.45,29.45,0,0,0,3.26,4c.88.87,1.76,1.74,2.69,2.54A29.3,29.3,0,0,0,54.26,175a34.75,34.75,0,0,0,3.37,1.76c1.15.53,2.34,1,3.53,1.42a.66.66,0,0,0,.46,0c.73-.26,1.47-.51,2.18-.81s1.54-.72,2.3-1.1,1.22-.62,1.82-.95c.44-.24.88-.52,1.31-.79a18.82,18.82,0,0,0,1.58-1.05c1-.77,1.93-1.54,2.84-2.37a29.32,29.32,0,0,0,3-3.19c.76-.95,1.47-1.95,2.18-2.93.27-.38.49-.8.75-1.23a33.08,33.08,0,0,1-18.2-11.17A33.14,33.14,0,0,1,43.19,163.79ZM19.07,139.65a33.09,33.09,0,0,1,11.16-18.2,33.22,33.22,0,0,1-11.17-18.19,6.39,6.39,0,0,0-.61.34L16,105.31a24.27,24.27,0,0,0-3.59,3.13c-.57.58-1.09,1.2-1.63,1.81a27,27,0,0,0-3,4.18c-.53.89-1,1.81-1.48,2.74a33.33,33.33,0,0,0-1.65,4.07.73.73,0,0,0,0,.46c.42,1.09.84,2.17,1.29,3.24.18.44.43.85.64,1.28s.38.87.62,1.28c.32.57.71,1.1,1,1.67a20.76,20.76,0,0,0,2.41,3.33,32.32,32.32,0,0,0,3.47,3.55A40,40,0,0,0,18,139C18.31,139.2,18.68,139.41,19.07,139.65Zm84.34-37.21c0-.08.09-.1.1-.13.17-1.17.38-2.34.51-3.51a18.94,18.94,0,0,0,.06-2.13c0-1.07,0-2.15-.06-3.22,0-.82-.2-1.64-.29-2.45a23.71,23.71,0,0,0-.81-3.83c-.19-.71-.42-1.41-.67-2.11s-.64-1.53-.88-2.31a1.7,1.7,0,0,0-1.25-1.26c-1.07-.34-2.09-.83-3.15-1.2a21.81,21.81,0,0,0-2.24-.61c-1.12-.25-2.24-.5-3.37-.67-.81-.12-1.64-.12-2.46-.16l-3.55-.1a24.7,24.7,0,0,0-3.64.39c-.43.06-.85.15-1.33.24l.18.39c.52,1.06,1.06,2.11,1.56,3.19a31.63,31.63,0,0,1,1.25,3.54,33.38,33.38,0,0,1,.78,3.25c0,.2.09.41.12.61q.14,1,.24,2a20,20,0,0,1,.18,2c0,1.08,0,2.17,0,3.25,0,.18,0,.37,0,.6A33.49,33.49,0,0,1,103.41,102.44Zm-61-23.09c-1.31-.19-2.49-.39-3.68-.52a15,15,0,0,0-2.12,0c-1.23,0-2.46.08-3.69.11a19.44,19.44,0,0,0-3.81.54c-.91.2-1.81.45-2.71.7-.48.13-.94.29-1.4.46-.78.29-1.53.64-2.32.88a1.76,1.76,0,0,0-1.29,1.28c-.32,1-.84,2-1.13,3-.44,1.49-.76,3-1.11,4.52a18.63,18.63,0,0,0-.4,3.24c-.07,1.31-.1,2.63-.09,4a29.22,29.22,0,0,0,.48,4.27c0,.25.11.49.18.79a28.64,28.64,0,0,1,4.45-2.12A41.07,41.07,0,0,1,28.47,99a30.81,30.81,0,0,1,4.86-.72c1.6-.12,3.2-.07,4.83-.09a33.47,33.47,0,0,1,.76-9.63A34,34,0,0,1,42.45,79.35ZM80.38,163.5a5,5,0,0,0,.5.12c.88.13,1.75.27,2.63.38a9.49,9.49,0,0,0,2.38.13,6.77,6.77,0,0,1,.78,0c1,0,2,0,3-.08a20.18,20.18,0,0,0,3.19-.41c1-.21,1.9-.4,2.84-.65s1.59-.46,2.36-.74,1.39-.62,2.12-.84a1.71,1.71,0,0,0,1.24-1.25c.34-1.06.82-2.06,1.18-3.11.25-.73.42-1.49.61-2.24a26.46,26.46,0,0,0,.78-4.41c.07-.84.13-1.68.14-2.53,0-1.2,0-2.41,0-3.6-.07-1-.26-2-.4-3,0-.24-.11-.47-.17-.75a3.52,3.52,0,0,0-.37.15c-.31.16-.61.35-.92.5a29.3,29.3,0,0,1-3.94,1.71A34.21,34.21,0,0,1,94.1,144c-.62.11-1.24.25-1.87.35s-1.4.14-2.1.24a20.15,20.15,0,0,1-3.38.17c-.69,0-1.37,0-2.11,0A33.4,33.4,0,0,1,80.38,163.5ZM38.16,144.69a33.9,33.9,0,0,1-9.7-.76,34.56,34.56,0,0,1-9.11-3.5c-.05.21-.1.34-.12.48-.15,1-.32,1.92-.42,2.89-.08.71-.06,1.44-.07,2.16,0,.25,0,.49,0,.74,0,1,0,2,.1,3.05.05.77.18,1.53.26,2.3a26.18,26.18,0,0,0,.77,3.62c.19.73.44,1.45.69,2.16s.64,1.53.89,2.32a1.72,1.72,0,0,0,1.24,1.26c1,.32,1.94.84,2.95,1.13,1.49.44,3,.79,4.53,1.1a25,25,0,0,0,3.23.41c1.35.09,2.7.13,4,.09,1.16,0,2.32-.23,3.48-.36.49-.06,1-.16,1.52-.26a33.69,33.69,0,0,1-4.28-18.83ZM79.85,79.48a36.24,36.24,0,0,0-5,1.57c-.7.29-1.4.6-2.08.94-.91.46-1.82.93-2.69,1.46s-1.74,1.14-2.58,1.75-1.4,1.07-2.06,1.66c-.85.76-1.68,1.57-2.48,2.38-.45.45-.82,1-1.21,1.43a38.72,38.72,0,0,1,2.82,4.13,28.85,28.85,0,0,1,2.16,4.48c.55,1.53,1,3.08,1.56,4.62a36.1,36.1,0,0,1,7.54-3.82,35.6,35.6,0,0,1,8.28-1.83c0-.33.08-.62.09-.92,0-.68,0-1.37,0-2,0-1-.06-2.07-.18-3.1s-.37-2.21-.54-3.31a22.17,22.17,0,0,0-.9-3.31c-.3-1-.73-2-1.12-2.92-.18-.43-.4-.84-.6-1.25C80.52,80.77,80.19,80.15,79.85,79.48ZM103.34,103c-.88-.46-1.72-.94-2.6-1.33A42.9,42.9,0,0,0,96.48,100c-1.08-.34-2.18-.58-3.28-.82-.73-.15-1.49-.17-2.23-.31a17.26,17.26,0,0,0-3-.22c-.43,0-.87,0-1.31,0l-1.68,0c-.26,0-.35.14-.38.4-.09.79-.19,1.58-.32,2.36a32.64,32.64,0,0,1-.92,3.91c-.2.62-.44,1.23-.63,1.85a23.41,23.41,0,0,1-1.37,3.22,35.85,35.85,0,0,1-2.14,3.77l-.27.43a33.47,33.47,0,0,1,13.27,6.46,30.34,30.34,0,0,0,5.94-6.35A31.92,31.92,0,0,0,103.34,103Zm-11.17,18.8a34,34,0,0,1-13.29,6.47,33.58,33.58,0,0,1,5.72,15.9,31.44,31.44,0,0,0,10-.77,31,31,0,0,0,8.76-3.5,31.86,31.86,0,0,0-5.86-12.63A28,28,0,0,0,92.17,121.78ZM43,79.5c-.26.45-.52.85-.74,1.27s-.44.88-.64,1.33c-.36.87-.72,1.73-1,2.61s-.57,1.64-.79,2.47-.45,1.78-.63,2.67c-.14.72-.23,1.45-.32,2.18s-.15,1.39-.18,2.09-.06,1.56,0,2.33a4.66,4.66,0,0,0,.18,1.81A33.5,33.5,0,0,1,54.61,104a33.65,33.65,0,0,1,6.48-13.32A32.92,32.92,0,0,0,43,79.5ZM19.44,139.91c.88.45,1.72.92,2.6,1.32a40.43,40.43,0,0,0,4.41,1.68c1,.33,2.12.54,3.18.77.87.19,1.76.28,2.65.41a9.35,9.35,0,0,0,1,.11c1,0,2.08.05,3.12.05a9.86,9.86,0,0,0,1.33-.05c.4,0,.43-.09.47-.49a32.9,32.9,0,0,1,1.09-5.66c.24-.81.52-1.61.79-2.42a19.73,19.73,0,0,1,1.37-3.21c.43-.82.9-1.64,1.36-2.45.32-.56.65-1.11,1-1.74a33.38,33.38,0,0,1-13.27-6.48A33,33,0,0,0,19.44,139.91ZM54.62,139c-.94.56-1.81,1.1-2.69,1.6-.69.39-1.39.78-2.11,1.1-.9.4-1.84.72-2.75,1.1A26.25,26.25,0,0,1,43,144a25.12,25.12,0,0,1-3.77.62c-.54,0-.58.09-.61.64s0,1,0,1.54a26.56,26.56,0,0,0,.31,4.88,27,27,0,0,0,1,4.44c.36,1.07.69,2.15,1.09,3.2a23.46,23.46,0,0,0,1.7,3.58c.11.18.21.36.32.56,1.31-.39,2.59-.72,3.84-1.15a22.67,22.67,0,0,0,2.74-1.15c1-.49,2.06-1,3-1.6a30,30,0,0,0,2.61-1.78c.76-.55,1.49-1.14,2.19-1.76.86-.76,1.68-1.56,2.49-2.38.43-.43.79-.94,1.16-1.39A33.64,33.64,0,0,1,54.62,139Zm25.25,24.42c.44-.86.93-1.72,1.33-2.61a31.49,31.49,0,0,0,1.62-4.31c.19-.64.39-1.28.54-1.94s.26-1.23.35-1.86c.15-1.07.31-2.15.42-3.23.06-.72,0-1.44,0-2.16s0-1.47,0-2.21c0-.41-.06-.43-.47-.47a31.58,31.58,0,0,1-5.61-1.08c-.83-.23-1.65-.53-2.47-.8a23.62,23.62,0,0,1-4-1.75c-1-.55-2-1.16-3-1.75l-.43-.26a33.64,33.64,0,0,1-6.46,13.26A30.43,30.43,0,0,0,68,158.1,32.1,32.1,0,0,0,79.87,163.39ZM43.93,114.65c-.29-.41-.54-.72-.74-1.07-.56-1-1.13-2-1.65-3q-.6-1.2-1.11-2.46c-.32-.8-.6-1.62-.86-2.44a26.26,26.26,0,0,1-.7-2.6,31.54,31.54,0,0,1-.58-3.61c-.06-.75-.13-.78-.87-.8h-.16c-.7,0-1.4,0-2.1,0-1,0-2,.07-3,.18-1.15.14-2.28.36-3.42.56a10.34,10.34,0,0,0-1.44.33c-1.07.34-2.13.75-3.2,1.1a26.16,26.16,0,0,0-4.46,2.07,1,1,0,0,0-.2.17c.26.9.49,1.79.76,2.67a16.85,16.85,0,0,0,.58,1.64c.37.92.74,1.83,1.17,2.73s.91,1.8,1.43,2.66,1.16,1.76,1.79,2.61,1.07,1.4,1.66,2.06c.76.86,1.57,1.68,2.38,2.49a8.45,8.45,0,0,0,1.45,1.17A33.67,33.67,0,0,1,43.93,114.65Zm56.7-33.5a32.83,32.83,0,0,0-38.3-16.81l.3.16c.77.31,1.55.6,2.31,1s1.68.8,2.5,1.26,1.87,1.06,2.77,1.66A26.45,26.45,0,0,1,73.61,71a29.73,29.73,0,0,1,2.52,2.5c.35.42.71.83,1,1.26.58.73,1.15,1.46,1.7,2.21s.88,1.31,1.32,2A32.92,32.92,0,0,1,100.63,81.15Zm17.84,39.4a32.72,32.72,0,0,0-5.26-28.71,31.43,31.43,0,0,0-11.49-9.54,33.32,33.32,0,0,1,2.72,10,34.65,34.65,0,0,1-.56,10.4A33.66,33.66,0,0,1,118.47,120.55ZM42.62,79c.51-.75,1-1.48,1.47-2.18s1-1.37,1.59-2,.94-1.19,1.47-1.74a38.21,38.21,0,0,1,3.38-3.1A25,25,0,0,1,53.2,68c.92-.56,1.83-1.15,2.78-1.66a24.86,24.86,0,0,1,3.78-1.65c.22-.07.43-.2.72-.33a32.47,32.47,0,0,0-22.12,1.48A31.77,31.77,0,0,0,22.34,81a43.49,43.49,0,0,1,6.55-2,31.91,31.91,0,0,1,6.88-.73A37.66,37.66,0,0,1,42.62,79ZM60.4,178.53a33.9,33.9,0,0,1-17.76-14.62,33,33,0,0,1-20.46-2.16A32.75,32.75,0,0,0,60.4,178.53ZM21.1,160.67a32.94,32.94,0,0,1-2.16-20.46A34,34,0,0,1,4.32,122.46,32.71,32.71,0,0,0,21.1,160.67Zm80.78-.13c.35-.17.7-.32,1-.51a32.53,32.53,0,0,0,3.6-2.33c.58-.48,1.22-.9,1.78-1.41a33.75,33.75,0,0,0,3.94-4c.59-.75,1.17-1.5,1.73-2.27.34-.49.66-1,1-1.53.65-1.17,1.33-2.33,1.9-3.54a29.7,29.7,0,0,0,1.2-3.05c.32-.89.61-1.8.84-2.72s.32-1.62.44-2.43.25-1.84.34-2.77a29.71,29.71,0,0,0,0-5.08,30.23,30.23,0,0,0-.46-3.55c-.2-1-.44-1.93-.66-2.89h-.11a33.45,33.45,0,0,1-5.71,10.15,34.22,34.22,0,0,1-8.82,7.59,51.76,51.76,0,0,1,.64,5.19,30.28,30.28,0,0,1-.08,5.13,34,34,0,0,1-1,5.1C103.07,157.29,102.42,158.88,101.88,160.54ZM21,82.41c-4.14,1.79-11.33,7.12-15.23,16-3,6.75-3.52,15.49-1.36,22a33.56,33.56,0,0,1,14.49-17.73c-.17-1.41-.36-2.77-.51-4.14a25.6,25.6,0,0,1-.13-4.11,34.3,34.3,0,0,1,.43-4.16,33.85,33.85,0,0,1,.94-4C20,85,20.49,83.73,21,82.41Zm41.46,96.11a32.38,32.38,0,0,0,22-1.42c9.06-3.88,14.37-11.26,16.08-15.29a33.36,33.36,0,0,1-10,2.68,34.41,34.41,0,0,1-10.32-.56A33.85,33.85,0,0,1,62.42,178.52ZM54.5,138.4a33.2,33.2,0,0,1-.67-9.39,33.52,33.52,0,0,1-9.39-.66,32.89,32.89,0,0,0-5.73,15.79A32.94,32.94,0,0,0,54.5,138.4ZM38.71,98.76a32.89,32.89,0,0,0,5.7,15.74c1.08-.15,2.12-.33,3.17-.45s2.08-.22,3.11-.26,2.08,0,3.17.06c0-.31-.09-.54-.1-.78a39.57,39.57,0,0,1,.17-4.87,27.8,27.8,0,0,1,.53-3.41.37.37,0,0,0-.21-.47c-1-.61-2-1.28-3-1.84a30.36,30.36,0,0,0-4.29-1.89c-.89-.32-1.81-.57-2.72-.83a27.86,27.86,0,0,0-3.92-.82C39.8,98.87,39.31,98.83,38.71,98.76Zm45.37,45.37a32.69,32.69,0,0,0-5.74-15.81,24.88,24.88,0,0,1-4.65.69A26.58,26.58,0,0,1,69,129a33.58,33.58,0,0,1-.66,9.41A32.84,32.84,0,0,0,84.08,144.13ZM69,113.87h.34c.58,0,1.15-.12,1.73-.1,1.16,0,2.32.14,3.47.2a19.49,19.49,0,0,1,3.41.51.48.48,0,0,0,.61-.26c.55-.91,1.14-1.78,1.66-2.71s.87-1.69,1.26-2.55.62-1.5.89-2.26.47-1.4.65-2.12c.22-.87.4-1.75.56-2.63s.33-1.91.48-2.87c0-.22-.09-.34-.31-.31-.76.1-1.51.18-2.26.32s-1.62.33-2.42.52-1.4.35-2.09.57-1.58.57-2.36.89-1.39.58-2.07.92c-.85.43-1.68.9-2.51,1.37-.52.3-1,.65-1.52,1a.36.36,0,0,0-.19.44,33.69,33.69,0,0,1,.68,7.57C69,112.82,69,113.31,69,113.87ZM50.07,121.5c-1-1-2.11-2-3.09-3.07s-1.88-2.19-2.85-3.32a31.5,31.5,0,0,0-6.85,2.39,30.63,30.63,0,0,0-6.27,4,32.85,32.85,0,0,0,13.21,6.34A33.08,33.08,0,0,1,50.07,121.5Zm5,17.13a32.85,32.85,0,0,0,6.35,13.22,32.93,32.93,0,0,0,6.36-13.22,33.71,33.71,0,0,1-6.36-5.92A33.61,33.61,0,0,1,55.05,138.63ZM61.4,91.05a32.78,32.78,0,0,0-6.35,13.22,33.56,33.56,0,0,1,6.35,5.91,33.62,33.62,0,0,1,6.36-5.92A32.83,32.83,0,0,0,61.4,91.05Zm30.4,30.39a32.91,32.91,0,0,0-13.22-6.35,33.64,33.64,0,0,1-5.91,6.36,33.86,33.86,0,0,1,5.91,6.35A32.61,32.61,0,0,0,91.8,121.44Zm-24.79,0c0-.12-.06-.22-.1-.32l-1.35-3.45a.81.81,0,0,0-.5-.44c-.88-.36-1.75-.75-2.64-1.08a2,2,0,0,0-1.64-.14c-1,.45-2.05.84-3.09,1.25a.84.84,0,0,0-.5.51c-.18.44-.38.87-.55,1.32-.27.69-.51,1.39-.77,2.08a.72.72,0,0,0,0,.56c.47,1.18.92,2.36,1.4,3.53a.72.72,0,0,0,.38.35c1.07.45,2.15.89,3.23,1.31a1.25,1.25,0,0,0,1,0c1.11-.46,2.23-.89,3.33-1.37a.9.9,0,0,0,.41-.45c.39-.88.76-1.78,1.12-2.68C66.84,122.12,66.91,121.77,67,121.44Zm11-6.48a33,33,0,0,0-9.09-.58l-.6,4,4,2.72A32.1,32.1,0,0,0,78.06,115ZM67.88,104.79a31.9,31.9,0,0,0-6.14,5.74l.39.56c.41.58.83,1.14,1.23,1.72s.58.93.86,1.39a.49.49,0,0,0,.61.27,5.9,5.9,0,0,1,.93-.19l2.71-.38A33,33,0,0,0,67.88,104.79Zm-17.42,17a31.81,31.81,0,0,0-5.7,6.1,32.29,32.29,0,0,0,9.07.62l.61-4ZM61,132.39l-2.72-4-4,.61a31.88,31.88,0,0,0,.61,9A28.85,28.85,0,0,0,61,132.39Zm6.84,5.71a32.39,32.39,0,0,0,.59-9.09l-4-.6-2.73,4A32.25,32.25,0,0,0,67.88,138.1ZM44.8,115a28.73,28.73,0,0,0,5.68,6.11l4-2.71-.59-4A32.24,32.24,0,0,0,44.8,115ZM69,128.53a32.39,32.39,0,0,0,9.09-.62,32.05,32.05,0,0,0-5.73-6.12l-1.54,1.09c-.6.41-1.18.84-1.79,1.22s-.64.38-.52,1.12C68.65,126.3,68.79,127.38,69,128.53ZM61,110.5a38.76,38.76,0,0,0-2.85-3,39.6,39.6,0,0,0-3.26-2.7,32.88,32.88,0,0,0-.61,9.09l4,.6ZM68.19,124a19.92,19.92,0,0,0,3.68-2.51,22.92,22.92,0,0,0-3.67-2.52c-.07.28-.11.48-.16.68-.15.56-.3,1.12-.44,1.68a.78.78,0,0,0,0,.34c0,.16.08.31.12.46C67.88,122.69,68,123.3,68.19,124Zm-9.33-9.31c.69.18,1.32.31,1.94.5a2,2,0,0,0,1.2,0c.62-.18,1.25-.32,1.93-.5A22.58,22.58,0,0,0,61.39,111,25.41,25.41,0,0,0,58.86,114.64Zm2.54,17.3a24.58,24.58,0,0,0,2.52-3.67l-2.46-.67a.35.35,0,0,0-.2,0l-1.07.28-1.32.36A27.11,27.11,0,0,0,61.4,131.94Zm-6.81-13a26.6,26.6,0,0,0-3.68,2.54A26.07,26.07,0,0,0,54.59,124c.15-.6.29-1.15.44-1.69a2.37,2.37,0,0,0,.08-1.42C54.9,120.26,54.77,119.62,54.59,118.91Zm13.87-4.53a35.48,35.48,0,0,0-3.71.59c.33.67.65,1.32,1,2a.52.52,0,0,0,.18.18l2,1A32.51,32.51,0,0,0,68.46,114.38Zm-3.7,13.51a13.38,13.38,0,0,0,3.7.5l-.52-3.56c-.11,0-.15,0-.18,0-.61.31-1.23.62-1.83,1a.35.35,0,0,0-.19.17Zm-10.44-13.5.56,3.77.77-.43A5.18,5.18,0,0,0,57,117a5.55,5.55,0,0,0,.73-1.34l.4-.73A33.59,33.59,0,0,0,54.32,114.39Zm.62,10.4a18.1,18.1,0,0,0-.52,3.69,31.7,31.7,0,0,0,3.66-.54c-.22-.43-.44-.77-.59-1.14a2.37,2.37,0,0,0-1.43-1.44C55.67,125.21,55.32,125,54.94,124.79Zm11.22.31a6.63,6.63,0,0,0,.64-.29c1.08-.65,1-.31.72-1.59-.07-.3-.16-.59-.24-.92Zm-5.61-9.53c-.58-.15-1.1-.3-1.63-.42a.42.42,0,0,0-.52.25c-.2.42-.43.83-.68,1.3Zm4.51,1.12c-.13-.28-.22-.51-.34-.72-.5-.89-.5-.89-1.49-.65l-1,.25Zm2.2,3.85s.06,0,.06-.06c.13-.49.27-1,.38-1.48a.42.42,0,0,0-.18-.51c-.43-.24-.87-.46-1.37-.72Zm-6.72,6.78-2.82-1.13c.23.45.4.81.59,1.16s.37.47.81.35Zm1.71,0,1.41.36c.47.13.62.07.85-.37l.56-1.12Zm-5.59-2.2-1.14-2.81c-.14.52-.25,1-.37,1.4s-.07.59.35.81Zm0-7.37-1.22.64c-.33.18-.4.33-.31.68s.25,1,.4,1.51Z"/><path class="cls-1" d="M71,182.84h-.7a38.28,38.28,0,0,1-4-.35c-1-.16-2.06-.4-3-.62l-1-.24a6.51,6.51,0,0,1-.86-.23,25.38,25.38,0,0,1-3.53.86,29.91,29.91,0,0,1-4.76.51c-1.21,0-2.5,0-4.06,0a12.2,12.2,0,0,1-1.48-.16l-.75-.09a28.56,28.56,0,0,1-5.12-1,33.1,33.1,0,0,1-5.48-2,28,28,0,0,1-3.61-2l-.81-.51a14.63,14.63,0,0,1-1.25-.79,24.6,24.6,0,0,1-2-1.61l-.48-.41a27.65,27.65,0,0,1-2.21-2c-.8-.85-1.53-1.74-2.24-2.61l-.57-.69c-.39-.47-.79-1-1.21-1.59a15.65,15.65,0,0,1-.9-1.44c-.46-.82-.9-1.64-1.34-2.47-1.09-.56-2.13-1.18-3.11-1.77A35,35,0,0,1,12,158.05c-.55-.48-1-1-1.49-1.46l-.53-.54-.16-.15c-.24-.24-.47-.47-.69-.73l-.6-.7a20.71,20.71,0,0,1-1.78-2.23,50.36,50.36,0,0,1-2.76-4.6,37.46,37.46,0,0,1-2.37-5.9,33.7,33.7,0,0,1-1-4.3c-.27-1.62-.42-3.18-.54-4.5v-.86c0-.54,0-1.08,0-1.61,0-.37,0-.74.06-1.12l0-.3a38.92,38.92,0,0,1,.84-5.75c.14-.66.33-1.28.51-1.88l0-.15a1.77,1.77,0,0,0-.08-.31,20.29,20.29,0,0,1-.83-3.61l-.12-.72a22.22,22.22,0,0,1-.29-3.38c0-1.25,0-2.62,0-4.17a16.15,16.15,0,0,1,.17-1.68l.09-.7a28.32,28.32,0,0,1,1-4.81A34.76,34.76,0,0,1,3.1,97a30.7,30.7,0,0,1,2.21-4.16c.17-.26.33-.52.49-.78.28-.45.56-.89.85-1.33s.58-.79.89-1.18l.25-.31c.27-.34.54-.67.82-1s.54-.63.8-.9l.51-.52c.58-.59,1.18-1.21,1.84-1.8s1.27-1.08,1.89-1.57l.52-.41c.49-.4,1-.78,1.51-1.15s.88-.58,1.39-.87c.85-.47,1.69-.93,2.55-1.38.55-1,1.12-2,1.69-3a28.44,28.44,0,0,1,3.37-4.49l.17-.2c.46-.54.94-1,1.4-1.45.17-.16.35-.33.51-.5l.18-.17a9.09,9.09,0,0,1,.78-.74l.67-.59a20.56,20.56,0,0,1,2.24-1.77l.18-.11A48.31,48.31,0,0,1,35.17,64a35.48,35.48,0,0,1,6.64-2.58c.94-.25,1.88-.5,2.83-.71a14.74,14.74,0,0,1,2-.3l.48,0c1.16-.11,2.37-.23,3.58-.29a30,30,0,0,1,5.38.29c1.18.15,2.35.38,3.35.59.61.12,1.16.29,1.69.44l.29.09a30.79,30.79,0,0,1,4.82-1.07c.88-.13,1.73-.18,2.56-.24l.94-.06a30.59,30.59,0,0,1,5.72.17,33,33,0,0,1,7.89,1.86c1.41.52,2.67,1.05,3.85,1.6.83.39,1.59.85,2.32,1.28l.47.28c.7.42,1.51.89,2.28,1.43s1.4,1.09,2,1.62c.9.78,1.79,1.55,2.63,2.38.59.59,1.1,1.2,1.59,1.79l.3.36c.48.56,1,1.2,1.51,1.9.63.88,1.16,1.67,1.61,2.43s.71,1.26,1.05,1.9l.27.51.52.27c.66.35,1.33.7,2,1.09a30.78,30.78,0,0,1,4,2.86c.74.62,1.47,1.27,2.2,1.91a7,7,0,0,1,.6.62l.16.17a32.28,32.28,0,0,1,3.12,3.68,40.83,40.83,0,0,1,3,4.93c.57,1.12,1.05,2.18,1.47,3.25.36.9.69,1.88,1,2.89s.54,2,.85,3.32a18.29,18.29,0,0,1,.31,2c.12,1.33.24,2.64.32,4a29.34,29.34,0,0,1-.27,5.38c-.13,1.12-.35,2.21-.57,3.26l0,.16c-.15.73-.36,1.43-.54,2,.23.87.47,1.82.74,3a35.38,35.38,0,0,1,.66,8.21v.13c0,.86-.08,1.76-.2,2.68a34.17,34.17,0,0,1-.63,3.68,40.45,40.45,0,0,1-1.23,4.16,39.76,39.76,0,0,1-1.6,3.85,25.62,25.62,0,0,1-1.28,2.33l-.28.46c-.45.78-.91,1.54-1.42,2.27a24.16,24.16,0,0,1-1.55,2l-.44.5A30,30,0,0,1,112,157c-.85.8-1.74,1.52-2.6,2.23l-.79.64c-.43.36-.91.72-1.46,1.11a16.38,16.38,0,0,1-1.43.91l-2.48,1.34c-.55,1.06-1.14,2.06-1.8,3.15a34.16,34.16,0,0,1-3.33,4.39l-.11.13c-.47.55-1,1-1.41,1.46-.17.16-.35.33-.51.5l-.16.15c-.25.25-.5.5-.77.73l-.66.56a24,24,0,0,1-2.22,1.78c-.93.65-1.89,1.21-2.82,1.76l-.88.52a25.42,25.42,0,0,1-4.08,1.94c-1.15.43-2.12.76-3,1s-2,.51-3,.74c-.37.09-.74.14-1.12.2s-.49.07-.73.12a19.92,19.92,0,0,1-3,.32l-.58,0C72.33,182.81,71.66,182.84,71,182.84ZM28.11,166.31a30.34,30.34,0,0,0,24.11,11,36.44,36.44,0,0,1-10.79-10.6A35.28,35.28,0,0,1,28.11,166.31Zm42.48,11a30,30,0,0,0,24-10.93c-1.26.27-2.56.49-3.89.64a35.76,35.76,0,0,1-9.38-.3A36.37,36.37,0,0,1,70.59,177.27ZM62,175.85h0Zm-1.24,0ZM47.18,165.25a22.73,22.73,0,0,0,2.28,2.68c.87.86,1.69,1.67,2.56,2.41a26.66,26.66,0,0,0,3.53,2.53,31.91,31.91,0,0,0,3.12,1.63c.82.38,1.68.7,2.58,1.05l.18.07c.48-.17,1-.34,1.38-.53.64-.27,1.26-.59,1.89-.89l.29-.15c.58-.29,1.15-.58,1.72-.9.4-.22.79-.46,1.17-.71l.43-.27a9,9,0,0,0,.94-.63l.15-.12c.9-.72,1.76-1.4,2.56-2.13a27.93,27.93,0,0,0,2.76-2.91l.87-1.14a35.34,35.34,0,0,1-14.19-8.92A35.25,35.25,0,0,1,47.18,165.25Zm37-3.69a7,7,0,0,0,1.44.09,4.62,4.62,0,0,1,.88,0h1c.67,0,1.34,0,2-.06a18.53,18.53,0,0,0,2.8-.37L93,161c.69-.14,1.37-.29,2-.47s1.38-.39,2.16-.67c.25-.09.49-.2.74-.31s.74-.32,1.16-.46c.2-.58.41-1.1.61-1.6s.35-.86.5-1.3.3-1,.43-1.56l.12-.47a24,24,0,0,0,.71-4c.08-.92.12-1.67.13-2.34,0-1.21,0-2.32,0-3.42a1.5,1.5,0,0,0,0-.22,22,22,0,0,1-2.5,1l-.43.14a29.48,29.48,0,0,1-4,1.12l-.57.12c-.46.09-.93.18-1.39.25s-.84.1-1.27.15l-.88.09a22.22,22.22,0,0,1-3.24.21A35.63,35.63,0,0,1,84.14,161.56Zm-60.41-2.44c.47.17.9.35,1.32.53a12.58,12.58,0,0,0,1.28.49c1.29.38,2.7.72,4.32,1.05a22,22,0,0,0,2.9.37c1.47.09,2.68.12,3.81.08.42,0,.85,0,1.3-.1A36.69,36.69,0,0,1,36.48,155a36,36,0,0,1-.89-7.72,35.07,35.07,0,0,1-7.69-.88,36.46,36.46,0,0,1-6.62-2.2c0,.36,0,.75,0,1.16,0,.23,0,.46,0,.7s0,.41,0,.6l0,.81c0,.72,0,1.44.07,2.15,0,.42.09.83.14,1.25l.12.95a19.28,19.28,0,0,0,.57,2.75l.13.52c.16.6.38,1.23.63,1.93.1.29.22.57.33.85S23.58,158.67,23.73,159.12Zm41.2-7a30.23,30.23,0,0,0,13.64,8.36c.12-.24.24-.48.35-.73a30,30,0,0,0,1.5-4l.13-.43c.13-.45.27-.91.38-1.38s.21-1,.3-1.65l0-.14c.15-1,.3-2,.39-3a13.19,13.19,0,0,0,0-1.43v-.91a34.09,34.09,0,0,1-4.29-.93c-.62-.18-1.23-.38-1.85-.59l-.71-.24a26.37,26.37,0,0,1-4.38-1.93l-.74-.41A35.66,35.66,0,0,1,64.93,152.12Zm-23.81-5.24a24.38,24.38,0,0,0,.27,4.37l0,.31a23.79,23.79,0,0,0,.81,3.73l.29.88c.25.75.49,1.5.77,2.24a20.26,20.26,0,0,0,.91,2.07c.62-.18,1.22-.36,1.81-.56a26.08,26.08,0,0,0,2.46-1c.81-.39,1.87-.91,2.85-1.49.82-.49,1.64-1.09,2.41-1.65s1.42-1.1,2-1.62,1.35-1.24,2.11-2a36,36,0,0,1-4.76-9.34c-.66.38-1.44.81-2.28,1.19-.53.24-1.09.45-1.64.66-.38.15-.77.29-1.15.45a27.32,27.32,0,0,1-4.25,1.29l-.2,0C42.78,146.6,42,146.76,41.12,146.88ZM5.57,130.62a30.25,30.25,0,0,0,11,24.12,35.13,35.13,0,0,1-.37-13.33A36.2,36.2,0,0,1,5.57,130.62Zm101,10.81c.2,1.33.33,2.58.42,3.78a34.57,34.57,0,0,1-.09,5.54,31.46,31.46,0,0,1-.67,4c.12-.1.24-.19.35-.3a30.29,30.29,0,0,0,3.65-3.69c.66-.83,1.19-1.52,1.65-2.17a12.54,12.54,0,0,0,.8-1.29l.38-.67c.53-.94,1-1.82,1.46-2.73a27.75,27.75,0,0,0,1.07-2.73c.36-1,.61-1.82.8-2.57s.26-1.33.37-2.06v-.13c.16-1,.26-1.87.33-2.63a25.29,25.29,0,0,0,.1-3.16,38.14,38.14,0,0,1-2.59,3.6A36.46,36.46,0,0,1,106.61,141.43Zm-48.73-1.81a29.7,29.7,0,0,0,3.52,7.91,29.53,29.53,0,0,0,3.52-7.91,36.8,36.8,0,0,1-3.52-3.16A36,36,0,0,1,57.88,139.62Zm28.94,2.13A28.68,28.68,0,0,0,94,141a29.75,29.75,0,0,0,6.45-2.33,30,30,0,0,0-5-9.87A28.89,28.89,0,0,0,92.09,125a35.8,35.8,0,0,1-9.36,4.77A35.48,35.48,0,0,1,86.82,141.75Zm-64.45-3.14.71.35a37.42,37.42,0,0,0,4.14,1.57c.73.23,1.53.4,2.36.58l.59.13c.54.12,1.13.2,1.75.28l.71.1c.26,0,.51.07.77.08l2.58.05a35.71,35.71,0,0,1,1-4.39c.17-.6.37-1.19.57-1.78l.24-.73a23.91,23.91,0,0,1,1.54-3.6c.27-.5.54-1,.82-1.5A36.18,36.18,0,0,1,30.74,125,30,30,0,0,0,22.37,138.61Zm48.7-1.38a29.83,29.83,0,0,0,10.06,4,29.63,29.63,0,0,0-3.94-10.05c-1.1.18-2.19.28-3.29.37-.8.07-1.58.11-2.34.11A34.6,34.6,0,0,1,71.07,137.23Zm-25.45-6.12a29.75,29.75,0,0,0-3.95,10.07,30,30,0,0,0,10.07-4,35.78,35.78,0,0,1-.49-5.63A35,35,0,0,1,45.62,131.11Zm50.66-9.66a35.48,35.48,0,0,1,8.92,14.2c.61-.45,1.24-1,1.92-1.55a33.29,33.29,0,0,0,3.17-3.27,27.47,27.47,0,0,0,2.57-3.58,23.52,23.52,0,0,0,1.41-2.64c.45-1,.83-2,1.24-3.07l.06-.14c-.11-.31-.22-.62-.35-.91-.52-1.21-1-2.19-1.38-3.09-.18-.37-.42-.76-.67-1.17l-.25-.41c-.38-.63-.74-1.22-1.13-1.77a31.91,31.91,0,0,0-2.69-3.31,25.94,25.94,0,0,0-2.84-2.67l-1.06-.81A35.59,35.59,0,0,1,96.28,121.45Zm-89,0c.34.86.67,1.71,1,2.55.09.21.2.4.3.59s.19.36.28.55.18.36.26.55a6.45,6.45,0,0,0,.29.59c.14.24.29.47.44.71s.41.64.59,1a19.47,19.47,0,0,0,2.14,2.94,31.61,31.61,0,0,0,3.2,3.28c.6.51,1.22,1,1.85,1.49a35.47,35.47,0,0,1,8.93-14.2,35.36,35.36,0,0,1-8.93-14.19l-.13.1a22.33,22.33,0,0,0-3.24,2.82c-.36.37-.7.76-1,1.14l-.52.6a24.19,24.19,0,0,0-2.74,3.8c-.44.72-.87,1.52-1.4,2.57A29,29,0,0,0,7.23,121.43ZM64.92,132.2c.35.38.72.75,1.09,1.1,0-.71.06-1.42.06-2.12l-.41-.06Zm-8.18-1c0,.72,0,1.42,0,2.12.36-.35.72-.72,1.09-1.11l-.74-1.07Zm14.4-5.07c.71,0,1.42,0,2.12-.06q-.54-.55-1.11-1.08l-.4.28-.67.47Zm-21.6-.06q1.05.08,2.13.06l.06-.4L50.65,125Q50.08,125.49,49.54,126.05Zm26.87-4.6A37.16,37.16,0,0,1,79.58,125a30,30,0,0,0,7.91-3.52,30,30,0,0,0-7.91-3.53A35.84,35.84,0,0,1,76.41,121.45Zm-41.11,0A29.82,29.82,0,0,0,43.23,125a36.72,36.72,0,0,1,3.18-3.55c-.42-.42-.85-.85-1.26-1.29-.68-.73-1.31-1.48-1.92-2.22a29.76,29.76,0,0,0-4.86,1.84A30.64,30.64,0,0,0,35.3,121.44Zm24,2.14,2.1.86.78-.32,1.38-.56c.29-.67.56-1.35.83-2l-.87-2.25-.22-.09c-.58-.24-1.16-.49-1.75-.71l-.1,0c-.72.31-1.44.59-2.14.86l-.06,0c-.1.21-.19.42-.27.64s-.25.67-.37,1c-.05.15-.11.29-.16.44l.32.81C58.94,122.69,59.11,123.14,59.29,123.58Zm-1.08-1.53h0ZM1.6,122v0Zm56.59-1.17h0Zm57.62,0v0Zm-56.31-2v0Zm-10-1.89c.36.38.73.75,1.09,1.09l1.09-.74-.06-.41C51,116.77,50.26,116.79,49.55,116.84Zm21.52.35,1.08.74c.38-.35.75-.72,1.11-1.09-.73,0-1.43-.07-2.13-.06Zm11.66-4a35.75,35.75,0,0,1,9.35,4.77,30.46,30.46,0,0,0,8.36-13.64l-.73-.35a39,39,0,0,0-4-1.52c-.94-.3-1.93-.51-3-.74-.38-.08-.71-.11-1-.15s-.77-.09-1.16-.15a12.61,12.61,0,0,0-2.59-.19H86.81l-.12.74a35.6,35.6,0,0,1-1,4.21c-.12.37-.24.73-.37,1.09s-.19.53-.27.79a24.57,24.57,0,0,1-1.51,3.57C83.28,112.12,83,112.64,82.73,113.15Zm-60.36-8.87c.07.24.14.49.22.73a13.23,13.23,0,0,0,.5,1.42c.39,1,.73,1.8,1.12,2.59a24.18,24.18,0,0,0,1.31,2.44c.54.88,1.14,1.73,1.66,2.44a22.64,22.64,0,0,0,1.51,1.87c.67.75,1.39,1.49,2,2.15a35.51,35.51,0,0,1,9.36-4.77c-.27-.47-.52-1-.77-1.45-.43-.82-.83-1.72-1.21-2.66s-.62-1.66-.93-2.63a27.54,27.54,0,0,1-.76-2.88l-.13-.64c-.11-.56-.22-1.14-.32-1.74H35c-.89,0-1.73.06-2.52.16s-1.7.25-2.6.41l-.69.13a10,10,0,0,0-1.1.23c-.52.17-1,.36-1.56.54s-1.09.39-1.63.57A16.73,16.73,0,0,0,22.37,104.28Zm84.26-2.8a36.1,36.1,0,0,1,10.63,10.87,30.75,30.75,0,0,0-.51-6.37,29.7,29.7,0,0,0-5.54-12.64,31.2,31.2,0,0,0-4.92-5.16c.27,1.25.48,2.53.63,3.83A35.09,35.09,0,0,1,106.63,101.48ZM16.52,88.18A30.84,30.84,0,0,0,8,99.46a31.39,31.39,0,0,0-2.45,12.82,35,35,0,0,1,2.59-3.58,36,36,0,0,1,8-7.23c-.11-.87-.22-1.74-.31-2.6a28,28,0,0,1-.15-4.52,36.93,36.93,0,0,1,.47-4.45C16.29,89.3,16.4,88.73,16.52,88.18Zm25.15,13.53a29.3,29.3,0,0,0,4,10.08c.56-.08,1.11-.16,1.67-.22,1-.12,2.16-.24,3.31-.28h.65c0-1.21.08-2.3.19-3.35.07-.72.16-1.47.29-2.23-.59-.37-1.15-.72-1.71-1a29.34,29.34,0,0,0-3.93-1.74c-.64-.23-1.31-.42-2-.62l-.57-.16C42.93,102,42.33,101.84,41.67,101.71Zm15.07,10,.4.07.73-1.07c-.35-.37-.71-.73-1.08-1.09C56.75,110.31,56.73,111,56.74,111.71Zm14.82-.42c.59,0,1.19.06,1.78.1l1.35.09a18.77,18.77,0,0,1,2.47.29c.31-.49.62-1,.9-1.48.45-.8.84-1.64,1.16-2.36s.53-1.25.81-2.06.45-1.33.59-1.9c.2-.79.36-1.6.48-2.25-.42.09-.89.19-1.42.32s-1.27.31-1.89.52-1.35.47-2.21.82-1.35.57-1.88.84c-.87.45-1.74.93-2.39,1.31l-.23.14c.13.79.23,1.64.32,2.61S71.56,110.2,71.56,111.29Zm-6.64-.6.51.73c.08.11.15.23.23.35l.41-.06c0-.7,0-1.4-.06-2.12C65.64,110,65.28,110.31,64.92,110.69Zm-7-7.42a35.76,35.76,0,0,1,3.52,3.16,38.8,38.8,0,0,1,3.52-3.16,30.06,30.06,0,0,0-3.52-7.91A29.7,29.7,0,0,0,57.88,103.27Zm7.05-12.48c.66.94,1.25,1.85,1.78,2.76a30,30,0,0,1,2.35,4.88c.21.57.4,1.14.6,1.72A33.6,33.6,0,0,1,75,97.73,37,37,0,0,1,81.69,96c0-.22,0-.45,0-.67V95c0-.87-.06-1.7-.15-2.49-.07-.63-.19-1.26-.3-1.89-.08-.44-.16-.88-.23-1.32a16.11,16.11,0,0,0-.6-2.28l-.22-.68a21.79,21.79,0,0,0-.79-2.08l-.26-.63c-.12-.29-.26-.57-.41-.85l-.1-.2-.06-.11a25.6,25.6,0,0,0-2.76.94c-.62.26-1.28.54-1.91.86-.87.44-1.72.88-2.52,1.37s-1.47.94-2.4,1.62a24,24,0,0,0-1.87,1.51C66.4,89.34,65.69,90,64.93,90.79ZM41.09,96a35.83,35.83,0,0,1,12,4.09,35.42,35.42,0,0,1,4.75-9.33,29.92,29.92,0,0,0-13.65-8.38c-.1.21-.21.44-.3.66-.33.77-.7,1.65-1,2.5s-.53,1.54-.73,2.27-.4,1.58-.58,2.5c-.13.64-.22,1.33-.29,2s-.15,1.36-.18,1.92S41.09,95.52,41.09,96Zm46.11-.39a35.66,35.66,0,0,1,14.31,3.07l0-.2a14.43,14.43,0,0,0,0-1.51v-.65c0-1,0-1.86-.06-2.76,0-.45-.09-.89-.15-1.33s-.09-.67-.12-1a23,23,0,0,0-.74-3.43c-.18-.7-.42-1.39-.61-1.92-.11-.29-.22-.58-.34-.86s-.33-.82-.49-1.28c-.59-.19-1.14-.42-1.67-.63s-.84-.34-1.26-.49a20.09,20.09,0,0,0-2-.53C93,81.86,92,81.64,91,81.48c-.52-.07-1.1-.09-1.71-.11l-.48,0-3.5-.1a10,10,0,0,0-1.19.08c.09.19.19.38.28.58A23.1,23.1,0,0,1,85.52,85l.23.71a31.1,31.1,0,0,1,.75,3l.12.58c0,.23.1.45.13.68.09.7.18,1.35.25,2l0,.39a18.14,18.14,0,0,1,.15,1.88C87.2,94.75,87.2,95.2,87.2,95.64ZM23.72,83.77c-.17.51-.36,1-.54,1.38a12.14,12.14,0,0,0-.48,1.26c-.32,1.08-.57,2.17-.83,3.34l-.24,1a15.86,15.86,0,0,0-.34,2.8c-.07,1.22-.1,2.46-.09,3.81,0,.42,0,.85.07,1.28.56-.24,1.12-.47,1.67-.68a43.3,43.3,0,0,1,4.95-1.49,33.11,33.11,0,0,1,5.26-.79c.82-.06,1.64-.08,2.44-.08a36.08,36.08,0,0,1,3.08-14.32l-.17,0a13.5,13.5,0,0,0-1.81,0l-2,0L33,81.39a18.18,18.18,0,0,0-3.33.48c-.83.19-1.67.42-2.55.66-.44.13-.84.26-1.24.41l-.78.31C24.68,83.42,24.22,83.61,23.72,83.77Zm23.46-6.12a35.16,35.16,0,0,1,7.36,3.43,36.32,36.32,0,0,1,6.86,5.5,35.4,35.4,0,0,1,14.2-8.93c-.48-.64-1-1.32-1.59-2a34.21,34.21,0,0,0-3.26-3.14A27,27,0,0,0,67.22,70a24.27,24.27,0,0,0-2.7-1.45c-.95-.43-1.94-.8-3-1.2l-.18-.06c-.29.1-.58.21-.86.33l-.61.26c-.87.36-1.69.71-2.47,1.1-.51.26-1,.57-1.56.91l-.9.54a30,30,0,0,0-6.17,5.26l-.78,1C47.73,77,47.45,77.31,47.18,77.65Zm39.95-1.9a35,35,0,0,1,7.56.83,30.42,30.42,0,0,0-24.19-11c.36.22.73.45,1.09.7a27.33,27.33,0,0,1,3.73,2.93l.54.5a24.25,24.25,0,0,1,2.19,2.22l.27.32c.28.33.56.66.82,1l.18.22c.53.68,1.07,1.37,1.57,2.07.16.22.32.44.47.67A36.5,36.5,0,0,1,87.13,75.75ZM51.26,65.57a30.34,30.34,0,0,0-23.1,11l.21,0a34.78,34.78,0,0,1,7.43-.78,38.92,38.92,0,0,1,5.64.48c.21-.31.41-.61.63-.91.49-.68,1-1.34,1.55-2l.38-.47c.41-.51.84-1,1.35-1.58A40,40,0,0,1,49,68a28.51,28.51,0,0,1,2.94-2.11l.43-.26ZM60.72,67h0Zm.35-5.43h0Z"/></g></g></svg>