<svg id="Layer_1" data-name="Layer 1" xmlns="http://www.w3.org/2000/svg" viewBox="0 0 2886.62 2886.62"><defs><style>.cls-1{font-size:319px;fill:#fff;font-family:NarlyOT-Light, Narly OT;font-weight:300;}</style></defs><text class="cls-1" transform="matrix(1, 0.06, -0.06, 1, 1398.07, 271.84)">O</text><text class="cls-1" transform="matrix(0.97, 0.26, -0.26, 0.97, 1626.92, 285.15)">N</text><text class="cls-1" transform="translate(1850.28 349.66) rotate(21.74)"> </text><text class="cls-1" transform="translate(1896.24 362.28) rotate(28.31)">G</text><text class="cls-1" transform="translate(2087.24 463.43) rotate(39.2)">R</text><text class="cls-1" transform="translate(2264.06 612.03) rotate(47.88)">I</text><text class="cls-1" transform="matrix(0.55, 0.83, -0.83, 0.55, 2351.54, 701.87)">D</text><text class="cls-1" transform="matrix(0.45, 0.89, -0.89, 0.45, 2475.27, 898.72)"> </text><text class="cls-1" transform="translate(2501.7 938.22) rotate(70.34)">A</text><text class="cls-1" transform="translate(2578.59 1154.49) rotate(81.01)">U</text><text class="cls-1" transform="translate(2612.35 1355.06) rotate(91.51)">D</text><text class="cls-1" transform="translate(2602.9 1585.85) rotate(100.2)">I</text><text class="cls-1" transform="translate(2585.33 1709.92) rotate(108.99)">O</text><text class="cls-1" transform="translate(2504.78 1928) rotate(115.89)"> </text><text class="cls-1" transform="matrix(-0.54, 0.84, -0.84, -0.54, 2489.52, 1973.02)">O</text><text class="cls-1" transform="translate(2366.25 2166.34) rotate(133.94)">N</text><text class="cls-1" transform="matrix(-0.77, 0.63, -0.63, -0.77, 2201.23, 2330.2)"> </text><text class="cls-1" transform="matrix(-0.84, 0.54, -0.54, -0.84, 2167.85, 2364.25)">G</text><text class="cls-1" transform="translate(1986.88 2482.41) rotate(158.22)">R</text><text class="cls-1" transform="translate(1771.24 2564.86) rotate(167.02)">I</text><text class="cls-1" transform="translate(1650.23 2597.5) rotate(175.75)">D</text><text class="cls-1" transform="translate(1417.92 2609.64) rotate(-177.49)"> </text><text class="cls-1" transform="matrix(-0.99, -0.16, 0.16, -0.99, 1370.52, 2613.5)">A</text><text class="cls-1" transform="translate(1144.09 2575.92) rotate(-159.99)">U</text><text class="cls-1" transform="translate(952.34 2508.29) rotate(-149.34)">D</text><text class="cls-1" transform="matrix(-0.77, -0.63, 0.63, -0.77, 755.46, 2387.61)">I</text><text class="cls-1" transform="matrix(-0.67, -0.74, 0.74, -0.67, 655.64, 2311.68)">O</text><text class="cls-1" transform="matrix(-0.58, -0.82, 0.82, -0.58, 504.03, 2135.33)"> </text><text class="cls-1" transform="matrix(-0.47, -0.88, 0.88, -0.47, 472.05, 2100.19)">O</text><text class="cls-1" transform="translate(362.62 1898.81) rotate(-106.98)">N</text><text class="cls-1" transform="translate(299.71 1674.98) rotate(-100.08)"> </text><text class="cls-1" transform="matrix(-0.06, -1, 1, -0.06, 286.26, 1629.24)">G</text><text class="cls-1" transform="translate(271.3 1413.52) rotate(-82.76)">R</text><text class="cls-1" transform="translate(303.78 1184.93) rotate(-73.99)">I</text><text class="cls-1" transform="translate(333.82 1063.27) rotate(-65.2)">D</text><text class="cls-1" transform="matrix(0.53, -0.85, 0.85, 0.53, 436.04, 854.42)"> </text><text class="cls-1" transform="matrix(0.62, -0.78, 0.78, 0.62, 455.77, 811.16)">A</text><text class="cls-1" transform="matrix(0.76, -0.66, 0.66, 0.76, 599.04, 631.71)">U</text><text class="cls-1" transform="translate(751.25 496.85) rotate(-30.37)">D</text><text class="cls-1" transform="translate(952.17 383.06) rotate(-21.61)">I</text><text class="cls-1" transform="matrix(0.98, -0.22, 0.22, 0.98, 1066.86, 332.59)">O</text><text class="cls-1" transform="translate(1294.67 286.09) rotate(-5.94)"> </text></svg>