<svg id="Layer_1" data-name="Layer 1" xmlns="http://www.w3.org/2000/svg" xmlns:xlink="http://www.w3.org/1999/xlink" viewBox="0 0 1000 1000"><defs><style>.cls-1{fill:url(#linear-gradient);}.cls-2{fill:#fff;}</style><linearGradient id="linear-gradient" x1="500" y1="1000" x2="500" gradientUnits="userSpaceOnUse"><stop offset="0" stop-color="#0071bc"/><stop offset="1" stop-color="#2ba3fc"/></linearGradient></defs><circle class="cls-1" cx="500" cy="500" r="500"/><path class="cls-2" d="M523.91,912.66c-25.87-1.56-51.7-3.57-77.07-8.69-63.78-13-129.71-57.64-159.7-116.15-24-52.33,1.42-102.18,59.63-107.84,29.81-2.89,63,3.29,91.34,11.63-2.8-.9-5.93-5.46-8-7.38-28.25-23.64-60-50.32-65.95-88.73-11-79,86.7-83.7,142.64-88.27-6.53.55-16-3.72-22.3-5.24-30.84-7.41-63.38-13-89.88-31.55-5.22-3.67-10.2-7.91-13.52-13.36-3.6-5.92-5-12.9-5.87-19.77C369.42,395.61,388,363,429.4,351.79c15.3-4.26,31.25-5,47.05-5,9.17.05,23.05-2.5,31.68.54-35.71-12.55-100.71-36.24-88.65-86.73,1.73-7.24,5.69-13.74,9.84-19.92a274.58,274.58,0,0,1,49-55.18c16.42-14.09,36.12-26.73,57.74-26.19,19.17.48,36.4,11.2,52.33,21.86,32.8,22,65.64,46.18,86,80,19,31.61,33.09,105.21-13.62,119.47,1.22-.37,8.14,5.63,9.46,6.51,13.78,8.49,28.35,18.94,32.74,35.43,3.84,14.48-1.77,30.31-11.69,41.53s-23.63,18.43-37.66,23.7c-22.61,8.49-45.89,14.81-69.35,20.33,12.67-3,30.84-.82,43.61.93,65.7,8,99.38,64.54,101.95,126.63,2.51,31.4-7.08,52.22-28.69,74.47-3.06,3.22-25.47,27.83-28.61,26.48,40,17.25,97.24,44.87,121.27,82.17a56.69,56.69,0,0,1,3.92,46.23C764.76,946.53,594.61,913.91,523.91,912.66Z" transform="translate(-40 -40)"/></svg>